<svg viewBox="0 0 274.81 245.24" xmlns="http://www.w3.org/2000/svg"><g transform="translate(0 -6.78)"><g fill="#8e5710"><path d="m178.63 177.91q-1.8.34-3.63.87c-40 12-30 62.12 4.51 69.56-63.77 14.22-150.76-14.82-179.51-51.56 64 6 39-136 121-159 30.32-8.5 56.83-1.72 77.48 19.27 17.52 13.79-8.48 54.75-23.48 72.73 49.9-34.14 56-97 60-123 14 12 7 33 18 41-8 2-18 11-31 39 70 14 52.46 99.16 0 142a84.88 84.88 0 0 1 -8.6 6.15c16.91-31.84-5.5-62.63-34.77-57.02z"/><path d="m63.85 126.71 12.89.15v3.8l-2.39.1-.35 30.58-6.66.16-12.96-23.16.11 20 5.4.11v4.37h-14.09v-5.15l3.17.05-.47-26.31-2.81-.1-.05-4.06h8.58l14.3 24.28.11-20.69-4.63.16-.15-4.26m-3.12-3 .12 3.15.15 4.26.08 2.11-4.37-7.43-.87-1.48h-13.34v3l.05 4.05v2.86l2.82.1.36 20.37h-.06-3.08v3.08 5.15 3h3 14.09 3v-3-3.15l2.03 3.19.88 1.58h1.81l6.66-.16 2.89-.07v-2.89l.34-27.74 2.42-.11v-9.71h-3l-12.9-.15h-3.15zm.85 10.26 2.49-.06h1.44v6.71zm-4.11 21.35v-5.42l3.07 5.48h-.54l-2.48-.05z"/><path d="m88.81 140a10 10 0 0 1 4 .84 11.39 11.39 0 0 1 3.69 2.55 12.06 12.06 0 0 1 2.5 3.7 10.41 10.41 0 0 1 .86 4.42 14.16 14.16 0 0 1 -.83 4.6 11.44 11.44 0 0 1 -2.19 3.75 10.79 10.79 0 0 1 -7.84 3.66h-.63a12.52 12.52 0 0 1 -3.86-.59 10.67 10.67 0 0 1 -3.72-2 10.83 10.83 0 0 1 -2.65-3.32 12.18 12.18 0 0 1 -1.31-4.42 12.57 12.57 0 0 1 .55-5.23 11.39 11.39 0 0 1 6.19-6.86 12.45 12.45 0 0 1 4.77-1.1zm-.16 18.52a4.82 4.82 0 0 0 2.31-.57 6.27 6.27 0 0 0 1.85-1.51 7.41 7.41 0 0 0 1.25-2.16 6.89 6.89 0 0 0 .47-2.47 6.4 6.4 0 0 0 -.53-2.51 8.07 8.07 0 0 0 -1.38-2.18 7 7 0 0 0 -2-1.54 4.73 4.73 0 0 0 -4.73.13 7.33 7.33 0 0 0 -2 1.72 7.64 7.64 0 0 0 -1.64 5.28 5.83 5.83 0 0 0 2 4.26 6.56 6.56 0 0 0 4.32 1.51m.24-21.48h-.6a15.56 15.56 0 0 0 -5.88 1.39 14.39 14.39 0 0 0 -7.78 8.61 15.63 15.63 0 0 0 -.69 6.47 15 15 0 0 0 1.63 5.53 13.75 13.75 0 0 0 8.11 6.82 15.77 15.77 0 0 0 4.78.73h.76a13.77 13.77 0 0 0 10-4.67 14.68 14.68 0 0 0 2.76-4.72 17.23 17.23 0 0 0 1-5.55 13.64 13.64 0 0 0 -1.1-5.66 15.35 15.35 0 0 0 -3.07-4.66 14.66 14.66 0 0 0 -4.64-3.21 13.15 13.15 0 0 0 -5.28-1.08zm-.16 18.52a3.53 3.53 0 0 1 -2.4-.82 2.84 2.84 0 0 1 -1-2.18 4.23 4.23 0 0 1 .2-1.69 4.55 4.55 0 0 1 .78-1.48 4.17 4.17 0 0 1 1.15-1 2.12 2.12 0 0 1 .92-.3 2.18 2.18 0 0 1 .93.24 3.85 3.85 0 0 1 1.11.87 4.6 4.6 0 0 1 .85 1.36 3.21 3.21 0 0 1 .29 1.29 3.87 3.87 0 0 1 -.27 1.4 4.42 4.42 0 0 1 -.76 1.31 3 3 0 0 1 -1 .78 1.75 1.75 0 0 1 -.89.22z"/><path d="m112 140a10 10 0 0 1 4 .84 11.39 11.39 0 0 1 3.69 2.55 12.06 12.06 0 0 1 2.47 3.74 10.56 10.56 0 0 1 .86 4.42 14.16 14.16 0 0 1 -.83 4.6 11.44 11.44 0 0 1 -2.19 3.75 10.94 10.94 0 0 1 -3.38 2.57 10.83 10.83 0 0 1 -4.47 1.09h-.63a12.64 12.64 0 0 1 -3.87-.59 10.71 10.71 0 0 1 -3.71-2 11 11 0 0 1 -2.66-3.32 12.37 12.37 0 0 1 -1.3-4.42 12.57 12.57 0 0 1 .55-5.23 11.39 11.39 0 0 1 6.19-6.86 12.45 12.45 0 0 1 4.76-1.12h.52m-.16 18.52a4.82 4.82 0 0 0 2.31-.57 6.27 6.27 0 0 0 1.85-1.57 7.64 7.64 0 0 0 1.25-2.16 6.88 6.88 0 0 0 .46-2.47 6.23 6.23 0 0 0 -.52-2.47 7.8 7.8 0 0 0 -1.37-2.18 7 7 0 0 0 -2-1.54 4.73 4.73 0 0 0 -4.73.13 7.18 7.18 0 0 0 -2 1.72 7.73 7.73 0 0 0 -1.3 2.44 7.57 7.57 0 0 0 -.34 2.84 5.83 5.83 0 0 0 2 4.26 6.54 6.54 0 0 0 4.32 1.51m.23-21.48h-.6a15.56 15.56 0 0 0 -5.88 1.39 14.39 14.39 0 0 0 -7.83 8.61 15.63 15.63 0 0 0 -.69 6.47 15 15 0 0 0 1.63 5.53 13.75 13.75 0 0 0 8.11 6.82 15.77 15.77 0 0 0 4.78.73h.76a13.82 13.82 0 0 0 10-4.67 14.68 14.68 0 0 0 2.76-4.72 17.23 17.23 0 0 0 1-5.55 13.64 13.64 0 0 0 -1.1-5.66 15.35 15.35 0 0 0 -3.07-4.66 14.66 14.66 0 0 0 -4.64-3.21 13.15 13.15 0 0 0 -5.23-1.08zm-.16 18.52a3.53 3.53 0 0 1 -2.4-.82 2.84 2.84 0 0 1 -1-2.18 4.23 4.23 0 0 1 .2-1.69 4.55 4.55 0 0 1 .78-1.48 4.17 4.17 0 0 1 1.15-1 2.12 2.12 0 0 1 .92-.3 2.18 2.18 0 0 1 .93.24 3.85 3.85 0 0 1 1.11.87 4.82 4.82 0 0 1 .85 1.36 3.2 3.2 0 0 1 .28 1.29 3.85 3.85 0 0 1 -.26 1.4 4.65 4.65 0 0 1 -.76 1.31 3 3 0 0 1 -1 .78 1.75 1.75 0 0 1 -.89.22z"/><path d="m123.12 126.6 9.47.06-.21 18.72 10.92-13.21 7.12.31-10.76 12.84 6.66 12.74 3 .06.42 5.51-6.82.15-7.33-13.88-3.59 4.1-.05 4.52 4.84.05.05 4.58h-13.77l.05-4.68 3.33.05-.31-27.71h-3v-4.21m-3-3v10.23h3l.25 21.66h-.25-3v3l-.05 4.68v3h19.79v-1.76l.42.78.87 1.65 1.85-.05 6.81-.15 3.17-.07-.24-3.16-.42-5.51-.2-2.73h-2.74-1.18l-4.9-9.39 9.47-11.3 3.91-4.66-6.07-.27-7.13-.31-1.49-.06-.95 1.15-5.52 6.67.12-10.24v-3h-3l-9.46-.06zm14.83 32v-.37l.2.38z"/><path d="m155.88 130.82a4.51 4.51 0 0 1 2.86 1 3.48 3.48 0 0 1 1.3 2.81 3.45 3.45 0 0 1 -1 2.73 3.53 3.53 0 0 1 -2.68 1.12 4.93 4.93 0 0 1 -2.88-.88 3.07 3.07 0 0 1 -1.28-2.71 4.28 4.28 0 0 1 1-2.83 3.22 3.22 0 0 1 2.62-1.22m4.42 9.72v17.21l2.92.11v4.94h-11.75l-.15-4.68 3.53-.16.21-12.08-4.42-.21-.05-4.89 9.82-.26m-4.42-12.72a6.21 6.21 0 0 0 -4.93 2.3 7.35 7.35 0 0 0 -1.71 4.75 6.76 6.76 0 0 0 .65 2.95l-2.45.06v3l.05 4.89v2.83l2.83.13 1.52.08-.08 6.33h-.71l-3 .13.1 3 .15 4.68.1 2.9h17.76v-10.85l-2.9-.1v-14.33-3.07h-.75a6.69 6.69 0 0 0 .5-3 6.47 6.47 0 0 0 -2.43-5 7.5 7.5 0 0 0 -4.73-1.63z"/><path d="m172 139.66v3.17a9.06 9.06 0 0 1 2.94-1.43 11.23 11.23 0 0 1 3.26-.5h.3a11.57 11.57 0 0 1 7.49 3 10.83 10.83 0 0 1 2.42 3.23 9.52 9.52 0 0 1 1 4 14 14 0 0 1 -.54 4.21 11.06 11.06 0 0 1 -1.93 3.77 10.09 10.09 0 0 1 -3.4 2.76 11.37 11.37 0 0 1 -5.05 1.11h-.34a10.79 10.79 0 0 1 -6.26-2l.05 10.71 4.37-.1.15 5.35-13.1-.21.05-4.36 3-.16-.16-27.87h-2.6v-4.34l8.42-.31m5.83 17.94a4.89 4.89 0 0 0 3.53-1.57 6.39 6.39 0 0 0 .44-8.1 4.89 4.89 0 0 0 -4-1.77 8 8 0 0 0 -3.1.65 5.18 5.18 0 0 0 -2.42 1.91v5.95a6.21 6.21 0 0 0 2.29 2.09 6.54 6.54 0 0 0 3.23.84m-2.87-21.09-3.11.12-8.42.31-2.89.11v10.2l2.62.05.12 22.09h-.11l-2.8.15v2.81l-.05 4.37v3h3l13.11.21h3.13l-.09-3.14-.15-5.35-.09-3-3 .07h-1.32v-3a13.94 13.94 0 0 0 3.24.38h.43a14.42 14.42 0 0 0 6.32-1.44 13.14 13.14 0 0 0 4.4-3.58 14 14 0 0 0 2.45-4.79 17.07 17.07 0 0 0 .66-5.12 12.59 12.59 0 0 0 -1.27-5.28 14 14 0 0 0 -3.08-4.11 14.57 14.57 0 0 0 -9.44-3.78h-.38a14.05 14.05 0 0 0 -3.2.38v-1.74zm.31 13.34a3 3 0 0 1 .57-.3 5 5 0 0 1 1.92-.42c1.17 0 1.51.46 1.66.65a2.75 2.75 0 0 1 .57 2.06v.06a2.77 2.77 0 0 1 -.79 2 1.85 1.85 0 0 1 -1.41.69 3.52 3.52 0 0 1 -1.77-.46 4.1 4.1 0 0 1 -.75-.52v-3.74z"/><path d="m200.45 140.23a11.81 11.81 0 0 1 3.25.54 8.65 8.65 0 0 1 3.43 2 11.19 11.19 0 0 1 2.63 4.14 16.18 16.18 0 0 1 .78 6.81l-15.35.47a3.13 3.13 0 0 0 .5 1.71 5.44 5.44 0 0 0 1.25 1.38 5.93 5.93 0 0 0 1.69.94 6.93 6.93 0 0 0 1.87.39h.27a7.66 7.66 0 0 0 2.46-.42 5.31 5.31 0 0 0 2.21-1.35l3 3.79a8.34 8.34 0 0 1 -3.59 2.42 12.54 12.54 0 0 1 -3.93.6h-.33a12.34 12.34 0 0 1 -4.32-.88 10.65 10.65 0 0 1 -3.64-2.42 10.82 10.82 0 0 1 -2.41-3.93 13.72 13.72 0 0 1 -.71-5.46 11.84 11.84 0 0 1 1.25-4.86 10.74 10.74 0 0 1 2.68-3.35 10.87 10.87 0 0 1 3.46-1.93 11.49 11.49 0 0 1 3.59-.62m-5 9.36 9.62-.37a4.23 4.23 0 0 0 -1.7-3 4.74 4.74 0 0 0 -2.84-1h-.15a5.5 5.5 0 0 0 -3.14 1.2 4.48 4.48 0 0 0 -1.79 3.17m5-12.36a14.31 14.31 0 0 0 -4.54.78 13.81 13.81 0 0 0 -4.41 2.45 14 14 0 0 0 -3.43 4.26 14.7 14.7 0 0 0 -1.59 6.1 17 17 0 0 0 .88 6.67 13.88 13.88 0 0 0 3.1 5 13.5 13.5 0 0 0 4.66 3.1 15.23 15.23 0 0 0 5.36 1.1h.4a15.52 15.52 0 0 0 4.87-.75 11.42 11.42 0 0 0 4.87-3.24l1.71-1.88-1.56-2-1.59-2h1.45l2.73-.09.17-2.72a18.92 18.92 0 0 0 -1-8.1 14.17 14.17 0 0 0 -3.37-5.23 11.57 11.57 0 0 0 -4.63-2.71 14.55 14.55 0 0 0 -4.1-.67z"/><path d="m227.28 126.55 9.31.16v4.89l-3.18.2-.36 27.77 2.6-.1v4.94l-8.32.21v-3.49a5.57 5.57 0 0 1 -2.49 1.43 12.35 12.35 0 0 1 -3.12.55h-.28a10.7 10.7 0 0 1 -3.78-.68 11.11 11.11 0 0 1 -3.54-2.1 10.5 10.5 0 0 1 -3.53-7.83 12.51 12.51 0 0 1 .7-4.42 11.59 11.59 0 0 1 2.21-3.87 10.88 10.88 0 0 1 3.61-2.73 10.58 10.58 0 0 1 4.65-1h.27a9.11 9.11 0 0 1 2.86.47 6.47 6.47 0 0 1 2.34 1.24v-15.64m-5.13 31.83a5 5 0 0 0 2.66-.76 7 7 0 0 0 2.26-2.26l.05-7.38a7.07 7.07 0 0 0 -2.44-1.82 5.55 5.55 0 0 0 -2.29-.59h-.31a6.21 6.21 0 0 0 -2.52.71 5.87 5.87 0 0 0 -1.85 1.5 7.09 7.09 0 0 0 -1.12 2 5.93 5.93 0 0 0 -.39 2.08 6.72 6.72 0 0 0 1.56 4.61 5.46 5.46 0 0 0 4.21 1.95h.18m2.13-34.88v14.2a11.55 11.55 0 0 0 -2.17-.21h-.3a13.69 13.69 0 0 0 -5.95 1.28 14.13 14.13 0 0 0 -4.58 3.48 14.79 14.79 0 0 0 -2.78 4.85 15.85 15.85 0 0 0 -.86 5.47 13.58 13.58 0 0 0 1.31 5.72 13.85 13.85 0 0 0 3.24 4.29 14.09 14.09 0 0 0 9.3 3.53h.35a14 14 0 0 0 2.47-.31v1.89l3.13-.07 8.31-.21 2.93-.08v-11l-2.56.1.29-21.83h.4l2.81-.18v-10.7l-3-.05-9.31-.16h-3.05zm-2.13 31.88h-.07a2.49 2.49 0 0 1 -2-.89 3.71 3.71 0 0 1 -.85-2.61v-.06a3 3 0 0 1 .2-1 4 4 0 0 1 .65-1.13 2.88 2.88 0 0 1 .92-.74 3.18 3.18 0 0 1 1.33-.35h.06a2.69 2.69 0 0 1 1.06.31 5.65 5.65 0 0 1 .69.39v5.09a3.59 3.59 0 0 1 -.83.7 2 2 0 0 1 -1.1.32z"/><path d="m242.05 130.82a4.55 4.55 0 0 1 2.86 1 3.54 3.54 0 0 1 1.3 2.81 3.58 3.58 0 0 1 -3.64 3.85 4.94 4.94 0 0 1 -2.89-.88 3.07 3.07 0 0 1 -1.27-2.71 4.27 4.27 0 0 1 1-2.83 3.24 3.24 0 0 1 2.63-1.22m4.42 9.72.05 17.21 2.91.11v4.94h-11.85l-.15-4.68 3.58-.14.16-12.06-4.42-.21-.05-4.89 9.83-.26m-4.42-12.72a6.22 6.22 0 0 0 -4.94 2.3 7.39 7.39 0 0 0 -1.7 4.75 6.76 6.76 0 0 0 .64 2.95l-2.44.06v3l.05 4.89v2.83l2.83.13 1.52.08-.08 6.33h-.7l-3 .13.1 3 .16 4.68.09 2.9h17.76v-10.89l-2.89-.1v-14.33-3.07h-.76a6.69 6.69 0 0 0 .5-3 6.47 6.47 0 0 0 -2.43-5 7.47 7.47 0 0 0 -4.72-1.63z"/><path d="m258.73 139.67h1.07a10.17 10.17 0 0 1 4 1.19 8.38 8.38 0 0 1 3.25 2.79 10.36 10.36 0 0 1 1.48 3.79 27.51 27.51 0 0 1 .45 4.92c0 1.83 0 3.9.07 6.18l2.45-.05.21 5.05-8.12.2v-2a6.28 6.28 0 0 1 -3.87 1.69c-.36 0-.73.05-1.09.05a10.79 10.79 0 0 1 -3.54-.6 9.3 9.3 0 0 1 -3.87-2.52 6.28 6.28 0 0 1 -1.67-4.29 7.57 7.57 0 0 1 2.37-5.93 9.24 9.24 0 0 1 6.11-2.39h.7a8.13 8.13 0 0 1 2.34.31 6.82 6.82 0 0 1 2.11 1 4.84 4.84 0 0 0 -.86-2.84 4.11 4.11 0 0 0 -2.32-1.62 4.81 4.81 0 0 0 -1.39-.19 7.58 7.58 0 0 0 -1.88.26 10.29 10.29 0 0 0 -3.88 2.21l-2.49-3.9a11.14 11.14 0 0 1 2.39-1.76 11.81 11.81 0 0 1 3.25-1.22 12.06 12.06 0 0 1 2.72-.3m.49 19.62a5.55 5.55 0 0 0 1.47-.21 5.86 5.86 0 0 0 2.62-1.69l-.1-3.8a7.39 7.39 0 0 0 -1.59-.75 7 7 0 0 0 -2.1-.39 4.45 4.45 0 0 0 -3.12 1 3.15 3.15 0 0 0 -1 2.57 2.9 2.9 0 0 0 .78 2 4 4 0 0 0 1.95 1.17 4.32 4.32 0 0 0 1.08.13m-.49-22.62a14.65 14.65 0 0 0 -3.4.38 14.89 14.89 0 0 0 -4.06 1.56 14.47 14.47 0 0 0 -3 2.25l-1.7 1.71 1.3 2 2.12 3.32-.1.09a10.62 10.62 0 0 0 -3.33 8.17 9.21 9.21 0 0 0 2.47 6.29 12.32 12.32 0 0 0 5.09 3.32 13.75 13.75 0 0 0 4.52.76 12.75 12.75 0 0 0 1.38-.07l.58-.07v.45l3.08-.08 8.11-.21 3.05-.07-.13-3.05-.2-5-.13-2.94-2.36.05c0-1.12 0-2.17 0-3.15a30.79 30.79 0 0 0 -.5-5.46 13.55 13.55 0 0 0 -1.91-4.86 11.49 11.49 0 0 0 -4.38-3.8 13.11 13.11 0 0 0 -5.13-1.53c-.44 0-.88-.05-1.31-.05zm-.3 18.94a2.41 2.41 0 0 1 1-.16 5 5 0 0 1 .81.11v.38a1.38 1.38 0 0 1 -.4.17 2.34 2.34 0 0 1 -.65.1 1.55 1.55 0 0 1 -.31 0 1 1 0 0 1 -.5-.29v-.07a.73.73 0 0 1 0-.28z"/></g><path d="m76.74 130.66-2.39.1-.35 30.58-6.66.16-12.96-23.16.11 20 5.4.11v4.37h-14.09v-5.15l3.17.05-.47-26.31-2.81-.1-.05-4.06h8.58l14.3 24.28.11-20.69-4.63.16-.15-4.26 12.89.15z" fill="#fff"/><path d="m122.16 147.09a12.41 12.41 0 0 0 -2.47-3.75 11.52 11.52 0 0 0 -3.69-2.54c-1.42-.63-5.5-2.52-16.5-2.52s-14.45 2.13-15.92 2.8a11.69 11.69 0 0 0 -3.8 2.76 11.53 11.53 0 0 0 -2.39 4.16 12.52 12.52 0 0 0 -.55 5.22 12.31 12.31 0 0 0 1.3 4.42 10.79 10.79 0 0 0 6.37 5.36 12.38 12.38 0 0 0 4.5.57c4.49-.24 8.49-4.24 11.49-4.24s6 4 11.65 4.24a9.05 9.05 0 0 0 4.47-1.09 11 11 0 0 0 3.38-2.58 11.29 11.29 0 0 0 2.19-3.74 14.48 14.48 0 0 0 .83-4.6 10.53 10.53 0 0 0 -.86-4.47zm-28.1 7.15a7.93 7.93 0 0 1 -1.25 2.16 6.23 6.23 0 0 1 -1.81 1.5 4.72 4.72 0 0 1 -2.31.58 6.57 6.57 0 0 1 -4.36-1.48 5.87 5.87 0 0 1 -2-4.27 7.52 7.52 0 0 1 .34-2.83 7.62 7.62 0 0 1 1.3-2.44 7 7 0 0 1 2-1.72 5 5 0 0 1 2.36-.7 5.15 5.15 0 0 1 2.37.57 6.8 6.8 0 0 1 2 1.53 7.85 7.85 0 0 1 1.3 2.16 6.19 6.19 0 0 1 .52 2.47 6.92 6.92 0 0 1 -.46 2.47zm23.14 0a7.93 7.93 0 0 1 -1.2 2.16 6.23 6.23 0 0 1 -1.85 1.5 4.72 4.72 0 0 1 -2.31.58 6.57 6.57 0 0 1 -4.32-1.51 5.87 5.87 0 0 1 -2-4.27 7.52 7.52 0 0 1 .34-2.83 7.62 7.62 0 0 1 1.3-2.44 7 7 0 0 1 2-1.72 5 5 0 0 1 2.36-.7 5.18 5.18 0 0 1 2.37.57 6.93 6.93 0 0 1 2 1.53 7.85 7.85 0 0 1 1.37 2.19 6.19 6.19 0 0 1 .52 2.47 6.92 6.92 0 0 1 -.58 2.47z" fill="#fff"/><path d="m150.42 132.48-10.76 12.84 6.66 12.74 3 .06.42 5.51-6.82.15-7.33-13.88-3.59 4.1-.05 4.52 4.84.05.05 4.58h-13.77l.05-4.68 3.33.05-.31-27.71h-3v-4.21l9.47.06-.21 18.72 10.92-13.21z" fill="#fff"/><path d="m163.27 162.8h-11.86l-.15-4.68 3.53-.16.21-12.06-4.42-.21-.05-4.89 9.82-.26v17.21l2.92.11zm-3.27-28.19a3.45 3.45 0 0 1 -1 2.73 3.53 3.53 0 0 1 -2.68 1.12 4.93 4.93 0 0 1 -2.88-.88 3.07 3.07 0 0 1 -1.28-2.71 4.28 4.28 0 0 1 1-2.83 3.22 3.22 0 0 1 2.62-1.22 4.51 4.51 0 0 1 2.86 1 3.48 3.48 0 0 1 1.36 2.79z" fill="#fff"/><path d="m189.37 151.15a14 14 0 0 1 -.54 4.21 11.06 11.06 0 0 1 -1.93 3.77 10.09 10.09 0 0 1 -3.4 2.76 11.37 11.37 0 0 1 -5.05 1.11 10.77 10.77 0 0 1 -6.6-2l.05 10.71 4.37-.1.15 5.35-13.1-.21.05-4.36 3-.16-.16-27.87h-2.6v-4.36l8.42-.31v3.17a9.06 9.06 0 0 1 2.94-1.43 11 11 0 0 1 3.56-.5 11.57 11.57 0 0 1 7.49 3 10.83 10.83 0 0 1 2.42 3.23 9.52 9.52 0 0 1 .93 3.99zm-6.34.91a5.8 5.8 0 0 0 -1.23-4.13 4.89 4.89 0 0 0 -4-1.77 8 8 0 0 0 -3.1.65 5.18 5.18 0 0 0 -2.42 1.91v5.95a6.21 6.21 0 0 0 2.29 2.09 6.54 6.54 0 0 0 3.23.84 4.89 4.89 0 0 0 3.53-1.57 5.79 5.79 0 0 0 1.67-3.97z" fill="#fff"/><path d="m210.54 153.75-15.35.47a3.13 3.13 0 0 0 .5 1.71 5.44 5.44 0 0 0 1.25 1.38 5.93 5.93 0 0 0 1.69.94 6.93 6.93 0 0 0 1.87.39 7.7 7.7 0 0 0 2.73-.42 5.31 5.31 0 0 0 2.21-1.35l3 3.79a8.34 8.34 0 0 1 -3.59 2.42 12.52 12.52 0 0 1 -4.26.6 12.34 12.34 0 0 1 -4.32-.88 10.65 10.65 0 0 1 -3.64-2.42 10.82 10.82 0 0 1 -2.41-3.93 13.72 13.72 0 0 1 -.71-5.46 11.84 11.84 0 0 1 1.25-4.86 10.74 10.74 0 0 1 2.68-3.35 10.87 10.87 0 0 1 3.46-1.93 11.49 11.49 0 0 1 3.59-.62 11.81 11.81 0 0 1 3.25.54 8.65 8.65 0 0 1 3.43 2 11.19 11.19 0 0 1 2.63 4.14 16.18 16.18 0 0 1 .74 6.84zm-5.46-4.53a4.23 4.23 0 0 0 -1.7-3 4.77 4.77 0 0 0 -3-1 5.5 5.5 0 0 0 -3.14 1.2 4.48 4.48 0 0 0 -1.79 3.17z" fill="#fff"/><path d="m236.59 126.71v4.89l-3.18.2-.36 27.77 2.6-.1v4.94l-8.32.21v-3.49a5.57 5.57 0 0 1 -2.49 1.43 12.35 12.35 0 0 1 -3.12.55 10.87 10.87 0 0 1 -4.06-.68 11.11 11.11 0 0 1 -3.54-2.1 10.5 10.5 0 0 1 -3.53-7.83 12.51 12.51 0 0 1 .7-4.42 11.59 11.59 0 0 1 2.21-3.87 10.88 10.88 0 0 1 3.61-2.73 10.57 10.57 0 0 1 4.92-1 9.11 9.11 0 0 1 2.86.47 6.47 6.47 0 0 1 2.34 1.24v-15.64zm-9.47 21.29a7.07 7.07 0 0 0 -2.44-1.82 5.28 5.28 0 0 0 -2.6-.58 6.21 6.21 0 0 0 -2.52.71 5.87 5.87 0 0 0 -1.85 1.5 7.09 7.09 0 0 0 -1.12 2 5.93 5.93 0 0 0 -.39 2.08 6.72 6.72 0 0 0 1.56 4.61 5.46 5.46 0 0 0 4.21 1.95 5.06 5.06 0 0 0 2.84-.76 7 7 0 0 0 2.26-2.26z" fill="#fff"/><path d="m249.43 162.8h-11.86l-.15-4.68 3.58-.12.16-12.06-4.42-.21-.05-4.89 9.83-.26.05 17.21 2.91.11zm-3.22-28.19a3.58 3.58 0 0 1 -3.64 3.85 4.94 4.94 0 0 1 -2.89-.88 3.07 3.07 0 0 1 -1.27-2.71 4.27 4.27 0 0 1 1-2.83 3.24 3.24 0 0 1 2.63-1.22 4.55 4.55 0 0 1 2.86 1 3.54 3.54 0 0 1 1.31 2.79z" fill="#fff"/><path d="m271.69 163.58-8.12.2v-2a6.28 6.28 0 0 1 -3.87 1.69 10.88 10.88 0 0 1 -4.63-.55 9.3 9.3 0 0 1 -3.87-2.52 6.28 6.28 0 0 1 -1.67-4.29 7.57 7.57 0 0 1 2.37-5.93 9.24 9.24 0 0 1 6.11-2.39 8.84 8.84 0 0 1 3 .29 6.82 6.82 0 0 1 2.11 1 4.84 4.84 0 0 0 -.86-2.84 4.11 4.11 0 0 0 -2.26-1.64 6.09 6.09 0 0 0 -3.27.07 10.29 10.29 0 0 0 -3.88 2.21l-2.49-3.9a11.14 11.14 0 0 1 2.39-1.76 11.81 11.81 0 0 1 3.25-1.22 12.14 12.14 0 0 1 3.79-.26 10.17 10.17 0 0 1 4 1.19 8.38 8.38 0 0 1 3.25 2.79 10.36 10.36 0 0 1 1.48 3.79 27.51 27.51 0 0 1 .45 4.92c0 1.83 0 3.9.07 6.18l2.45-.05zm-8.38-6.19-.1-3.8a7.39 7.39 0 0 0 -1.59-.75 7 7 0 0 0 -2.1-.39 4.45 4.45 0 0 0 -3.12 1 3.15 3.15 0 0 0 -1 2.57 2.9 2.9 0 0 0 .78 2 4 4 0 0 0 1.95 1.17 4.84 4.84 0 0 0 2.55-.08 5.86 5.86 0 0 0 2.63-1.72z" fill="#fff"/><path d="m105 164.86a3.52 3.52 0 0 1 -1.5.14 7.1 7.1 0 0 1 -1.4-.29 6.82 6.82 0 0 1 -1.25-.59 6.48 6.48 0 0 1 -1.14-.79l1.75-.11c-.26.23-.43.35-.64.51s-.42.25-.63.36a7.22 7.22 0 0 1 -1.32.55 7.12 7.12 0 0 1 -1.39.27 5.83 5.83 0 0 1 -1.44 0h-.08v-.1h.07a16.43 16.43 0 0 0 2.34-1.06 11 11 0 0 0 2.08-1.47l.09-.08.1.07a17.15 17.15 0 0 0 4.43 2.54h.07v.09z" fill="#fff"/></g></svg>