<svg height="150" viewBox="0 0 500 150" width="500" xmlns="http://www.w3.org/2000/svg" xmlns:xlink="http://www.w3.org/1999/xlink"><linearGradient gradientUnits="userSpaceOnUse" x1="1050" x2="1050" y1="366.98779" y2="328.08325"><stop offset="0" stop-color="#211713"/><stop offset="1" stop-color="#e30210"/></linearGradient><linearGradient id="a" gradientUnits="userSpaceOnUse" x1="197.14312028" x2="197.14312028" xlink:href="#b" y1="673.50351348652" y2="633.84654708263"/><linearGradient id="b"><stop offset="0" stop-color="#221612"/><stop offset="1" stop-color="#197fcd"/></linearGradient><linearGradient id="c" gradientUnits="userSpaceOnUse" x1="197.14312028" x2="197.14312028" xlink:href="#b" y1="665.06729590679" y2="633.84654708263"/><linearGradient id="d" gradientUnits="userSpaceOnUse" x1="197.14312028" x2="197.14312028" xlink:href="#b" y1="718.66941924932" y2="633.84654708263"/><linearGradient id="e" gradientUnits="userSpaceOnUse" x1="1050" x2="1050" y1="431.47308" y2="342.08325"><stop offset="0" stop-color="#211713"/><stop offset="1" stop-color="#197fcd"/></linearGradient><g stroke="#fff" transform="translate(0 -570)"><g stroke-width="1.27828"><path d="m7.5406086 689.18688c.1623117-.15245.7919583-.73102 1.3991967-1.28572 2.0624407-1.88394 4.0491517-4.10789 6.0507727-6.77327 4.622034-6.15479 8.547155-14.11429 11.826757-23.98274 1.282477-3.859 2.023223-6.44542 6.214247-21.69794.944083-3.43583 1.877832-6.83281 2.07499-7.54883.197157-.71602.340712-1.31341.340712-1.31341s-1.782893-.97319-3.940276-2.14851l-3.922522-2.13695 10.12088-.0184c5.566483-.0101 14.639779-.0101 20.16289 0l10.042018.0184-1.238564 4.66707c-.681212 2.56689-1.276686 4.66677-1.276686 4.66677s-1.029829-1.12789-2.241903-2.50606l-2.203772-2.50574h-7.363651-7.363642l-.07231.27239c-.0398.14982-1.03899 3.9661-2.220483 8.48064-1.181488 4.51452-2.180017 8.29903-2.180017 8.29903s1.673222.0907 8.33753.0901l8.369394-.00085 1.881445-1.45324c1.034797-.79928 1.910521-1.42417 1.910521-1.42417l-3.310315 11.39322c-.704153-1.51677-1.844877-4.37405-1.844877-4.37405l-8.289331.00085-8.289339.00085-.679444 2.08752c-2.668222 8.1978-4.585126 12.63711-7.687499 17.80323-3.425624 5.70442-7.809767 10.79091-12.623722 14.64602-3.526996 2.82451-7.337941 5.09246-11.0432401 6.57201-1.2547937.50105-1.2992267.50916-.9397573.17154z" fill="url(#d)"/><path d="m297.47316 645.11369c-.8969-8.04725-1.64464-14.61744-1.64464-14.61744l-5.54419 21.21037 1.45226 1.13549 1.49339 1.17052-4.69076.0666-4.70768-.0664 1.477-1.17099 1.4646-1.11402 7.05512-27.14369s-.67468-.5578-1.47371-1.17053l-1.45278-1.11407 5.87729-.0186c3.23251-.0102 5.91186.016 5.91186.016s.51791 4.8576 1.10864 10.7524 1.09782 10.77925 1.09782 10.77925 3.08005-4.79172 6.81553-10.72336c3.73547-5.93163 6.86441-10.81401 6.86441-10.81401s2.48996-.0208 5.44446-.0104l5.37183.0188-1.50379 1.14839c-.82708.63162-1.50378 1.1797-1.50378 1.1797s-1.58535 6.11588-3.523 13.55256c-1.93766 7.43668-3.52301 13.53887-3.52301 13.53887l1.44894 1.11697 1.49339 1.17125-6.57429.0719-6.5782-.0656 1.39857-1.10775 1.45262-1.11478 5.5922-20.85879s-4.15059 6.46696-9.19842 14.39613c-5.04783 7.92916-9.22441 14.41666-9.22441 14.41666s-.78037-6.58411-1.67727-14.63135z" fill="url(#a)"/><path d="m177.83804 644.78136c-.75827-7.53088-1.43352-13.96844-1.43352-13.96844s-.44058 1.20363-2.80645 10.27845c-1.51337 5.80492-2.75551 10.57494-2.76029 10.60004-.005.0251.64506.54209 1.44409 1.14886.79903.60676 1.477 1.17105 1.477 1.17105s-1.8109.0679-4.71896.0679c-4.18649 0-4.89935-.0321-4.89935-.0321s1.00595-.66741 1.7819-1.25974l1.41084-1.07697 3.53561-13.5432c1.94457-7.44875 3.51048-13.58897 3.51048-13.58897-1.02455-.81779-1.82744-1.42598-2.9409-2.27867 3.93827-.0116 7.87656-.0313 11.81486-.0186.78324 7.58054 1.34995 13.50844 2.21244 21.55502 0 0 3.09272-4.85412 6.82819-10.78556l6.79177-10.78445 5.39347-.001c2.9664-.00085 5.38982.0531 5.38982.0531s-.65427.54479-1.4495 1.14407c-.79524.59927-1.46234 1.13862-1.48247 1.19854-.0201.0599-1.57571 6.02543-3.45684 13.25667-1.88113 7.23123-3.51399 13.47892-3.51399 13.47892l-.0938.33122 1.47711 1.12101c.8124.61655 1.47709 1.17604 1.47709 1.17604s-2.95823.055-6.57385.055-6.57347-.0545-6.57347-.0545.66213-.55945 1.47094-1.17665l1.47057-1.12216 2.92246-10.93116c1.60736-6.01214 2.89959-10.95405 2.89959-10.95405s-4.29747 6.56381-9.52196 14.61421c-5.22449 8.05039-9.55741 14.67313-9.55741 14.67313s-1.0718-9.84268-1.5255-14.34666z" fill="url(#c)"/><path d="m104.07362 654.36269c-2.13956-.19539-4.147831-1.259-5.546759-2.93765-1.559599-1.87145-3.156742-4.8313-4.623632-8.56862-.509915-1.29914-1.299155-3.51448-1.372404-3.85224-.04765-.21973-.04656-.22059.444841-.35079 1.78923-.47407 4.272353-1.79832 6.013204-3.20685.803339-.64999 1.9257-1.80011 2.37403-2.43274 1.05214-1.48468 1.57082-3.08834 1.49187-4.6126-.0974-1.88099-1.1626-3.08896-3.175829-3.60162-.543661-.13844-.874749-.16143-2.771094-.19235-2.052027-.0334-2.155559-.0288-2.194065.0998-.04436.14802-6.912048 26.4631-6.983286 26.75796-.03839.15902.09601.33002 1.049041 1.33453.601205.63368 1.093104 1.21592 1.093104 1.21592s-2.741765.0638-6.323898.0638c-3.546916 0-6.285009-.0629-6.285009-.0629s.702194-.57389 1.512909-1.19839l1.47401-1.13547 3.515308-13.45657c1.93342-7.40112 3.526174-13.50561 3.539443-13.56554.01547-.0698-.471647-.48487-1.356443-1.15574-.75932-.57573-1.416914-1.09056-1.461321-1.14407-.06737-.0812 1.210288-.0972 7.718727-.0966 8.739923.00085 9.370573.0271 11.576693.48512 2.20514.4578 3.94114 1.29507 5.0922 2.45593 1.45543 1.46785 1.88014 3.47926 1.21748 5.76594-.304 1.04906-.7461 1.82883-1.63779 2.88871-1.79988 2.13938-5.5128 4.43083-8.521772 5.25928-.319613.088-.637576.18046-.706591.20547-.113733.0412-.09914.12362.155963.88082.90451 2.68471 3.27147 7.37861 4.9999 9.91525 1.44607 2.12226 3.02861 3.55993 3.02861 3.55993l.40224.25731 1.44755-1.0884c.79615-.59862 1.46601-1.14697 1.48858-1.21854.0703-.22313 7.00181-26.78086 7.02811-26.92806.0192-.10723-.31549-.39994-1.45328-1.27118l-1.47818-1.13189 10.33386-.0184c5.68363-.0101 10.35081 0 10.35081 0l-1.44755 7.44225s-1.00551-1.69904-2.56182-4.50052l-.35332-.63601-2.97086.0186-2.97085.0186-1.58645 6.06538c-.87255 3.33596-1.58726 6.11986-1.58726 6.11986s1.20993.0545 2.68971.0545h2.69052l1.64968-1.45259c.90732-.79892 1.71192-1.45279 1.71192-1.45279l.029.0906s-.53491 2.02754-1.14804 4.39467-1.15491 4.30216-1.15491 4.30216-.39623-.83486-.83147-1.85316l-.79134-1.85146-2.72414.019-2.72413.019-1.62313 6.21066c-.89271 3.41586-1.6234 6.25152-1.62374 6.30145-.00085.0717.94949.0908 4.50949.0908h4.51011l2.79815-2.14694c1.53898-1.18083 2.82748-2.11762 2.82748-2.11762s-.45164 1.52161-1.03949 3.34549l-1.06883 3.31617h-11.49879c-7.42288 0-11.4988-.0708-11.4988-.0708l-.18302-.001s-2.38289.47664-2.75887.42525c-.04-.005-.36682-.0368-.72639-.0696z" fill="url(#a)"/><path d="m62.850842 654.02363 1.471083-1.17802 1.471092-1.12246 3.518759-13.47431c1.93532-7.41088 3.520605-13.52996 3.522867-13.59798.0021-.068-.432224-.61895-.965506-1.22431-.533281-.60537-.937848-1.13242-.937848-1.13242s2.815595-.0234 6.218061-.0132l6.186304.0186-1.50327 1.14194-1.503262 1.14194-3.544402 13.56751c-1.949419 7.46213-3.545433 13.57613-3.545433 13.57613l2.976479 2.29767s-3.006565.0545-6.682114.0545c-3.675545 0-6.68281-.0556-6.68281-.0556z" fill="url(#a)"/><path d="m139.04941 654.02363s.66685-.55487 1.48188-1.1648c1.11788-.83656 1.49402-1.15738 1.53136-1.30614.0272-.10846 1.61582-6.19367 3.53023-13.5227 1.91441-7.32902 3.48075-13.36143 3.48075-13.40534 0-.0439-.66193-.58496-1.47095-1.20233l-1.47094-1.12252 5.42978-.0186c2.98638-.0102 7.85925-.0102 10.8286 0l5.3988.0186-.27434 1.41647c-1.15106 5.94309-1.17413 6.05223-1.25572 5.94065-.0447-.0611-.70177-1.22585-1.46014-2.58824l-1.37884-2.47708-3.45448-.002-3.45448-.002-.12082.49032c-.0665.26967-.78628 3.03178-1.59963 6.13801l-1.4788 5.6477h2.70222 2.70224l1.64929-1.45278c.90712-.79903 1.71122-1.45279 1.71122-1.45279l-.006.23608s-.54611 2.08293-1.13005 4.3402c-.58395 2.25726-1.11174 4.15971-1.11174 4.15971s-.40744-.77767-.84429-1.79611l-.79428-1.8517-2.72398-.002-2.72397-.002-1.62603 6.22869c-.89432 3.42577-1.66031 6.31948-1.66031 6.31948s1.00062.0908 4.98952.0908h5.02381l2.79809-2.14956c1.53895-1.18226 2.8271-2.12055 2.8271-2.12055l-2.1115 6.59691-23.93317.0145z" fill="url(#a)"/><path d="m211.79759 622.26473.25423.22005s.80154.63562 1.47038 1.14349c1.09736.83328 1.17741 1.10491 1.17741 1.10491s-1.61566 6.21247-3.54301 13.58354l-3.50428 13.40195-1.45037 1.11001c-.79771.61051-1.47449 1.18039-1.47449 1.18039s14.52883.0914 16.44059-.004c6.05999-.30306 10.04433-1.71007 12.67626-4.47668 1.54643-1.62556 2.6091-3.9871 2.61302-5.80632.005-2.24483-1.61251-4.28748-4.45057-5.62102-1.25041-.58754-2.30842-.88441-4.30118-1.20692-.27833-.045-.26345-.0525.35327-.17919 2.92304-.60028 5.72001-2.01388 7.64868-3.86548 1.03766-.99619 1.60742-1.88298 1.92423-2.99495.23373-.82033.23175-2.11598-.004-2.79661-.26724-.77029-.5731-1.23337-1.27133-1.92494-1.42066-1.40713-3.56766-2.2299-7.05239-2.70269-.75329-.10221-2.00124-.12138-9.18886-.14173l-8.3172-.0236zm10.3867 2.32303 1.74376.00086c2.54773.00085 3.4807.13538 4.58933.66113 1.74212.82617 2.28504 2.5077 1.53748 4.76213-.62134 1.87381-2.67333 3.88016-5.79964 5.67068-1.32624.75958-3.34101 1.69-3.65963 1.69-.11675 0-.22952.13027-.16699.1928.0208.0208.4081.0854.86075.14372 3.13194.40316 5.43037 1.28833 6.60294 2.54294 1.05754 1.13155 1.29735 2.48132.78697 4.42986-.94477 3.60703-3.86927 6.19399-7.75452 6.85944-.70756.12119-1.17958.14116-3.33091.14116-1.97535 0-2.47201-.0908-2.47201-.0908s1.61589-6.14619 3.54854-13.54722l3.51393-13.45642z" fill="url(#a)"/><path d="m234.93322 654.01792s.6526-.56015 1.45022-1.16955c.79761-.6094 1.46718-1.16191 1.48792-1.2278.0676-.21471 6.99952-26.77436 7.025-26.91624.0189-.10519-.3234-.40644-1.44437-1.27119l-1.46913-1.13334 3.47935-.0189c1.91364-.0104 5.0752-.0104 7.02569 0l3.54633.0189-1.80886 1.12591c-.99487.61925-1.83586 1.17494-1.86886 1.23486-.0563.10228-6.91343 26.31877-7.0095 26.79913l-.0445.22268h4.13316 4.13315l2.60216-2.14787c1.43118-1.18132 2.62947-2.12055 2.62947-2.12055s-.46313 1.52092-1.06256 3.34642l-1.08989 3.31909h-10.85737c-5.97155 0-10.85737-.0616-10.85737-.0616z" fill="url(#a)"/><path d="m257.96327 654.02497s.65993-.54479 1.46234-1.14407c.80241-.59927 1.48672-1.15496 1.52069-1.23486.0884-.20803 7.03778-26.8683 7.03778-26.9995 0-.06-.65898-.61257-1.46441-1.22793l-1.46442-1.11883 5.16334-.0186c2.83983-.0103 7.49751-.0103 10.35041 0l5.18709.0186-.30428 1.56174c-.16736.85896-.49367 2.53918-.72514 3.73382-.34207 1.76546-.50757 2.05349-.50757 2.05349s-.70465-1.22995-1.4599-2.58829l-1.37318-2.46969-2.9757.0167-2.97569.0167-1.57886 6.02906c-.86839 3.31598-1.58242 6.11986-1.58242 6.11986s.57989.0908 2.68101.0908h2.68456l1.68993-1.48507c.92947-.81679 1.70831-1.46671 1.70831-1.46671l-2.30408 8.83527s-.39397-.83363-.82915-1.85287l-.7912-1.85317-2.72735.019-2.72734.019-1.64176 6.2833-1.64175 6.28329 4.52954.0187 4.52955.0187 2.79879-2.1501c1.53935-1.18256 2.82694-2.12197 2.82694-2.12197l-2.1099 6.59662z" fill="url(#a)"/></g><path d="m1033.5268 269.76573v5.70228q-7.3654.95038-11.167 4.27671-3.5639 3.08873-9.0286 12.83013l-67.71455 140.41864h-6.89025l-14.01811-116.42155-55.35963 116.42155h-6.89026l-18.53241-137.5675q-1.90076-12.59254-4.5143-15.20608-2.37595-2.85114-14.01811-4.7519v-5.70228h65.81382v5.70228q-8.31583.95038-11.40456 3.80152-2.85114 2.61354-2.85114 9.2662 0 .2376.23759 1.66317.2376 1.18797.2376 1.66316l9.02861 83.15825 35.87684-74.12964q-.23759-15.20608-3.32633-19.48279-3.08873-4.5143-13.78051-5.93987v-5.70228h63.91306v5.70228q-9.26621 1.18797-12.11735 3.80152-2.85114 2.37595-2.85114 10.21658 0 3.08874 1.42557 15.44368l7.84064 70.09052 37.06482-77.93116q3.5639-7.36544 3.5639-10.69177 0-6.41507-2.6135-8.07823-2.37597-1.90076-12.35496-2.85114v-5.70228z" fill="url(#e)" stroke-width="3" transform="matrix(.42609333 0 0 .42609333 -22.721038 495.29311)"/><path d="m1022.4139 318.64104q0-1.48898-.4467-2.38237-.2978-.89339-1.489-1.34008-1.0423-.59559-2.0846-.74449-.8933-.2978-3.2757-.59559-2.2335-.4467-3.7225-.74449v-3.57356h44.3716v3.57356q-5.807.59559-8.1894 2.68016-2.2334 2.08457-4.0202 8.04049l-17.1233 62.68606q-2.5312 9.52947-2.5312 13.10302 0 2.97796 2.2334 4.31804 2.2335 1.19119 8.4872 1.48898v3.72245h-44.07378v-3.72245q5.50922-.59559 7.74269-2.68016 2.38239-2.23347 4.16919-8.04049l18.3144-66.8552q1.6379-5.95592 1.6379-8.93388z" fill="url(#e)" stroke-width="3" transform="matrix(.42609333 0 0 .42609333 -22.721038 495.29311)"/><path d="m1076.3384 319.08773q0-1.63788-.4467-2.53126-.2978-.89339-1.489-1.48898-1.0422-.5956-1.9356-.74449-.7445-.2978-3.1269-.74449-2.3824-.4467-3.8713-.74449v-3.57356h46.1583v3.57356q-6.4026.59559-9.2316 2.82906-2.8291 2.23347-4.7648 7.89159l-9.3805 34.09764q23.0791-19.65453 31.8641-28.43951 8.9339-8.78499 8.9339-12.20964 0-3.12686-4.9136-3.72245-1.489 0-3.2758-.44669v-3.57356h31.4175v3.57356q-4.9136.74449-7.1471 1.93567-2.2335 1.04229-6.8493 5.36033l-32.0131 29.4818 23.2281 50.32752q1.1912 2.53127 3.1269 3.72245 2.0845 1.04229 6.2537 1.48898v3.72245h-41.5426v-3.72245q2.978-.29779 4.0203-.29779 1.0423-.1489 2.6801-.59559 1.7868-.4467 2.2335-1.19119.5956-.74449.5956-2.08457 0-1.93567-1.9357-6.25372l-16.8254-36.03331-9.9762 37.0756q-.2978 1.48898-.2978 2.68016 0 3.57356 1.9357 4.91364 1.9356 1.34008 7.8916 1.78677v3.72245h-43.0316v-3.72245q5.5093-.59559 7.7427-2.68016 2.2335-2.08457 4.1692-8.04049l18.3144-66.8552q1.489-8.04049 1.489-8.48719z" fill="url(#e)" stroke-width="3" transform="matrix(.42609333 0 0 .42609333 -22.721038 495.29311)"/><path d="m1176.1658 318.64104q0-1.48898-.4467-2.38237-.2977-.89339-1.4889-1.34008-1.0423-.59559-2.0846-.74449-.8934-.2978-3.2758-.59559-2.2334-.4467-3.7224-.74449v-3.57356h44.3716v3.57356q-5.807.59559-8.1894 2.68016-2.2335 2.08457-4.0202 8.04049l-17.1233 62.68606q-2.5313 9.52947-2.5313 13.10302 0 2.97796 2.2335 4.31804 2.2335 1.19119 8.4872 1.48898v3.72245h-44.0738v-3.72245q5.5092-.59559 7.7427-2.68016 2.3823-2.23347 4.1691-8.04049l18.3145-66.8552q1.6378-5.95592 1.6378-8.93388z" fill="url(#e)" stroke-width="3" transform="matrix(.42609333 0 0 .42609333 -22.721038 495.29311)"/></g></svg>