<svg height="10.716389" viewBox="0 0 75.972732 10.716389" width="75.972733" xmlns="http://www.w3.org/2000/svg" xmlns:xlink="http://www.w3.org/1999/xlink"><linearGradient id="a" gradientUnits="userSpaceOnUse" spreadMethod="pad" x1="46.258537" x2="45.93013" y1="13.960081" y2="44.862202"><stop offset="0" stop-color="#fff"/><stop offset="1" stop-color="#1608bc"/></linearGradient><g fill="url(#a)" stroke-width=".419671" transform="translate(-6.013632 -10.335853)"><path d="m9.4115597 17.723122q.125901-1.175076.489615-2.294196.3637143-1.133109.9512523-2.154306.09792-.181857.27978-.293769.181857-.125901.391692-.125901h4.630359l.755406-2.504031h-6.183138q-.433659 0-.8533293.13989-.41967.13989-.797373.377703-.377703.237813-.685461.55956-.2937691.321747-.4896151.685461-.643494 1.231032-1.105131 2.545998-.461637 1.300977-.713439 2.685888-.097923.531582-.055956 1.133109.041967.601528.251802 1.119121.209835.517593.615516.881307.41967.363714 1.077153.433659 2.8257784.321747 5.6095894-.09792h.629505l1.524801-4.756261h-3.119547l-.783384 2.37813q-.489615 0-.97923.01399-.489615.01399-.9652413-.05596-.209835-.02798-.363714-.251802-.13989-.223824-.111912-.41967z"/><path d="m22.980874 20.814692h2.93769l-1.063164-3.245449q.531582-.27978.965241-.727428.447648-.461637.769395-.965241.461637-.69945.685461-1.496823.237813-.797373.237813-1.622724 0-.601527-.265791-1.049175-.265791-.447648-.685461-.741417-.41967-.293769-.951252-.433659-.531582-.13989-1.063164-.13989h-5.273853l-3.147525 10.421806h3.021624l.895296-2.965669h1.930482zm-2.294196-5.105986 1.035186-3.427305h1.930482q.195846 0 .349725.09792.167868.08393.27978.237813.111912.13989.167868.321747.06994.181857.06994.349725 0 .489615-.181857.923274-.167868.433659-.489615.783384-.125901.13989-.251802.27978-.111912.125901-.293769.223824-.167868.09792-.433659.153879-.251802.05596-.643494.05596z"/><path d="m26.981705 20.814692h3.161514l3.147525-10.421806h-3.119547z"/><path d="m40.788841 14.967289q-1.217043 0-1.930482 0-.713439 0-1.11912 0-.391692 0-.573549.01399-.181857 0-.321747.01399l.587538-2.140317h3.986865l.825351-2.476053h-4.154733v-.02798h-.01399q-1.217043-.01399-2.056383.223824-.825351.237813-1.426878.713439-.601527.461637-1.063164 1.147098-.447648.685461-.909285 1.566768-.04197.08393.04197.125901.08393.02798.153879-.01399.04197 0 .06994-.04197.237813-.27978.55956-.489615.335736-.223824.755406-.377703l-2.252229 7.610017h3.161514l1.147098-3.846976h3.930909z"/><path d="m44.174177 20.814692 1.342944-4.392547 1.846548 4.392547h2.993646l-2.727855-5.679535 5.427732-4.784238h-2.93769l-3.860964 3.609162 1.105131-3.609162h-3.07758l-3.189493 10.463773z"/><path d="m53.826569 10.350919-2.434086 7.931763q-.111912.629506 0 1.077154.111912.433659.377703.741417.27978.293769.671472.475626.405681.167868.867318.251802.461637.09792.965241.111912.503604.02798.979231.02798.643494 0 1.426878-.04197.797373-.04197 1.566768-.237813.783384-.209835 1.454856-.629505.685461-.433659 1.105131-1.203055l2.587965-8.519301h-3.147525q-.04197 0-.05596.01399l-2.266218 7.456137q-.153879.307758-.363714.503604-.209835.195846-.475626.321747-.265791.111912-.55956.167868-.293769.05596-.615516.08393-.307758-.04197-.601527-.111912-.279781-.06994-.489616-.195846-.195846-.13989-.293769-.335736-.08393-.195846.01399-.475626l2.25223-7.41417z"/><path d="m70.655308 10.350919-2.7978-.01399q-1.217043-.01399-2.014416.153879-.797373.153879-1.356933.531582-.55956.363714-.993219.97923-.41967.601527-.881307 1.482834-.02798.09792.06995.125901.111912.02798.181857-.06994.265791-.321747.671472-.55956.405681-.237813.937263-.391692l-2.532009 8.225533h5.469699q.755406 0 1.300977-.05596.545571-.06995.909285-.181857.867318-.27978 1.496823-.937263.629505-.657483.909285-1.594747.573549-1.748625-.867318-2.434086.391692-.13989.769395-.391692.377703-.265791.685461-.587538.321747-.335736.55956-.713439.237813-.391692.363714-.797373.237813-.755406.02798-1.370922-.195846-.629505-.69945-1.007208-.125901-.09792-.363714-.153879-.223824-.06995-.531582-.111912-.293769-.04197-.643494-.05596-.335736-.02798-.685461-.04197zm-5.064018 8.603236.727428-2.420098h1.594746q.489615 0 .713439.05596.237813.04197.41967.167868.405681.293769.195846.923274-.08393.293769-.307758.573549-.223824.265791-.517593.447648-.125901.06994-.251802.125901-.125901.04197-.265791.06995-.13989.02798-.335736.04197-.181857.01399-.433659.01399zm1.300977-4.280635.713439-2.336163h2.448075v-.01399q.13989.02798.27978.153879.405681.293769.209835.923274-.09792.293769-.321747.573549-.223824.265791-.517593.447648-.251802.153879-.503604.209835-.251802.04197-.755406.04197z"/><path d="m79.090643 18.604429v2.210263h2.895723v-10.435795h-3.021624q-.09792 0-.349725.04197-.251802.04197-.601527.237813-.349725.195846-.769395.601527-.405681.391692-.83934 1.105131l-5.064018 8.449357h3.287415l1.25901-2.210263zm-2.140317-1.888515 2.196273-3.930909v3.930909z"/></g></svg>