<svg viewBox="0 0 65.88 68.89" xmlns="http://www.w3.org/2000/svg"><g fill="#fff"><path d="m52.17 10.45c-.25-.21-.53-.4-.8-.58l-3.47-2.48c-.26-.2-.53-.4-.81-.57-.88-.54-2.14-.77-2.91-.08-.42.38-.61.97-.49 1.52.11.54.54 1.01 1.07 1.17.41.13.95.03 1.1-.37.09-.23.03-.5.05-.75 0-.24.15-.54.41-.53.66-.04 1.32.35 1.62.95.25.52.2 1.16-.1 1.65.15.03.3.09.43.19.13.08.23.2.32.33.36-.44.95-.69 1.52-.62.66.08 1.25.59 1.42 1.23.09.23-.14.47-.37.56-.24.09-.51.11-.69.27-.34.28-.25.83 0 1.17.33.45.91.7 1.45.63.56-.06 1.06-.44 1.28-.95.4-.97-.22-2.07-1.02-2.74zm0 0c-.25-.21-.53-.4-.8-.58l-3.47-2.48c-.26-.2-.53-.4-.81-.57-.88-.54-2.14-.77-2.91-.08-.42.38-.61.97-.49 1.52.11.54.54 1.01 1.07 1.17.41.13.95.03 1.1-.37.09-.23.03-.5.05-.75 0-.24.15-.54.41-.53.66-.04 1.32.35 1.62.95.25.52.2 1.16-.1 1.65.15.03.3.09.43.19.13.08.23.2.32.33.36-.44.95-.69 1.52-.62.66.08 1.25.59 1.42 1.23.09.23-.14.47-.37.56-.24.09-.51.11-.69.27-.34.28-.25.83 0 1.17.33.45.91.7 1.45.63.56-.06 1.06-.44 1.28-.95.4-.97-.22-2.07-1.02-2.74zm0 0c-.25-.21-.53-.4-.8-.58l-3.47-2.48c-.26-.2-.53-.4-.81-.57-.88-.54-2.14-.77-2.91-.08-.42.38-.61.97-.49 1.52.11.54.54 1.01 1.07 1.17.41.13.95.03 1.1-.37.09-.23.03-.5.05-.75 0-.24.15-.54.41-.53.66-.04 1.32.35 1.62.95.25.52.2 1.16-.1 1.65.15.03.3.09.43.19.13.08.23.2.32.33.36-.44.95-.69 1.52-.62.66.08 1.25.59 1.42 1.23.09.23-.14.47-.37.56-.24.09-.51.11-.69.27-.34.28-.25.83 0 1.17.33.45.91.7 1.45.63.56-.06 1.06-.44 1.28-.95.4-.97-.22-2.07-1.02-2.74zm0 0c-.25-.21-.53-.4-.8-.58l-3.47-2.48c-.26-.2-.53-.4-.81-.57-.88-.54-2.14-.77-2.91-.08-.42.38-.61.97-.49 1.52.11.54.54 1.01 1.07 1.17.41.13.95.03 1.1-.37.09-.23.03-.5.05-.75 0-.24.15-.54.41-.53.66-.04 1.32.35 1.62.95.25.52.2 1.16-.1 1.65.15.03.3.09.43.19.13.08.23.2.32.33.36-.44.95-.69 1.52-.62.66.08 1.25.59 1.42 1.23.09.23-.14.47-.37.56-.24.09-.51.11-.69.27-.34.28-.25.83 0 1.17.33.45.91.7 1.45.63.56-.06 1.06-.44 1.28-.95.4-.97-.22-2.07-1.02-2.74zm0 0c-.25-.21-.53-.4-.8-.58l-3.47-2.48c-.26-.2-.53-.4-.81-.57-.88-.54-2.14-.77-2.91-.08-.42.38-.61.97-.49 1.52.11.54.54 1.01 1.07 1.17.41.13.95.03 1.1-.37.09-.23.03-.5.05-.75 0-.24.15-.54.41-.53.66-.04 1.32.35 1.62.95.25.52.2 1.16-.1 1.65.15.03.3.09.43.19.13.08.23.2.32.33.36-.44.95-.69 1.52-.62.66.08 1.25.59 1.42 1.23.09.23-.14.47-.37.56-.24.09-.51.11-.69.27-.34.28-.25.83 0 1.17.33.45.91.7 1.45.63.56-.06 1.06-.44 1.28-.95.4-.97-.22-2.07-1.02-2.74zm0 0c-.25-.21-.53-.4-.8-.58l-3.47-2.48c-.26-.2-.53-.4-.81-.57-.88-.54-2.14-.77-2.91-.08-.42.38-.61.97-.49 1.52.11.54.54 1.01 1.07 1.17.41.13.95.03 1.1-.37.09-.23.03-.5.05-.75 0-.24.15-.54.41-.53.66-.04 1.32.35 1.62.95.25.52.2 1.16-.1 1.65.15.03.3.09.43.19.13.08.23.2.32.33.36-.44.95-.69 1.52-.62.66.08 1.25.59 1.42 1.23.09.23-.14.47-.37.56-.24.09-.51.11-.69.27-.34.28-.25.83 0 1.17.33.45.91.7 1.45.63.56-.06 1.06-.44 1.28-.95.4-.97-.22-2.07-1.02-2.74zm0 0c-.25-.21-.53-.4-.8-.58l-3.47-2.48c-.26-.2-.53-.4-.81-.57-.88-.54-2.14-.77-2.91-.08-.42.38-.61.97-.49 1.52.11.54.54 1.01 1.07 1.17.41.13.95.03 1.1-.37.09-.23.03-.5.05-.75 0-.24.15-.54.41-.53.66-.04 1.32.35 1.62.95.25.52.2 1.16-.1 1.65.15.03.3.09.43.19.13.08.23.2.32.33.36-.44.95-.69 1.52-.62.66.08 1.25.59 1.42 1.23.09.23-.14.47-.37.56-.24.09-.51.11-.69.27-.34.28-.25.83 0 1.17.33.45.91.7 1.45.63.56-.06 1.06-.44 1.28-.95.4-.97-.22-2.07-1.02-2.74zm0 0c-.25-.21-.53-.4-.8-.58l-3.47-2.48c-.26-.2-.53-.4-.81-.57-.88-.54-2.14-.77-2.91-.08-.42.38-.61.97-.49 1.52.11.54.54 1.01 1.07 1.17.41.13.95.03 1.1-.37.09-.23.03-.5.05-.75 0-.24.15-.54.41-.53.66-.04 1.32.35 1.62.95.25.52.2 1.16-.1 1.65.15.03.3.09.43.19.13.08.23.2.32.33.36-.44.95-.69 1.52-.62.66.08 1.25.59 1.42 1.23.09.23-.14.47-.37.56-.24.09-.51.11-.69.27-.34.28-.25.83 0 1.17.33.45.91.7 1.45.63.56-.06 1.06-.44 1.28-.95.4-.97-.22-2.07-1.02-2.74zm0 0c-.25-.21-.53-.4-.8-.58l-3.47-2.48c-.26-.2-.53-.4-.81-.57-.88-.54-2.14-.77-2.91-.08-.42.38-.61.97-.49 1.52.11.54.54 1.01 1.07 1.17.41.13.95.03 1.1-.37.09-.23.03-.5.05-.75 0-.24.15-.54.41-.53.66-.04 1.32.35 1.62.95.25.52.2 1.16-.1 1.65.15.03.3.09.43.19.13.08.23.2.32.33.36-.44.95-.69 1.52-.62.66.08 1.25.59 1.42 1.23.09.23-.14.47-.37.56-.24.09-.51.11-.69.27-.34.28-.25.83 0 1.17.33.45.91.7 1.45.63.56-.06 1.06-.44 1.28-.95.4-.97-.22-2.07-1.02-2.74zm0 0c-.25-.21-.53-.4-.8-.58l-3.47-2.48c-.26-.2-.53-.4-.81-.57-.88-.54-2.14-.77-2.91-.08-.42.38-.61.97-.49 1.52.11.54.54 1.01 1.07 1.17.41.13.95.03 1.1-.37.09-.23.03-.5.05-.75 0-.24.15-.54.41-.53.66-.04 1.32.35 1.62.95.25.52.2 1.16-.1 1.65.15.03.3.09.43.19.13.08.23.2.32.33.36-.44.95-.69 1.52-.62.66.08 1.25.59 1.42 1.23.09.23-.14.47-.37.56-.24.09-.51.11-.69.27-.34.28-.25.83 0 1.17.33.45.91.7 1.45.63.56-.06 1.06-.44 1.28-.95.4-.97-.22-2.07-1.02-2.74zm0 0c-.25-.21-.53-.4-.8-.58l-3.47-2.48c-.26-.2-.53-.4-.81-.57-.88-.54-2.14-.77-2.91-.08-.42.38-.61.97-.49 1.52.11.54.54 1.01 1.07 1.17.41.13.95.03 1.1-.37.09-.23.03-.5.05-.75 0-.24.15-.54.41-.53.66-.04 1.32.35 1.62.95.25.52.2 1.16-.1 1.65.15.03.3.09.43.19.13.08.23.2.32.33.36-.44.95-.69 1.52-.62.66.08 1.25.59 1.42 1.23.09.23-.14.47-.37.56-.24.09-.51.11-.69.27-.34.28-.25.83 0 1.17.33.45.91.7 1.45.63.56-.06 1.06-.44 1.28-.95.4-.97-.22-2.07-1.02-2.74zm0 0c-.25-.21-.53-.4-.8-.58l-3.47-2.48c-.26-.2-.53-.4-.81-.57-.88-.54-2.14-.77-2.91-.08-.42.38-.61.97-.49 1.52.11.54.54 1.01 1.07 1.17.41.13.95.03 1.1-.37.09-.23.03-.5.05-.75 0-.24.15-.54.41-.53.66-.04 1.32.35 1.62.95.25.52.2 1.16-.1 1.65.15.03.3.09.43.19.13.08.23.2.32.33.36-.44.95-.69 1.52-.62.66.08 1.25.59 1.42 1.23.09.23-.14.47-.37.56-.24.09-.51.11-.69.27-.34.28-.25.83 0 1.17.33.45.91.7 1.45.63.56-.06 1.06-.44 1.28-.95.4-.97-.22-2.07-1.02-2.74zm0 0c-.25-.21-.53-.4-.8-.58l-3.47-2.48c-.26-.2-.53-.4-.81-.57-.88-.54-2.14-.77-2.91-.08-.42.38-.61.97-.49 1.52.11.54.54 1.01 1.07 1.17.41.13.95.03 1.1-.37.09-.23.03-.5.05-.75 0-.24.15-.54.41-.53.66-.04 1.32.35 1.62.95.25.52.2 1.16-.1 1.65.15.03.3.09.43.19.13.08.23.2.32.33.36-.44.95-.69 1.52-.62.66.08 1.25.59 1.42 1.23.09.23-.14.47-.37.56-.24.09-.51.11-.69.27-.34.28-.25.83 0 1.17.33.45.91.7 1.45.63.56-.06 1.06-.44 1.28-.95.4-.97-.22-2.07-1.02-2.74zm0 0c-.25-.21-.53-.4-.8-.58l-3.47-2.48c-.26-.2-.53-.4-.81-.57-.88-.54-2.14-.77-2.91-.08-.42.38-.61.97-.49 1.52.11.54.54 1.01 1.07 1.17.41.13.95.03 1.1-.37.09-.23.03-.5.05-.75 0-.24.15-.54.41-.53.66-.04 1.32.35 1.62.95.25.52.2 1.16-.1 1.65.15.03.3.09.43.19.13.08.23.2.32.33.36-.44.95-.69 1.52-.62.66.08 1.25.59 1.42 1.23.09.23-.14.47-.37.56-.24.09-.51.11-.69.27-.34.28-.25.83 0 1.17.33.45.91.7 1.45.63.56-.06 1.06-.44 1.28-.95.4-.97-.22-2.07-1.02-2.74zm0 0c-.25-.21-.53-.4-.8-.58l-3.47-2.48c-.26-.2-.53-.4-.81-.57-.88-.54-2.14-.77-2.91-.08-.42.38-.61.97-.49 1.52.11.54.54 1.01 1.07 1.17.41.13.95.03 1.1-.37.09-.23.03-.5.05-.75 0-.24.15-.54.41-.53.66-.04 1.32.35 1.62.95.25.52.2 1.16-.1 1.65.15.03.3.09.43.19.13.08.23.2.32.33.36-.44.95-.69 1.52-.62.66.08 1.25.59 1.42 1.23.09.23-.14.47-.37.56-.24.09-.51.11-.69.27-.34.28-.25.83 0 1.17.33.45.91.7 1.45.63.56-.06 1.06-.44 1.28-.95.4-.97-.22-2.07-1.02-2.74zm0 0c-.25-.21-.53-.4-.8-.58l-3.47-2.48c-.26-.2-.53-.4-.81-.57-.88-.54-2.14-.77-2.91-.08-.42.38-.61.97-.49 1.52.11.54.54 1.01 1.07 1.17.41.13.95.03 1.1-.37.09-.23.03-.5.05-.75 0-.24.15-.54.41-.53.66-.04 1.32.35 1.62.95.25.52.2 1.16-.1 1.65.15.03.3.09.43.19.13.08.23.2.32.33.36-.44.95-.69 1.52-.62.66.08 1.25.59 1.42 1.23.09.23-.14.47-.37.56-.24.09-.51.11-.69.27-.34.28-.25.83 0 1.17.33.45.91.7 1.45.63.56-.06 1.06-.44 1.28-.95.4-.97-.22-2.07-1.02-2.74zm0 0c-.25-.21-.53-.4-.8-.58l-3.47-2.48c-.26-.2-.53-.4-.81-.57-.88-.54-2.14-.77-2.91-.08-.42.38-.61.97-.49 1.52.11.54.54 1.01 1.07 1.17.41.13.95.03 1.1-.37.09-.23.03-.5.05-.75 0-.24.15-.54.41-.53.66-.04 1.32.35 1.62.95.25.52.2 1.16-.1 1.65.15.03.3.09.43.19.13.08.23.2.32.33.36-.44.95-.69 1.52-.62.66.08 1.25.59 1.42 1.23.09.23-.14.47-.37.56-.24.09-.51.11-.69.27-.34.28-.25.83 0 1.17.33.45.91.7 1.45.63.56-.06 1.06-.44 1.28-.95.4-.97-.22-2.07-1.02-2.74zm0 0c-.25-.21-.53-.4-.8-.58l-3.47-2.48c-.26-.2-.53-.4-.81-.57-.88-.54-2.14-.77-2.91-.08-.42.38-.61.97-.49 1.52.11.54.54 1.01 1.07 1.17.41.13.95.03 1.1-.37.09-.23.03-.5.05-.75 0-.24.15-.54.41-.53.66-.04 1.32.35 1.62.95.25.52.2 1.16-.1 1.65.15.03.3.09.43.19.13.08.23.2.32.33.36-.44.95-.69 1.52-.62.66.08 1.25.59 1.42 1.23.09.23-.14.47-.37.56-.24.09-.51.11-.69.27-.34.28-.25.83 0 1.17.33.45.91.7 1.45.63.56-.06 1.06-.44 1.28-.95.4-.97-.22-2.07-1.02-2.74zm0 0c-.25-.21-.53-.4-.8-.58l-3.47-2.48c-.26-.2-.53-.4-.81-.57-.88-.54-2.14-.77-2.91-.08-.42.38-.61.97-.49 1.52.11.54.54 1.01 1.07 1.17.41.13.95.03 1.1-.37.09-.23.03-.5.05-.75 0-.24.15-.54.41-.53.66-.04 1.32.35 1.62.95.25.52.2 1.16-.1 1.65.15.03.3.09.43.19.13.08.23.2.32.33.36-.44.95-.69 1.52-.62.66.08 1.25.59 1.42 1.23.09.23-.14.47-.37.56-.24.09-.51.11-.69.27-.34.28-.25.83 0 1.17.33.45.91.7 1.45.63.56-.06 1.06-.44 1.28-.95.4-.97-.22-2.07-1.02-2.74zm0 0c-.25-.21-.53-.4-.8-.58l-3.47-2.48c-.26-.2-.53-.4-.81-.57-.88-.54-2.14-.77-2.91-.08-.42.38-.61.97-.49 1.52.11.54.54 1.01 1.07 1.17.41.13.95.03 1.1-.37.09-.23.03-.5.05-.75 0-.24.15-.54.41-.53.66-.04 1.32.35 1.62.95.25.52.2 1.16-.1 1.65.15.03.3.09.43.19.13.08.23.2.32.33.36-.44.95-.69 1.52-.62.66.08 1.25.59 1.42 1.23.09.23-.14.47-.37.56-.24.09-.51.11-.69.27-.34.28-.25.83 0 1.17.33.45.91.7 1.45.63.56-.06 1.06-.44 1.28-.95.4-.97-.22-2.07-1.02-2.74zm-19.3-7.34v4.16h-24.25c.47 1.25.79 2.64.9 4.17h23.36v4.16h-23.34v4.17h23.33v4.16h-23.33v4.17h23.33v4.15h23.33v-19.81c0-3.93 1.52-7.06 3.25-9.33h-26.57zm22.12 10.03c-.53 1.35-1.93 2.29-3.39 2.26-1.43-.02-2.81-1.03-3.29-2.4-.03-.11-.07-.22-.1-.36l-.57.81.31.22c.24.17.29.5.12.74-.16.23-.5.3-.73.12l-.32-.23-1.72 2.4.33.23c.23.17.3.51.12.74s-.5.29-.74.12l-.33-.22-2.52 3.53.33.23c.23.16.3.49.12.73-.17.24-.51.29-.74.12l-.1-.07c.14.1.17.29.07.44-.1.14-.3.17-.44.07l-.22-.15-.54.75.02.02.18-.25 4.56 3.26-1.58 2.21-.91-.65.96-1.34-1.33-.95-.32.43.9.64-.64.91-1.9-1.35.96-1.34-.37-.26-2.24 3.12.36.25.95-1.33 1.9 1.35-.64.91-.9-.64-.32.44 1.34.96.95-1.33.91.64-1.57 2.2-.8-.57-.1-.07-3.65-2.61-.41.57c.23.22.28.59.08.87-.18.25-.45.41-.73.46-.29.05-.6-.01-.85-.19l-1.03-.74c-.51-.36-.63-1.07-.26-1.58.2-.27.57-.37.85-.2l4.24-5.93-.21-.16c-.14-.09-.18-.3-.07-.44.1-.14.3-.17.44-.06l-.11-.08c-.23-.17-.3-.51-.11-.74.16-.24.5-.29.73-.12l.33.22 2.52-3.53-.33-.22c-.23-.17-.28-.51-.12-.74.17-.24.51-.3.74-.12l.33.22 1.71-2.39-.33-.24c-.23-.16-.29-.5-.12-.74.16-.22.5-.28.74-.12l.33.24.58-.81c-.12.01-.25.02-.38.02-1.44 0-2.84-.98-3.33-2.34-.5-1.35-.06-2.99 1.04-3.93s3.04-.91 4.3-.2l5.86 4.2c1.08.96 1.75 2.8 1.21 4.13zm-2.82-2.7c-.25-.21-.53-.4-.8-.58l-3.47-2.48c-.26-.2-.53-.4-.81-.57-.88-.54-2.14-.77-2.91-.08-.42.38-.61.97-.49 1.52.11.54.54 1.01 1.07 1.17.41.13.95.03 1.1-.37.09-.23.03-.5.05-.75 0-.24.15-.54.41-.53.66-.04 1.32.35 1.62.95.25.52.2 1.16-.1 1.65.15.03.3.09.43.19.13.08.23.2.32.33.36-.44.95-.69 1.52-.62.66.08 1.25.59 1.42 1.23.09.23-.14.47-.37.56-.24.09-.51.11-.69.27-.34.28-.25.83 0 1.17.33.45.91.7 1.45.63.56-.06 1.06-.44 1.28-.95.4-.97-.22-2.07-1.02-2.74zm0 0c-.25-.21-.53-.4-.8-.58l-3.47-2.48c-.26-.2-.53-.4-.81-.57-.88-.54-2.14-.77-2.91-.08-.42.38-.61.97-.49 1.52.11.54.54 1.01 1.07 1.17.41.13.95.03 1.1-.37.09-.23.03-.5.05-.75 0-.24.15-.54.41-.53.66-.04 1.32.35 1.62.95.25.52.2 1.16-.1 1.65.15.03.3.09.43.19.13.08.23.2.32.33.36-.44.95-.69 1.52-.62.66.08 1.25.59 1.42 1.23.09.23-.14.47-.37.56-.24.09-.51.11-.69.27-.34.28-.25.83 0 1.17.33.45.91.7 1.45.63.56-.06 1.06-.44 1.28-.95.4-.97-.22-2.07-1.02-2.74zm0 0c-.25-.21-.53-.4-.8-.58l-3.47-2.48c-.26-.2-.53-.4-.81-.57-.88-.54-2.14-.77-2.91-.08-.42.38-.61.97-.49 1.52.11.54.54 1.01 1.07 1.17.41.13.95.03 1.1-.37.09-.23.03-.5.05-.75 0-.24.15-.54.41-.53.66-.04 1.32.35 1.62.95.25.52.2 1.16-.1 1.65.15.03.3.09.43.19.13.08.23.2.32.33.36-.44.95-.69 1.52-.62.66.08 1.25.59 1.42 1.23.09.23-.14.47-.37.56-.24.09-.51.11-.69.27-.34.28-.25.83 0 1.17.33.45.91.7 1.45.63.56-.06 1.06-.44 1.28-.95.4-.97-.22-2.07-1.02-2.74zm0 0c-.25-.21-.53-.4-.8-.58l-3.47-2.48c-.26-.2-.53-.4-.81-.57-.88-.54-2.14-.77-2.91-.08-.42.38-.61.97-.49 1.52.11.54.54 1.01 1.07 1.17.41.13.95.03 1.1-.37.09-.23.03-.5.05-.75 0-.24.15-.54.41-.53.66-.04 1.32.35 1.62.95.25.52.2 1.16-.1 1.65.15.03.3.09.43.19.13.08.23.2.32.33.36-.44.95-.69 1.52-.62.66.08 1.25.59 1.42 1.23.09.23-.14.47-.37.56-.24.09-.51.11-.69.27-.34.28-.25.83 0 1.17.33.45.91.7 1.45.63.56-.06 1.06-.44 1.28-.95.4-.97-.22-2.07-1.02-2.74zm0 0c-.25-.21-.53-.4-.8-.58l-3.47-2.48c-.26-.2-.53-.4-.81-.57-.88-.54-2.14-.77-2.91-.08-.42.38-.61.97-.49 1.52.11.54.54 1.01 1.07 1.17.41.13.95.03 1.1-.37.09-.23.03-.5.05-.75 0-.24.15-.54.41-.53.66-.04 1.32.35 1.62.95.25.52.2 1.16-.1 1.65.15.03.3.09.43.19.13.08.23.2.32.33.36-.44.95-.69 1.52-.62.66.08 1.25.59 1.42 1.23.09.23-.14.47-.37.56-.24.09-.51.11-.69.27-.34.28-.25.83 0 1.17.33.45.91.7 1.45.63.56-.06 1.06-.44 1.28-.95.4-.97-.22-2.07-1.02-2.74zm0 0c-.25-.21-.53-.4-.8-.58l-3.47-2.48c-.26-.2-.53-.4-.81-.57-.88-.54-2.14-.77-2.91-.08-.42.38-.61.97-.49 1.52.11.54.54 1.01 1.07 1.17.41.13.95.03 1.1-.37.09-.23.03-.5.05-.75 0-.24.15-.54.41-.53.66-.04 1.32.35 1.62.95.25.52.2 1.16-.1 1.65.15.03.3.09.43.19.13.08.23.2.32.33.36-.44.95-.69 1.52-.62.66.08 1.25.59 1.42 1.23.09.23-.14.47-.37.56-.24.09-.51.11-.69.27-.34.28-.25.83 0 1.17.33.45.91.7 1.45.63.56-.06 1.06-.44 1.28-.95.4-.97-.22-2.07-1.02-2.74zm0 0c-.25-.21-.53-.4-.8-.58l-3.47-2.48c-.26-.2-.53-.4-.81-.57-.88-.54-2.14-.77-2.91-.08-.42.38-.61.97-.49 1.52.11.54.54 1.01 1.07 1.17.41.13.95.03 1.1-.37.09-.23.03-.5.05-.75 0-.24.15-.54.41-.53.66-.04 1.32.35 1.62.95.25.52.2 1.16-.1 1.65.15.03.3.09.43.19.13.08.23.2.32.33.36-.44.95-.69 1.52-.62.66.08 1.25.59 1.42 1.23.09.23-.14.47-.37.56-.24.09-.51.11-.69.27-.34.28-.25.83 0 1.17.33.45.91.7 1.45.63.56-.06 1.06-.44 1.28-.95.4-.97-.22-2.07-1.02-2.74zm0 0c-.25-.21-.53-.4-.8-.58l-3.47-2.48c-.26-.2-.53-.4-.81-.57-.88-.54-2.14-.77-2.91-.08-.42.38-.61.97-.49 1.52.11.54.54 1.01 1.07 1.17.41.13.95.03 1.1-.37.09-.23.03-.5.05-.75 0-.24.15-.54.41-.53.66-.04 1.32.35 1.62.95.25.52.2 1.16-.1 1.65.15.03.3.09.43.19.13.08.23.2.32.33.36-.44.95-.69 1.52-.62.66.08 1.25.59 1.42 1.23.09.23-.14.47-.37.56-.24.09-.51.11-.69.27-.34.28-.25.83 0 1.17.33.45.91.7 1.45.63.56-.06 1.06-.44 1.28-.95.4-.97-.22-2.07-1.02-2.74zm0 0c-.25-.21-.53-.4-.8-.58l-3.47-2.48c-.26-.2-.53-.4-.81-.57-.88-.54-2.14-.77-2.91-.08-.42.38-.61.97-.49 1.52.11.54.54 1.01 1.07 1.17.41.13.95.03 1.1-.37.09-.23.03-.5.05-.75 0-.24.15-.54.41-.53.66-.04 1.32.35 1.62.95.25.52.2 1.16-.1 1.65.15.03.3.09.43.19.13.08.23.2.32.33.36-.44.95-.69 1.52-.62.66.08 1.25.59 1.42 1.23.09.23-.14.47-.37.56-.24.09-.51.11-.69.27-.34.28-.25.83 0 1.17.33.45.91.7 1.45.63.56-.06 1.06-.44 1.28-.95.4-.97-.22-2.07-1.02-2.74zm0 0c-.25-.21-.53-.4-.8-.58l-3.47-2.48c-.26-.2-.53-.4-.81-.57-.88-.54-2.14-.77-2.91-.08-.42.38-.61.97-.49 1.52.11.54.54 1.01 1.07 1.17.41.13.95.03 1.1-.37.09-.23.03-.5.05-.75 0-.24.15-.54.41-.53.66-.04 1.32.35 1.62.95.25.52.2 1.16-.1 1.65.15.03.3.09.43.19.13.08.23.2.32.33.36-.44.95-.69 1.52-.62.66.08 1.25.59 1.42 1.23.09.23-.14.47-.37.56-.24.09-.51.11-.69.27-.34.28-.25.83 0 1.17.33.45.91.7 1.45.63.56-.06 1.06-.44 1.28-.95.4-.97-.22-2.07-1.02-2.74zm0 0c-.25-.21-.53-.4-.8-.58l-3.47-2.48c-.26-.2-.53-.4-.81-.57-.88-.54-2.14-.77-2.91-.08-.42.38-.61.97-.49 1.52.11.54.54 1.01 1.07 1.17.41.13.95.03 1.1-.37.09-.23.03-.5.05-.75 0-.24.15-.54.41-.53.66-.04 1.32.35 1.62.95.25.52.2 1.16-.1 1.65.15.03.3.09.43.19.13.08.23.2.32.33.36-.44.95-.69 1.52-.62.66.08 1.25.59 1.42 1.23.09.23-.14.47-.37.56-.24.09-.51.11-.69.27-.34.28-.25.83 0 1.17.33.45.91.7 1.45.63.56-.06 1.06-.44 1.28-.95.4-.97-.22-2.07-1.02-2.74zm0 0c-.25-.21-.53-.4-.8-.58l-3.47-2.48c-.26-.2-.53-.4-.81-.57-.88-.54-2.14-.77-2.91-.08-.42.38-.61.97-.49 1.52.11.54.54 1.01 1.07 1.17.41.13.95.03 1.1-.37.09-.23.03-.5.05-.75 0-.24.15-.54.41-.53.66-.04 1.32.35 1.62.95.25.52.2 1.16-.1 1.65.15.03.3.09.43.19.13.08.23.2.32.33.36-.44.95-.69 1.52-.62.66.08 1.25.59 1.42 1.23.09.23-.14.47-.37.56-.24.09-.51.11-.69.27-.34.28-.25.83 0 1.17.33.45.91.7 1.45.63.56-.06 1.06-.44 1.28-.95.4-.97-.22-2.07-1.02-2.74zm0 0c-.25-.21-.53-.4-.8-.58l-3.47-2.48c-.26-.2-.53-.4-.81-.57-.88-.54-2.14-.77-2.91-.08-.42.38-.61.97-.49 1.52.11.54.54 1.01 1.07 1.17.41.13.95.03 1.1-.37.09-.23.03-.5.05-.75 0-.24.15-.54.41-.53.66-.04 1.32.35 1.62.95.25.52.2 1.16-.1 1.65.15.03.3.09.43.19.13.08.23.2.32.33.36-.44.95-.69 1.52-.62.66.08 1.25.59 1.42 1.23.09.23-.14.47-.37.56-.24.09-.51.11-.69.27-.34.28-.25.83 0 1.17.33.45.91.7 1.45.63.56-.06 1.06-.44 1.28-.95.4-.97-.22-2.07-1.02-2.74zm0 0c-.25-.21-.53-.4-.8-.58l-3.47-2.48c-.26-.2-.53-.4-.81-.57-.88-.54-2.14-.77-2.91-.08-.42.38-.61.97-.49 1.52.11.54.54 1.01 1.07 1.17.41.13.95.03 1.1-.37.09-.23.03-.5.05-.75 0-.24.15-.54.41-.53.66-.04 1.32.35 1.62.95.25.52.2 1.16-.1 1.65.15.03.3.09.43.19.13.08.23.2.32.33.36-.44.95-.69 1.52-.62.66.08 1.25.59 1.42 1.23.09.23-.14.47-.37.56-.24.09-.51.11-.69.27-.34.28-.25.83 0 1.17.33.45.91.7 1.45.63.56-.06 1.06-.44 1.28-.95.4-.97-.22-2.07-1.02-2.74zm0 0c-.25-.21-.53-.4-.8-.58l-3.47-2.48c-.26-.2-.53-.4-.81-.57-.88-.54-2.14-.77-2.91-.08-.42.38-.61.97-.49 1.52.11.54.54 1.01 1.07 1.17.41.13.95.03 1.1-.37.09-.23.03-.5.05-.75 0-.24.15-.54.41-.53.66-.04 1.32.35 1.62.95.25.52.2 1.16-.1 1.65.15.03.3.09.43.19.13.08.23.2.32.33.36-.44.95-.69 1.52-.62.66.08 1.25.59 1.42 1.23.09.23-.14.47-.37.56-.24.09-.51.11-.69.27-.34.28-.25.83 0 1.17.33.45.91.7 1.45.63.56-.06 1.06-.44 1.28-.95.4-.97-.22-2.07-1.02-2.74zm0 0c-.25-.21-.53-.4-.8-.58l-3.47-2.48c-.26-.2-.53-.4-.81-.57-.88-.54-2.14-.77-2.91-.08-.42.38-.61.97-.49 1.52.11.54.54 1.01 1.07 1.17.41.13.95.03 1.1-.37.09-.23.03-.5.05-.75 0-.24.15-.54.41-.53.66-.04 1.32.35 1.62.95.25.52.2 1.16-.1 1.65.15.03.3.09.43.19.13.08.23.2.32.33.36-.44.95-.69 1.52-.62.66.08 1.25.59 1.42 1.23.09.23-.14.47-.37.56-.24.09-.51.11-.69.27-.34.28-.25.83 0 1.17.33.45.91.7 1.45.63.56-.06 1.06-.44 1.28-.95.4-.97-.22-2.07-1.02-2.74zm0 0c-.25-.21-.53-.4-.8-.58l-3.47-2.48c-.26-.2-.53-.4-.81-.57-.88-.54-2.14-.77-2.91-.08-.42.38-.61.97-.49 1.52.11.54.54 1.01 1.07 1.17.41.13.95.03 1.1-.37.09-.23.03-.5.05-.75 0-.24.15-.54.41-.53.66-.04 1.32.35 1.62.95.25.52.2 1.16-.1 1.65.15.03.3.09.43.19.13.08.23.2.32.33.36-.44.95-.69 1.52-.62.66.08 1.25.59 1.42 1.23.09.23-.14.47-.37.56-.24.09-.51.11-.69.27-.34.28-.25.83 0 1.17.33.45.91.7 1.45.63.56-.06 1.06-.44 1.28-.95.4-.97-.22-2.07-1.02-2.74zm0 0c-.25-.21-.53-.4-.8-.58l-3.47-2.48c-.26-.2-.53-.4-.81-.57-.88-.54-2.14-.77-2.91-.08-.42.38-.61.97-.49 1.52.11.54.54 1.01 1.07 1.17.41.13.95.03 1.1-.37.09-.23.03-.5.05-.75 0-.24.15-.54.41-.53.66-.04 1.32.35 1.62.95.25.52.2 1.16-.1 1.65.15.03.3.09.43.19.13.08.23.2.32.33.36-.44.95-.69 1.52-.62.66.08 1.25.59 1.42 1.23.09.23-.14.47-.37.56-.24.09-.51.11-.69.27-.34.28-.25.83 0 1.17.33.45.91.7 1.45.63.56-.06 1.06-.44 1.28-.95.4-.97-.22-2.07-1.02-2.74zm0 0c-.25-.21-.53-.4-.8-.58l-3.47-2.48c-.26-.2-.53-.4-.81-.57-.88-.54-2.14-.77-2.91-.08-.42.38-.61.97-.49 1.52.11.54.54 1.01 1.07 1.17.41.13.95.03 1.1-.37.09-.23.03-.5.05-.75 0-.24.15-.54.41-.53.66-.04 1.32.35 1.62.95.25.52.2 1.16-.1 1.65.15.03.3.09.43.19.13.08.23.2.32.33.36-.44.95-.69 1.52-.62.66.08 1.25.59 1.42 1.23.09.23-.14.47-.37.56-.24.09-.51.11-.69.27-.34.28-.25.83 0 1.17.33.45.91.7 1.45.63.56-.06 1.06-.44 1.28-.95.4-.97-.22-2.07-1.02-2.74zm-37.35 29.74v.02s.01-.02.01-.03c0 0-.01 0-.01.01zm0 0v.02s.01-.02.01-.03c0 0-.01 0-.01.01zm0 0v.02s.01-.02.01-.03c0 0-.01 0-.01.01zm0 0v.02s.01-.02.01-.03c0 0-.01 0-.01.01zm0 0v.02s.01-.02.01-.03c0 0-.01 0-.01.01zm0 0v.02s.01-.02.01-.03c0 0-.01 0-.01.01zm0 0v.02s.01-.02.01-.03c0 0-.01 0-.01.01zm0 0v.02s.01-.02.01-.03c0 0-.01 0-.01.01zm0 0v.02s.01-.02.01-.03c0 0-.01 0-.01.01zm0 0v.02s.01-.02.01-.03c0 0-.01 0-.01.01zm0 0v.02s.01-.02.01-.03c0 0-.01 0-.01.01zm0 0v.02s.01-.02.01-.03c0 0-.01 0-.01.01zm0 0v.02s.01-.02.01-.03c0 0-.01 0-.01.01zm0 0v.02s.01-.02.01-.03c0 0-.01 0-.01.01zm0 0v.02s.01-.02.01-.03c0 0-.01 0-.01.01zm0 0v.02s.01-.02.01-.03c0 0-.01 0-.01.01zm0 0v.02s.01-.02.01-.03c0 0-.01 0-.01.01zm0 0v.02s.01-.02.01-.03c0 0-.01 0-.01.01zm-5.28-7.92v15.36s-.36 4.44 2.29 7.3c1.62 1.76 4.13 2.66 7.48 2.66 5.59 0 10.28 2.18 13.56 6.22v-31.54zm20.1 10.24c.22.16.42.39.56.63.06.11.12.25.08.39-.01.02-.02.05-.04.07.01.05.01.09 0 .14-.01.14-.08.3-.18.4.02-.16-.03-.27-.12-.39h-.03c-.16-.01-.31-.1-.43-.21-.14-.12-.25-.27-.4-.41-.13-.12-.35-.18-.54-.18-.18.23-.39.46-.59.68-.06.08-.13.16-.22.2-.03.13-.02.26.06.38-.14-.04-.26-.14-.34-.26-.03-.05-.06-.11-.08-.16h-.01c-.08-.08-.15-.18-.16-.3-.02-.22.05-.46.16-.64-.34-.16-.7-.34-1.07-.25-.15.04-.28.06-.44.1h-.02s-.03.02-.04.03c-.17.12-.26.35-.23.55-.28-.03-.58-.17-.74-.42t-.02-.03s-.05.02-.07.03c-.01.01-.02.01-.02.01-.17.1-.3.29-.31.5-.29-.07-.57-.28-.68-.57v-.02h-.15c-.2.01-.4.16-.48.35-.27-.19-.45-.52-.43-.85-.15-.13-.27-.28-.38-.47-.1.4-.47.67-.79.92-.36.26-.72.59-.75 1.03-.02.33.2.66.51.77.1.03.2.05.31.04.18-.12.37-.21.57-.28.77-.32 1.66-.37 2.45-.12.39.12.75.29 1.15.36.4.06.85-.05 1.08-.38.18.59-.17 1.3-.75 1.51.23.33.15.81.08 1.2-.08.4-.19.79-.12 1.19.1.62.64 1.06 1.14 1.45.85-.12 1.69-.43 2.41-.91.19-.12.33-.34.54-.43.19-.07.46-.06.59.1.06 0 .12.01.18.03.14.05.26.15.35.27-.15-.06-.29-.03-.44.04-.02.12-.08.24-.17.34-.16.16-.39.24-.61.33-.14.04-.16.32-.08.44.08.11.22.17.36.21s.3.1.37.22c.03.04.05.09.05.14.06.05.11.12.15.19.07.13.09.28.06.43-.06-.15-.2-.22-.37-.26-.02.02-.04.04-.06.05-.18.11-.43.08-.62 0-.19-.09-.35-.24-.51-.4-.07-.07-.22.02-.27.1s-.04.2-.02.29c.03.1.08.19.1.29.01.06.02.11 0 .16.03.07.04.15.04.22.01.14-.04.3-.13.42.01-.18-.09-.3-.2-.41-.02 0-.04 0-.05-.01-.11-.02-.21-.09-.3-.17-.22-.19-.38-.47-.45-.76-.03-.12-.26-.05-.36.03-.08.08-.12.19-.15.32-.03.11-.05.23-.12.34-.06.08-.13.13-.23.16-.09.16-.15.33-.06.51-.13-.07-.23-.19-.28-.34-.03-.09-.06-.19-.05-.29-.04-.03-.07-.08-.09-.13-.08-.2.01-.43.1-.63-1.12.01-1.25.55-1.25.55-.18.25-.57.34-.86.23.09-.14.09-.34.01-.48-.06-.09-.14-.16-.24-.18-.27.09-.59-.02-.79-.23.14-.08.24-.25.23-.41 0-.17-.1-.31-.24-.38h-.02c-.22.01-.45-.11-.59-.3-.04-.07-.08-.13-.11-.2.1-.01.19-.06.25-.14s.01-.07.02-.1c.01-.16.01-.33 0-.49-.01-.39-.12-.76-.27-1.13-.22.27-.45.56-.74.76-.28.21-.65.35-1 .28h-.01c.19.31.46.55.77.71-.05.21-.26.37-.49.34.28.59.27 1.37.02 1.99-.24.61-.76 1.12-1.38 1.34.27.41.63.76 1.07.98.41.2 1.02.38 1.46.27.61-.14 1.21-.38 1.72-.73.1-.07.19-.14.32-.17.04-.02.09-.03.15-.02.07-.05.16-.08.24-.08.14-.02.31.01.43.09-.19.01-.31.13-.41.28-.01.08-.04.17-.09.23-.09.14-.24.23-.38.35-.11.09-.14.29-.22.43l.42.21c.12.06.26.14.31.26.08.05.14.13.17.2.08.14.1.3.07.44-.08-.17-.23-.23-.41-.27-.05.03-.1.04-.15.04-.18.01-.36-.08-.51-.18-.14-.1-.3-.21-.48-.25-.07-.02-.15-.02-.21.02-.07.03-.1.12-.05.18.1.14.2.28.23.45v.1c.07.08.1.22.11.35 0 .15-.05.31-.14.42.01-.19-.1-.33-.24-.44h-.01c-.14.01-.28-.09-.4-.18-.22-.17-.43-.42-.7-.49-.13-.03-.27.03-.4.11-.12.07-.21.17-.32.27-.1.08-.21.16-.35.17-.11.14-.19.28-.16.46-.11-.09-.18-.23-.19-.39-.01-.07-.01-.14 0-.21-.01 0-.01-.01-.02-.02-.04-.09-.02-.2.03-.28.04-.09.1-.19.17-.26-.03 0-.05-.01-.08-.02-.29-.05-.57-.13-.87-.14-.36-.01-.7-.08-1.04-.18-.2.17-.5.23-.76.18.08-.17.05-.4-.07-.55-.03-.04-.06-.06-.1-.09-.01.01-.03.01-.04.01-.22.08-.49.06-.72-.04.11-.13.14-.33.1-.49-.01-.03-.01-.04-.02-.06-.02-.05-.05-.09-.09-.12-.26 0-.53-.13-.71-.34.17-.09.3-.28.3-.48 0-.07-.02-.14-.04-.19-.12-.26-.24-.51-.44-.72-.19-.21-.27-.55-.25-.84 1.05.28 2.21-.16 2.86-1.03-.59-.23-1.08-.72-1.31-1.31s-.22-1.28.05-1.85v-.05c-.83.95-1.94 1.74-3.21 1.88h-.06c-.22.28-.56.48-.91.53.01-.23-.08-.47-.23-.63h-.01c-.84-.22-1.6-.78-1.9-1.6-.17-.49-.19-.97-.11-1.44-.19-.3-.28-.69-.26-1.07.22.08.48.04.67-.11.26-.56.62-1.07.97-1.55.77-1.09 1.38-2.36.6-3.62-.33-.54-.83-.92-1.26-1.37-.42-.46-.77-1.06-.68-1.68.08-.51.49-.95.98-1.14.49-.18 1.05-.14 1.54.04.67.25 1.24.76 1.56 1.4.15.29.28.7.23 1.06v.09c0 .38-.16.35-.16.35-.62-.2-.93-.87-1.33-1.38-.25-.33-.6-.62-1.01-.67-.42-.05-.89.23-.92.65-.02.23.11.47.28.64.47.48 1.02.75 1.41 1.31.18.25.34.53.44.8.03-.07.05-.13.07-.2.08-.28.09-.64-.07-.91.3.15.51.55.53.94s-.09.76-.18 1.12c-.02.05-.04.11-.05.17.1-.09.2-.17.3-.28.2-.21.37-.54.34-.84.2.27.21.71.06 1.08-.15.36-.42.64-.66.91-.02.02-.03.04-.05.06.13-.03.25-.06.39-.11.27-.11.56-.33.67-.61.06.34-.12.73-.42.99-.23.19-.5.33-.76.44-.18.71-.51 1.38-.95 1.97-.18.24-.39.49-.57.73.02.24.18.46.4.56-.24.28-.58.5-.92.59-.03.23 0 .48.1.69.22.48.87.65 1.4.66s1.06-.14 1.54-.38c.49-.22.94-.54 1.33-.93.82-1.03 1.35-2.28 1.56-3.58-.08-.06-.14-.14-.21-.22-.09-.13-.16-.28-.2-.45-.03-.17-.04-.35 0-.51.01-.02.01-.04.01-.05.03-.27.05-.55.04-.81-.37-.11-.67-.42-.81-.78.26-.04.51-.23.6-.49.02-.08.04-.16.03-.24-.34-.06-.61-.32-.76-.62.22-.04.42-.22.48-.46.01-.02.01-.04.02-.06-.01 0-.02-.01-.03-.02-.27-.13-.48-.4-.57-.68.17-.01.36-.1.47-.24.03-.04.06-.09.09-.14s-.04-.07-.07-.1c-.16-.23-.21-.54-.17-.83.21.09.48.05.65-.09h.01s.03-.03.05-.05c.03-.03.08-.06.12-.09-.04-.01-.1-.01-.14 0-.13 0-.28.02-.41-.05-.1-.05-.17-.15-.21-.26-.03-.11-.04-.22-.05-.34.15.07.35.05.52.03.17-.03.35-.08.53-.05.17.02.38.11.41.28.04 0 .07-.01.1-.02.14-.41.52-.72.95-.83 0 .18.08.36.2.5.25-.26.62-.4.99-.41-.05.23 0 .48.13.66t.01.01c.18.05.37.13.53.24.16-.06.34.04.5.09s.32.13.49.17c.09.03.19.04.28.08.09.03.18.1.21.19.02.1-.03.22-.13.24.12.2.1.48.04.72-.05.2-.45.17-.65.11-.21-.06-.44-.15-.65-.09s-.35.24-.44.44c-.01.02-.02.04-.03.07.22-.1.47-.15.71-.15.37-.01.73.06 1.08.17.24.08.5.17.75.15.25-.03.53-.2.55-.46.01-.12-.03-.24-.06-.36-.02-.13-.03-.26.04-.36.08-.1.26-.1.33 0 .21.34.24.77.06 1.12-.18.36-.59.57-.99.5-.28-.06-.52-.25-.78-.39-.55-.26-1.23-.2-1.72.14.03.08.09.16.16.19.13.05.27-.01.41-.06.16-.08.33-.15.51-.17s.38.03.49.17c.12.13.11.37-.03.47s-.33.05-.49.04c-.24-.02-.5.06-.74.11-.09.02-.18.05-.28.06.02.02.05.04.08.06.61.36 1.44.33 2.02-.09-.01.2-.07.4-.17.56 1.81-.31 3.48-1.4 4.56-2.9-.03-.22-.09-.45-.1-.67s.04-.47.2-.62c.02-.02.05-.04.07-.05.03-.08.07-.15.12-.21.1-.13.24-.23.42-.26-.12.13-.14.27-.12.44.04.01.08.04.11.08.13.15.11.38.1.58.01.17.03.34.09.5.02.06.06.14.11.18.06.04.2 0 .24-.07.19-.29.43-.63.76-.71.07-.02.14-.03.2-.02h.01c.08-.04.18-.05.27-.04.14 0 .29.06.41.16-.16-.02-.3.05-.4.16 0 .08-.05.16-.1.22-.07.08-.15.13-.24.19-.16.12-.33.28-.45.47-.04.08-.09.16-.08.25s.09.1.18.1c.28-.01.57.04.83.15.12.05.25.12.31.24.01.03.02.05.02.08.03.04.06.08.08.11.08.13.12.28.1.43-.07-.13-.19-.19-.34-.22-.01.01-.02.01-.02.02-.13.09-.31.1-.47.1-.18-.02-.38-.06-.56-.07-.19-.02-.39.06-.53.18-.01.31-.03.6-.04.9-.01.11-.01.21-.06.31.07.13.15.22.29.25-.14.05-.29.06-.44.01-.05-.02-.11-.05-.16-.08-.11 0-.23-.04-.32-.12-.16-.15-.24-.39-.27-.6-.37.08-.76.17-1 .47-.09.11-.18.22-.27.35h-.01v.02s-.02.03-.02.05c-.06.2.01.43.16.57-.24.16-.57.22-.84.13h-.03s-.03.04-.04.06c0 .01-.01.02-.01.02-.08.18-.04.42.08.58-.28.13-.63.13-.9-.02h-.02s-.04.01-.05.03h-.01s-.01.01-.01.01c-.01.01-.03.02-.04.03-.13.12-.19.31-.17.48 1.18.26 2.43.22 3.6-.1.11-.19.19-.41.34-.58.13-.18.32-.35.55-.36.02-.01.04-.01.07-.01h.01c.07-.04.15-.07.22-.09.16-.04.35-.02.5.06-.17.02-.28.13-.37.26.02.04.03.09.03.14.01.19-.15.36-.28.51-.09.13-.17.28-.23.45-.02.07-.05.14-.02.21.01.07.15.12.22.09.35-.11.73-.22 1.05-.07.06.03.12.05.16.1 0 0 .01 0 .01.01.09.02.17.07.24.13.11.09.19.23.21.38-.11-.11-.25-.13-.41-.11-.06.07-.14.1-.22.11-.1.02-.19.01-.31 0-.21-.01-.44.02-.64.09-.08.03-.17.06-.22.14-.05.07.01.14.08.2zm-14.82-2.3s.01-.02.01-.03c0 0-.01 0-.01.01zm0-.02v.02s.01-.02.01-.03c0 0-.01 0-.01.01zm0 0v.02s.01-.02.01-.03c0 0-.01 0-.01.01zm0 0v.02s.01-.02.01-.03c0 0-.01 0-.01.01zm0 0v.02s.01-.02.01-.03c0 0-.01 0-.01.01zm0 0v.02s.01-.02.01-.03c0 0-.01 0-.01.01zm0 0v.02s.01-.02.01-.03c0 0-.01 0-.01.01zm0 0v.02s.01-.02.01-.03c0 0-.01 0-.01.01zm0 0v.02s.01-.02.01-.03c0 0-.01 0-.01.01zm0 0v.02s.01-.02.01-.03c0 0-.01 0-.01.01zm0 0v.02s.01-.02.01-.03c0 0-.01 0-.01.01zm0 0v.02s.01-.02.01-.03c0 0-.01 0-.01.01zm0 0v.02s.01-.02.01-.03c0 0-.01 0-.01.01zm0 0v.02s.01-.02.01-.03c0 0-.01 0-.01.01zm0 0v.02s.01-.02.01-.03c0 0-.01 0-.01.01zm0 0v.02s.01-.02.01-.03c0 0-.01 0-.01.01zm0 0v.02s.01-.02.01-.03c0 0-.01 0-.01.01zm0 0v.02s.01-.02.01-.03c0 0-.01 0-.01.01zm0 0v.02s.01-.02.01-.03c0 0-.01 0-.01.01z"/><path d="m0 0 2.54 3.39 1.28 1.7c.8 1.07 1.43 2.21 1.87 3.36.41 1.08.63 2.15.7 3.26.02.27.03.54.03.8v34.6c0 .2-.01.41-.01.62-.01.6-.02 1.22.03 1.89.11 1.2.36 2.35.72 3.43.5 1.44 1.21 2.72 2.13 3.79.08.09.16.18.24.28 2.25 2.44 5.55 3.68 9.83 3.68 4.59 0 8.42 1.75 11.09 5.04l.82 1.02 1.65 2.02 1.65-2.02.81-1.02c2.68-3.29 6.52-5.04 11.11-5.04 4.26 0 7.56-1.23 9.8-3.68 3.14-3.41 3.2-8.08 3.13-9.52v-35.1c0-2.64.87-5.15 2.59-7.41l1.28-1.7 2.57-3.4h-65.86zm60.28 3.75c-2 2.64-3.02 5.57-3.02 8.69v35.17h-.01c.06 1.06.1 5.14-2.56 8.04-1.83 1.99-4.6 3-8.24 3-5.26 0-9.66 2-12.75 5.82l-.83 1.01-.81-1.01c-3.09-3.81-7.5-5.82-12.75-5.82-3.64 0-6.42-1.02-8.25-3.01-2.68-2.9-2.68-7.07-2.56-8.13s-.01-.01-.01-.01v-.05s.01-35 .01-35c0-.32-.01-.62-.04-.94-.08-1.31-.36-2.58-.83-3.87-.5-1.34-1.22-2.66-2.16-3.89l-1.27-1.7h57.37l-1.28 1.7z"/><path d="m53.21 44.37c-.73 2.57-2.43 4.74-4.29 6.66-1.41 1.45-2.95 2.79-4.36 4.25-1.41-1.46-2.95-2.8-4.36-4.25-1.86-1.92-3.56-4.09-4.29-6.66s-.32-5.58 1.58-7.46c1.88-1.85 5.31-2.08 7.07-.13 1.75-1.95 5.19-1.73 7.06.13 1.9 1.87 2.32 4.89 1.59 7.46z"/></g></svg>