<svg viewBox="0 0 380.8 480.13" xmlns="http://www.w3.org/2000/svg"><g fill="#fff"><path d="m301.54 60.39c-1.47-1.23-3.06-2.29-4.65-3.35l-20.05-14.35c-1.53-1.18-3.06-2.29-4.7-3.29-5.12-3.12-12.35-4.47-16.82-.47-2.41 2.18-3.53 5.59-2.82 8.76.65 3.12 3.12 5.82 6.17 6.76 2.35.76 5.47.18 6.35-2.12.53-1.35.18-2.88.29-4.35 0-1.41.88-3.12 2.35-3.06 3.82-.24 7.64 2 9.35 5.47 1.47 3 1.18 6.7-.59 9.53.88.18 1.71.53 2.47 1.12.76.47 1.35 1.18 1.82 1.88 2.06-2.53 5.47-4 8.76-3.59 3.82.47 7.23 3.41 8.23 7.11.53 1.35-.82 2.71-2.12 3.23-1.41.53-2.94.65-4 1.59-1.94 1.65-1.47 4.82 0 6.76 1.88 2.59 5.23 4.06 8.41 3.65 3.23-.35 6.12-2.53 7.41-5.47 2.29-5.59-1.29-11.94-5.88-15.82zm0 0c-1.47-1.23-3.06-2.29-4.65-3.35l-20.05-14.35c-1.53-1.18-3.06-2.29-4.7-3.29-5.12-3.12-12.35-4.47-16.82-.47-2.41 2.18-3.53 5.59-2.82 8.76.65 3.12 3.12 5.82 6.17 6.76 2.35.76 5.47.18 6.35-2.12.53-1.35.18-2.88.29-4.35 0-1.41.88-3.12 2.35-3.06 3.82-.24 7.64 2 9.35 5.47 1.47 3 1.18 6.7-.59 9.53.88.18 1.71.53 2.47 1.12.76.47 1.35 1.18 1.82 1.88 2.06-2.53 5.47-4 8.76-3.59 3.82.47 7.23 3.41 8.23 7.11.53 1.35-.82 2.71-2.12 3.23-1.41.53-2.94.65-4 1.59-1.94 1.65-1.47 4.82 0 6.76 1.88 2.59 5.23 4.06 8.41 3.65 3.23-.35 6.12-2.53 7.41-5.47 2.29-5.59-1.29-11.94-5.88-15.82zm0 0c-1.47-1.23-3.06-2.29-4.65-3.35l-20.05-14.35c-1.53-1.18-3.06-2.29-4.7-3.29-5.12-3.12-12.35-4.47-16.82-.47-2.41 2.18-3.53 5.59-2.82 8.76.65 3.12 3.12 5.82 6.17 6.76 2.35.76 5.47.18 6.35-2.12.53-1.35.18-2.88.29-4.35 0-1.41.88-3.12 2.35-3.06 3.82-.24 7.64 2 9.35 5.47 1.47 3 1.18 6.7-.59 9.53.88.18 1.71.53 2.47 1.12.76.47 1.35 1.18 1.82 1.88 2.06-2.53 5.47-4 8.76-3.59 3.82.47 7.23 3.41 8.23 7.11.53 1.35-.82 2.71-2.12 3.23-1.41.53-2.94.65-4 1.59-1.94 1.65-1.47 4.82 0 6.76 1.88 2.59 5.23 4.06 8.41 3.65 3.23-.35 6.12-2.53 7.41-5.47 2.29-5.59-1.29-11.94-5.88-15.82zm0 0c-1.47-1.23-3.06-2.29-4.65-3.35l-20.05-14.35c-1.53-1.18-3.06-2.29-4.7-3.29-5.12-3.12-12.35-4.47-16.82-.47-2.41 2.18-3.53 5.59-2.82 8.76.65 3.12 3.12 5.82 6.17 6.76 2.35.76 5.47.18 6.35-2.12.53-1.35.18-2.88.29-4.35 0-1.41.88-3.12 2.35-3.06 3.82-.24 7.64 2 9.35 5.47 1.47 3 1.18 6.7-.59 9.53.88.18 1.71.53 2.47 1.12.76.47 1.35 1.18 1.82 1.88 2.06-2.53 5.47-4 8.76-3.59 3.82.47 7.23 3.41 8.23 7.11.53 1.35-.82 2.71-2.12 3.23-1.41.53-2.94.65-4 1.59-1.94 1.65-1.47 4.82 0 6.76 1.88 2.59 5.23 4.06 8.41 3.65 3.23-.35 6.12-2.53 7.41-5.47 2.29-5.59-1.29-11.94-5.88-15.82zm0 0c-1.47-1.23-3.06-2.29-4.65-3.35l-20.05-14.35c-1.53-1.18-3.06-2.29-4.7-3.29-5.12-3.12-12.35-4.47-16.82-.47-2.41 2.18-3.53 5.59-2.82 8.76.65 3.12 3.12 5.82 6.17 6.76 2.35.76 5.47.18 6.35-2.12.53-1.35.18-2.88.29-4.35 0-1.41.88-3.12 2.35-3.06 3.82-.24 7.64 2 9.35 5.47 1.47 3 1.18 6.7-.59 9.53.88.18 1.71.53 2.47 1.12.76.47 1.35 1.18 1.82 1.88 2.06-2.53 5.47-4 8.76-3.59 3.82.47 7.23 3.41 8.23 7.11.53 1.35-.82 2.71-2.12 3.23-1.41.53-2.94.65-4 1.59-1.94 1.65-1.47 4.82 0 6.76 1.88 2.59 5.23 4.06 8.41 3.65 3.23-.35 6.12-2.53 7.41-5.47 2.29-5.59-1.29-11.94-5.88-15.82zm0 0c-1.47-1.23-3.06-2.29-4.65-3.35l-20.05-14.35c-1.53-1.18-3.06-2.29-4.7-3.29-5.12-3.12-12.35-4.47-16.82-.47-2.41 2.18-3.53 5.59-2.82 8.76.65 3.12 3.12 5.82 6.17 6.76 2.35.76 5.47.18 6.35-2.12.53-1.35.18-2.88.29-4.35 0-1.41.88-3.12 2.35-3.06 3.82-.24 7.64 2 9.35 5.47 1.47 3 1.18 6.7-.59 9.53.88.18 1.71.53 2.47 1.12.76.47 1.35 1.18 1.82 1.88 2.06-2.53 5.47-4 8.76-3.59 3.82.47 7.23 3.41 8.23 7.11.53 1.35-.82 2.71-2.12 3.23-1.41.53-2.94.65-4 1.59-1.94 1.65-1.47 4.82 0 6.76 1.88 2.59 5.23 4.06 8.41 3.65 3.23-.35 6.12-2.53 7.41-5.47 2.29-5.59-1.29-11.94-5.88-15.82zm0 0c-1.47-1.23-3.06-2.29-4.65-3.35l-20.05-14.35c-1.53-1.18-3.06-2.29-4.7-3.29-5.12-3.12-12.35-4.47-16.82-.47-2.41 2.18-3.53 5.59-2.82 8.76.65 3.12 3.12 5.82 6.17 6.76 2.35.76 5.47.18 6.35-2.12.53-1.35.18-2.88.29-4.35 0-1.41.88-3.12 2.35-3.06 3.82-.24 7.64 2 9.35 5.47 1.47 3 1.18 6.7-.59 9.53.88.18 1.71.53 2.47 1.12.76.47 1.35 1.18 1.82 1.88 2.06-2.53 5.47-4 8.76-3.59 3.82.47 7.23 3.41 8.23 7.11.53 1.35-.82 2.71-2.12 3.23-1.41.53-2.94.65-4 1.59-1.94 1.65-1.47 4.82 0 6.76 1.88 2.59 5.23 4.06 8.41 3.65 3.23-.35 6.12-2.53 7.41-5.47 2.29-5.59-1.29-11.94-5.88-15.82zm0 0c-1.47-1.23-3.06-2.29-4.65-3.35l-20.05-14.35c-1.53-1.18-3.06-2.29-4.7-3.29-5.12-3.12-12.35-4.47-16.82-.47-2.41 2.18-3.53 5.59-2.82 8.76.65 3.12 3.12 5.82 6.17 6.76 2.35.76 5.47.18 6.35-2.12.53-1.35.18-2.88.29-4.35 0-1.41.88-3.12 2.35-3.06 3.82-.24 7.64 2 9.35 5.47 1.47 3 1.18 6.7-.59 9.53.88.18 1.71.53 2.47 1.12.76.47 1.35 1.18 1.82 1.88 2.06-2.53 5.47-4 8.76-3.59 3.82.47 7.23 3.41 8.23 7.11.53 1.35-.82 2.71-2.12 3.23-1.41.53-2.94.65-4 1.59-1.94 1.65-1.47 4.82 0 6.76 1.88 2.59 5.23 4.06 8.41 3.65 3.23-.35 6.12-2.53 7.41-5.47 2.29-5.59-1.29-11.94-5.88-15.82zm0 0c-1.47-1.23-3.06-2.29-4.65-3.35l-20.05-14.35c-1.53-1.18-3.06-2.29-4.7-3.29-5.12-3.12-12.35-4.47-16.82-.47-2.41 2.18-3.53 5.59-2.82 8.76.65 3.12 3.12 5.82 6.17 6.76 2.35.76 5.47.18 6.35-2.12.53-1.35.18-2.88.29-4.35 0-1.41.88-3.12 2.35-3.06 3.82-.24 7.64 2 9.35 5.47 1.47 3 1.18 6.7-.59 9.53.88.18 1.71.53 2.47 1.12.76.47 1.35 1.18 1.82 1.88 2.06-2.53 5.47-4 8.76-3.59 3.82.47 7.23 3.41 8.23 7.11.53 1.35-.82 2.71-2.12 3.23-1.41.53-2.94.65-4 1.59-1.94 1.65-1.47 4.82 0 6.76 1.88 2.59 5.23 4.06 8.41 3.65 3.23-.35 6.12-2.53 7.41-5.47 2.29-5.59-1.29-11.94-5.88-15.82zm0 0c-1.47-1.23-3.06-2.29-4.65-3.35l-20.05-14.35c-1.53-1.18-3.06-2.29-4.7-3.29-5.12-3.12-12.35-4.47-16.82-.47-2.41 2.18-3.53 5.59-2.82 8.76.65 3.12 3.12 5.82 6.17 6.76 2.35.76 5.47.18 6.35-2.12.53-1.35.18-2.88.29-4.35 0-1.41.88-3.12 2.35-3.06 3.82-.24 7.64 2 9.35 5.47 1.47 3 1.18 6.7-.59 9.53.88.18 1.71.53 2.47 1.12.76.47 1.35 1.18 1.82 1.88 2.06-2.53 5.47-4 8.76-3.59 3.82.47 7.23 3.41 8.23 7.11.53 1.35-.82 2.71-2.12 3.23-1.41.53-2.94.65-4 1.59-1.94 1.65-1.47 4.82 0 6.76 1.88 2.59 5.23 4.06 8.41 3.65 3.23-.35 6.12-2.53 7.41-5.47 2.29-5.59-1.29-11.94-5.88-15.82zm0 0c-1.47-1.23-3.06-2.29-4.65-3.35l-20.05-14.35c-1.53-1.18-3.06-2.29-4.7-3.29-5.12-3.12-12.35-4.47-16.82-.47-2.41 2.18-3.53 5.59-2.82 8.76.65 3.12 3.12 5.82 6.17 6.76 2.35.76 5.47.18 6.35-2.12.53-1.35.18-2.88.29-4.35 0-1.41.88-3.12 2.35-3.06 3.82-.24 7.64 2 9.35 5.47 1.47 3 1.18 6.7-.59 9.53.88.18 1.71.53 2.47 1.12.76.47 1.35 1.18 1.82 1.88 2.06-2.53 5.47-4 8.76-3.59 3.82.47 7.23 3.41 8.23 7.11.53 1.35-.82 2.71-2.12 3.23-1.41.53-2.94.65-4 1.59-1.94 1.65-1.47 4.82 0 6.76 1.88 2.59 5.23 4.06 8.41 3.65 3.23-.35 6.12-2.53 7.41-5.47 2.29-5.59-1.29-11.94-5.88-15.82zm0 0c-1.47-1.23-3.06-2.29-4.65-3.35l-20.05-14.35c-1.53-1.18-3.06-2.29-4.7-3.29-5.12-3.12-12.35-4.47-16.82-.47-2.41 2.18-3.53 5.59-2.82 8.76.65 3.12 3.12 5.82 6.17 6.76 2.35.76 5.47.18 6.35-2.12.53-1.35.18-2.88.29-4.35 0-1.41.88-3.12 2.35-3.06 3.82-.24 7.64 2 9.35 5.47 1.47 3 1.18 6.7-.59 9.53.88.18 1.71.53 2.47 1.12.76.47 1.35 1.18 1.82 1.88 2.06-2.53 5.47-4 8.76-3.59 3.82.47 7.23 3.41 8.23 7.11.53 1.35-.82 2.71-2.12 3.23-1.41.53-2.94.65-4 1.59-1.94 1.65-1.47 4.82 0 6.76 1.88 2.59 5.23 4.06 8.41 3.65 3.23-.35 6.12-2.53 7.41-5.47 2.29-5.59-1.29-11.94-5.88-15.82zm0 0c-1.47-1.23-3.06-2.29-4.65-3.35l-20.05-14.35c-1.53-1.18-3.06-2.29-4.7-3.29-5.12-3.12-12.35-4.47-16.82-.47-2.41 2.18-3.53 5.59-2.82 8.76.65 3.12 3.12 5.82 6.17 6.76 2.35.76 5.47.18 6.35-2.12.53-1.35.18-2.88.29-4.35 0-1.41.88-3.12 2.35-3.06 3.82-.24 7.64 2 9.35 5.47 1.47 3 1.18 6.7-.59 9.53.88.18 1.71.53 2.47 1.12.76.47 1.35 1.18 1.82 1.88 2.06-2.53 5.47-4 8.76-3.59 3.82.47 7.23 3.41 8.23 7.11.53 1.35-.82 2.71-2.12 3.23-1.41.53-2.94.65-4 1.59-1.94 1.65-1.47 4.82 0 6.76 1.88 2.59 5.23 4.06 8.41 3.65 3.23-.35 6.12-2.53 7.41-5.47 2.29-5.59-1.29-11.94-5.88-15.82zm0 0c-1.47-1.23-3.06-2.29-4.65-3.35l-20.05-14.35c-1.53-1.18-3.06-2.29-4.7-3.29-5.12-3.12-12.35-4.47-16.82-.47-2.41 2.18-3.53 5.59-2.82 8.76.65 3.12 3.12 5.82 6.17 6.76 2.35.76 5.47.18 6.35-2.12.53-1.35.18-2.88.29-4.35 0-1.41.88-3.12 2.35-3.06 3.82-.24 7.64 2 9.35 5.47 1.47 3 1.18 6.7-.59 9.53.88.18 1.71.53 2.47 1.12.76.47 1.35 1.18 1.82 1.88 2.06-2.53 5.47-4 8.76-3.59 3.82.47 7.23 3.41 8.23 7.11.53 1.35-.82 2.71-2.12 3.23-1.41.53-2.94.65-4 1.59-1.94 1.65-1.47 4.82 0 6.76 1.88 2.59 5.23 4.06 8.41 3.65 3.23-.35 6.12-2.53 7.41-5.47 2.29-5.59-1.29-11.94-5.88-15.82zm0 0c-1.47-1.23-3.06-2.29-4.65-3.35l-20.05-14.35c-1.53-1.18-3.06-2.29-4.7-3.29-5.12-3.12-12.35-4.47-16.82-.47-2.41 2.18-3.53 5.59-2.82 8.76.65 3.12 3.12 5.82 6.17 6.76 2.35.76 5.47.18 6.35-2.12.53-1.35.18-2.88.29-4.35 0-1.41.88-3.12 2.35-3.06 3.82-.24 7.64 2 9.35 5.47 1.47 3 1.18 6.7-.59 9.53.88.18 1.71.53 2.47 1.12.76.47 1.35 1.18 1.82 1.88 2.06-2.53 5.47-4 8.76-3.59 3.82.47 7.23 3.41 8.23 7.11.53 1.35-.82 2.71-2.12 3.23-1.41.53-2.94.65-4 1.59-1.94 1.65-1.47 4.82 0 6.76 1.88 2.59 5.23 4.06 8.41 3.65 3.23-.35 6.12-2.53 7.41-5.47 2.29-5.59-1.29-11.94-5.88-15.82zm0 0c-1.47-1.23-3.06-2.29-4.65-3.35l-20.05-14.35c-1.53-1.18-3.06-2.29-4.7-3.29-5.12-3.12-12.35-4.47-16.82-.47-2.41 2.18-3.53 5.59-2.82 8.76.65 3.12 3.12 5.82 6.17 6.76 2.35.76 5.47.18 6.35-2.12.53-1.35.18-2.88.29-4.35 0-1.41.88-3.12 2.35-3.06 3.82-.24 7.64 2 9.35 5.47 1.47 3 1.18 6.7-.59 9.53.88.18 1.71.53 2.47 1.12.76.47 1.35 1.18 1.82 1.88 2.06-2.53 5.47-4 8.76-3.59 3.82.47 7.23 3.41 8.23 7.11.53 1.35-.82 2.71-2.12 3.23-1.41.53-2.94.65-4 1.59-1.94 1.65-1.47 4.82 0 6.76 1.88 2.59 5.23 4.06 8.41 3.65 3.23-.35 6.12-2.53 7.41-5.47 2.29-5.59-1.29-11.94-5.88-15.82zm0 0c-1.47-1.23-3.06-2.29-4.65-3.35l-20.05-14.35c-1.53-1.18-3.06-2.29-4.7-3.29-5.12-3.12-12.35-4.47-16.82-.47-2.41 2.18-3.53 5.59-2.82 8.76.65 3.12 3.12 5.82 6.17 6.76 2.35.76 5.47.18 6.35-2.12.53-1.35.18-2.88.29-4.35 0-1.41.88-3.12 2.35-3.06 3.82-.24 7.64 2 9.35 5.47 1.47 3 1.18 6.7-.59 9.53.88.18 1.71.53 2.47 1.12.76.47 1.35 1.18 1.82 1.88 2.06-2.53 5.47-4 8.76-3.59 3.82.47 7.23 3.41 8.23 7.11.53 1.35-.82 2.71-2.12 3.23-1.41.53-2.94.65-4 1.59-1.94 1.65-1.47 4.82 0 6.76 1.88 2.59 5.23 4.06 8.41 3.65 3.23-.35 6.12-2.53 7.41-5.47 2.29-5.59-1.29-11.94-5.88-15.82zm0 0c-1.47-1.23-3.06-2.29-4.65-3.35l-20.05-14.35c-1.53-1.18-3.06-2.29-4.7-3.29-5.12-3.12-12.35-4.47-16.82-.47-2.41 2.18-3.53 5.59-2.82 8.76.65 3.12 3.12 5.82 6.17 6.76 2.35.76 5.47.18 6.35-2.12.53-1.35.18-2.88.29-4.35 0-1.41.88-3.12 2.35-3.06 3.82-.24 7.64 2 9.35 5.47 1.47 3 1.18 6.7-.59 9.53.88.18 1.71.53 2.47 1.12.76.47 1.35 1.18 1.82 1.88 2.06-2.53 5.47-4 8.76-3.59 3.82.47 7.23 3.41 8.23 7.11.53 1.35-.82 2.71-2.12 3.23-1.41.53-2.94.65-4 1.59-1.94 1.65-1.47 4.82 0 6.76 1.88 2.59 5.23 4.06 8.41 3.65 3.23-.35 6.12-2.53 7.41-5.47 2.29-5.59-1.29-11.94-5.88-15.82zm0 0c-1.47-1.23-3.06-2.29-4.65-3.35l-20.05-14.35c-1.53-1.18-3.06-2.29-4.7-3.29-5.12-3.12-12.35-4.47-16.82-.47-2.41 2.18-3.53 5.59-2.82 8.76.65 3.12 3.12 5.82 6.17 6.76 2.35.76 5.47.18 6.35-2.12.53-1.35.18-2.88.29-4.35 0-1.41.88-3.12 2.35-3.06 3.82-.24 7.64 2 9.35 5.47 1.47 3 1.18 6.7-.59 9.53.88.18 1.71.53 2.47 1.12.76.47 1.35 1.18 1.82 1.88 2.06-2.53 5.47-4 8.76-3.59 3.82.47 7.23 3.41 8.23 7.11.53 1.35-.82 2.71-2.12 3.23-1.41.53-2.94.65-4 1.59-1.94 1.65-1.47 4.82 0 6.76 1.88 2.59 5.23 4.06 8.41 3.65 3.23-.35 6.12-2.53 7.41-5.47 2.29-5.59-1.29-11.94-5.88-15.82zm0 0c-1.47-1.23-3.06-2.29-4.65-3.35l-20.05-14.35c-1.53-1.18-3.06-2.29-4.7-3.29-5.12-3.12-12.35-4.47-16.82-.47-2.41 2.18-3.53 5.59-2.82 8.76.65 3.12 3.12 5.82 6.17 6.76 2.35.76 5.47.18 6.35-2.12.53-1.35.18-2.88.29-4.35 0-1.41.88-3.12 2.35-3.06 3.82-.24 7.64 2 9.35 5.47 1.47 3 1.18 6.7-.59 9.53.88.18 1.71.53 2.47 1.12.76.47 1.35 1.18 1.82 1.88 2.06-2.53 5.47-4 8.76-3.59 3.82.47 7.23 3.41 8.23 7.11.53 1.35-.82 2.71-2.12 3.23-1.41.53-2.94.65-4 1.59-1.94 1.65-1.47 4.82 0 6.76 1.88 2.59 5.23 4.06 8.41 3.65 3.23-.35 6.12-2.53 7.41-5.47 2.29-5.59-1.29-11.94-5.88-15.82zm-111.55-42.4v24.05h-140.18c2.7 7.23 4.59 15.29 5.17 24.11h135.01v24.05h-134.83v24.11h134.83v24.05h-134.83v24.11h134.83v23.99h134.83v-114.55c0-22.7 8.76-40.81 18.76-53.92zm127.83 57.98c-3.06 7.82-11.17 13.23-19.58 13.05-8.29-.12-16.23-5.94-18.99-13.88-.18-.65-.41-1.29-.59-2.06l-3.29 4.7 1.76 1.29c1.41 1 1.7 2.88.7 4.29-.94 1.35-2.88 1.71-4.23.71l-1.82-1.35-9.94 13.88 1.88 1.35c1.35 1 1.71 2.94.71 4.29s-2.88 1.71-4.29.71l-1.88-1.29-14.58 20.4 1.88 1.35c1.35.94 1.71 2.82.71 4.23s-2.94 1.71-4.29.71l-.59-.41c.82.59 1 1.71.41 2.53s-1.71 1-2.53.41l-1.29-.88-3.12 4.35.12.12 1.06-1.47 26.34 18.82-9.11 12.76-5.23-3.76 5.53-7.76-7.7-5.47-1.82 2.47 5.18 3.7-3.71 5.23-11-7.82 5.53-7.76-2.12-1.53-12.94 18.05 2.06 1.47 5.47-7.7 11 7.82-3.71 5.23-5.17-3.7-1.82 2.53 7.76 5.53 5.47-7.7 5.23 3.7-9.05 12.7-4.64-3.29-.59-.41-21.11-15.11-2.35 3.29c1.35 1.29 1.65 3.41.47 5.06-1.06 1.47-2.59 2.35-4.23 2.65-1.7.29-3.47-.06-4.94-1.12l-5.94-4.29c-2.94-2.06-3.65-6.17-1.53-9.11 1.18-1.59 3.29-2.12 4.94-1.18l24.52-34.28-1.23-.94c-.82-.53-1.06-1.71-.41-2.53.59-.82 1.71-1 2.53-.35l-.65-.47c-1.35-1-1.71-2.94-.65-4.29.94-1.41 2.88-1.71 4.23-.71l1.88 1.29 14.58-20.4-1.88-1.29c-1.35-1-1.65-2.94-.71-4.29 1-1.41 2.94-1.71 4.29-.71l1.88 1.29 9.88-13.82-1.88-1.41c-1.35-.94-1.7-2.88-.7-4.29.94-1.29 2.88-1.65 4.29-.71l1.88 1.41 3.35-4.7c-.7.06-1.47.12-2.17.12-8.35 0-16.41-5.65-19.23-13.52-2.88-7.82-.35-17.29 6-22.7s17.58-5.23 24.87-1.18l33.87 24.29c6.23 5.53 10.11 16.17 7 23.87zm-16.29-15.58c-1.47-1.23-3.06-2.29-4.65-3.35l-20.05-14.35c-1.53-1.18-3.06-2.29-4.7-3.29-5.12-3.12-12.35-4.47-16.82-.47-2.41 2.18-3.53 5.59-2.82 8.76.65 3.12 3.12 5.82 6.17 6.76 2.35.76 5.47.18 6.35-2.12.53-1.35.18-2.88.29-4.35 0-1.41.88-3.12 2.35-3.06 3.82-.24 7.64 2 9.35 5.47 1.47 3 1.18 6.7-.59 9.53.88.18 1.71.53 2.47 1.12.76.47 1.35 1.18 1.82 1.88 2.06-2.53 5.47-4 8.76-3.59 3.82.47 7.23 3.41 8.23 7.11.53 1.35-.82 2.71-2.12 3.23-1.41.53-2.94.65-4 1.59-1.94 1.65-1.47 4.82 0 6.76 1.88 2.59 5.23 4.06 8.41 3.65 3.23-.35 6.12-2.53 7.41-5.47 2.29-5.59-1.29-11.94-5.88-15.82zm0 0c-1.47-1.23-3.06-2.29-4.65-3.35l-20.05-14.35c-1.53-1.18-3.06-2.29-4.7-3.29-5.12-3.12-12.35-4.47-16.82-.47-2.41 2.18-3.53 5.59-2.82 8.76.65 3.12 3.12 5.82 6.17 6.76 2.35.76 5.47.18 6.35-2.12.53-1.35.18-2.88.29-4.35 0-1.41.88-3.12 2.35-3.06 3.82-.24 7.64 2 9.35 5.47 1.47 3 1.18 6.7-.59 9.53.88.18 1.71.53 2.47 1.12.76.47 1.35 1.18 1.82 1.88 2.06-2.53 5.47-4 8.76-3.59 3.82.47 7.23 3.41 8.23 7.11.53 1.35-.82 2.71-2.12 3.23-1.41.53-2.94.65-4 1.59-1.94 1.65-1.47 4.82 0 6.76 1.88 2.59 5.23 4.06 8.41 3.65 3.23-.35 6.12-2.53 7.41-5.47 2.29-5.59-1.29-11.94-5.88-15.82zm0 0c-1.47-1.23-3.06-2.29-4.65-3.35l-20.05-14.35c-1.53-1.18-3.06-2.29-4.7-3.29-5.12-3.12-12.35-4.47-16.82-.47-2.41 2.18-3.53 5.59-2.82 8.76.65 3.12 3.12 5.82 6.17 6.76 2.35.76 5.47.18 6.35-2.12.53-1.35.18-2.88.29-4.35 0-1.41.88-3.12 2.35-3.06 3.82-.24 7.64 2 9.35 5.47 1.47 3 1.18 6.7-.59 9.53.88.18 1.71.53 2.47 1.12.76.47 1.35 1.18 1.82 1.88 2.06-2.53 5.47-4 8.76-3.59 3.82.47 7.23 3.41 8.23 7.11.53 1.35-.82 2.71-2.12 3.23-1.41.53-2.94.65-4 1.59-1.94 1.65-1.47 4.82 0 6.76 1.88 2.59 5.23 4.06 8.41 3.65 3.23-.35 6.12-2.53 7.41-5.47 2.29-5.59-1.29-11.94-5.88-15.82zm0 0c-1.47-1.23-3.06-2.29-4.65-3.35l-20.05-14.35c-1.53-1.18-3.06-2.29-4.7-3.29-5.12-3.12-12.35-4.47-16.82-.47-2.41 2.18-3.53 5.59-2.82 8.76.65 3.12 3.12 5.82 6.17 6.76 2.35.76 5.47.18 6.35-2.12.53-1.35.18-2.88.29-4.35 0-1.41.88-3.12 2.35-3.06 3.82-.24 7.64 2 9.35 5.47 1.47 3 1.18 6.7-.59 9.53.88.18 1.71.53 2.47 1.12.76.47 1.35 1.18 1.82 1.88 2.06-2.53 5.47-4 8.76-3.59 3.82.47 7.23 3.41 8.23 7.11.53 1.35-.82 2.71-2.12 3.23-1.41.53-2.94.65-4 1.59-1.94 1.65-1.47 4.82 0 6.76 1.88 2.59 5.23 4.06 8.41 3.65 3.23-.35 6.12-2.53 7.41-5.47 2.29-5.59-1.29-11.94-5.88-15.82zm0 0c-1.47-1.23-3.06-2.29-4.65-3.35l-20.05-14.35c-1.53-1.18-3.06-2.29-4.7-3.29-5.12-3.12-12.35-4.47-16.82-.47-2.41 2.18-3.53 5.59-2.82 8.76.65 3.12 3.12 5.82 6.17 6.76 2.35.76 5.47.18 6.35-2.12.53-1.35.18-2.88.29-4.35 0-1.41.88-3.12 2.35-3.06 3.82-.24 7.64 2 9.35 5.47 1.47 3 1.18 6.7-.59 9.53.88.18 1.71.53 2.47 1.12.76.47 1.35 1.18 1.82 1.88 2.06-2.53 5.47-4 8.76-3.59 3.82.47 7.23 3.41 8.23 7.11.53 1.35-.82 2.71-2.12 3.23-1.41.53-2.94.65-4 1.59-1.94 1.65-1.47 4.82 0 6.76 1.88 2.59 5.23 4.06 8.41 3.65 3.23-.35 6.12-2.53 7.41-5.47 2.29-5.59-1.29-11.94-5.88-15.82zm0 0c-1.47-1.23-3.06-2.29-4.65-3.35l-20.05-14.35c-1.53-1.18-3.06-2.29-4.7-3.29-5.12-3.12-12.35-4.47-16.82-.47-2.41 2.18-3.53 5.59-2.82 8.76.65 3.12 3.12 5.82 6.17 6.76 2.35.76 5.47.18 6.35-2.12.53-1.35.18-2.88.29-4.35 0-1.41.88-3.12 2.35-3.06 3.82-.24 7.64 2 9.35 5.47 1.47 3 1.18 6.7-.59 9.53.88.18 1.71.53 2.47 1.12.76.47 1.35 1.18 1.82 1.88 2.06-2.53 5.47-4 8.76-3.59 3.82.47 7.23 3.41 8.23 7.11.53 1.35-.82 2.71-2.12 3.23-1.41.53-2.94.65-4 1.59-1.94 1.65-1.47 4.82 0 6.76 1.88 2.59 5.23 4.06 8.41 3.65 3.23-.35 6.12-2.53 7.41-5.47 2.29-5.59-1.29-11.94-5.88-15.82zm0 0c-1.47-1.23-3.06-2.29-4.65-3.35l-20.05-14.35c-1.53-1.18-3.06-2.29-4.7-3.29-5.12-3.12-12.35-4.47-16.82-.47-2.41 2.18-3.53 5.59-2.82 8.76.65 3.12 3.12 5.82 6.17 6.76 2.35.76 5.47.18 6.35-2.12.53-1.35.18-2.88.29-4.35 0-1.41.88-3.12 2.35-3.06 3.82-.24 7.64 2 9.35 5.47 1.47 3 1.18 6.7-.59 9.53.88.18 1.71.53 2.47 1.12.76.47 1.35 1.18 1.82 1.88 2.06-2.53 5.47-4 8.76-3.59 3.82.47 7.23 3.41 8.23 7.11.53 1.35-.82 2.71-2.12 3.23-1.41.53-2.94.65-4 1.59-1.94 1.65-1.47 4.82 0 6.76 1.88 2.59 5.23 4.06 8.41 3.65 3.23-.35 6.12-2.53 7.41-5.47 2.29-5.59-1.29-11.94-5.88-15.82zm0 0c-1.47-1.23-3.06-2.29-4.65-3.35l-20.05-14.35c-1.53-1.18-3.06-2.29-4.7-3.29-5.12-3.12-12.35-4.47-16.82-.47-2.41 2.18-3.53 5.59-2.82 8.76.65 3.12 3.12 5.82 6.17 6.76 2.35.76 5.47.18 6.35-2.12.53-1.35.18-2.88.29-4.35 0-1.41.88-3.12 2.35-3.06 3.82-.24 7.64 2 9.35 5.47 1.47 3 1.18 6.7-.59 9.53.88.18 1.71.53 2.47 1.12.76.47 1.35 1.18 1.82 1.88 2.06-2.53 5.47-4 8.76-3.59 3.82.47 7.23 3.41 8.23 7.11.53 1.35-.82 2.71-2.12 3.23-1.41.53-2.94.65-4 1.59-1.94 1.65-1.47 4.82 0 6.76 1.88 2.59 5.23 4.06 8.41 3.65 3.23-.35 6.12-2.53 7.41-5.47 2.29-5.59-1.29-11.94-5.88-15.82zm0 0c-1.47-1.23-3.06-2.29-4.65-3.35l-20.05-14.35c-1.53-1.18-3.06-2.29-4.7-3.29-5.12-3.12-12.35-4.47-16.82-.47-2.41 2.18-3.53 5.59-2.82 8.76.65 3.12 3.12 5.82 6.17 6.76 2.35.76 5.47.18 6.35-2.12.53-1.35.18-2.88.29-4.35 0-1.41.88-3.12 2.35-3.06 3.82-.24 7.64 2 9.35 5.47 1.47 3 1.18 6.7-.59 9.53.88.18 1.71.53 2.47 1.12.76.47 1.35 1.18 1.82 1.88 2.06-2.53 5.47-4 8.76-3.59 3.82.47 7.23 3.41 8.23 7.11.53 1.35-.82 2.71-2.12 3.23-1.41.53-2.94.65-4 1.59-1.94 1.65-1.47 4.82 0 6.76 1.88 2.59 5.23 4.06 8.41 3.65 3.23-.35 6.12-2.53 7.41-5.47 2.29-5.59-1.29-11.94-5.88-15.82zm0 0c-1.47-1.23-3.06-2.29-4.65-3.35l-20.05-14.35c-1.53-1.18-3.06-2.29-4.7-3.29-5.12-3.12-12.35-4.47-16.82-.47-2.41 2.18-3.53 5.59-2.82 8.76.65 3.12 3.12 5.82 6.17 6.76 2.35.76 5.47.18 6.35-2.12.53-1.35.18-2.88.29-4.35 0-1.41.88-3.12 2.35-3.06 3.82-.24 7.64 2 9.35 5.47 1.47 3 1.18 6.7-.59 9.53.88.18 1.71.53 2.47 1.12.76.47 1.35 1.18 1.82 1.88 2.06-2.53 5.47-4 8.76-3.59 3.82.47 7.23 3.41 8.23 7.11.53 1.35-.82 2.71-2.12 3.23-1.41.53-2.94.65-4 1.59-1.94 1.65-1.47 4.82 0 6.76 1.88 2.59 5.23 4.06 8.41 3.65 3.23-.35 6.12-2.53 7.41-5.47 2.29-5.59-1.29-11.94-5.88-15.82zm0 0c-1.47-1.23-3.06-2.29-4.65-3.35l-20.05-14.35c-1.53-1.18-3.06-2.29-4.7-3.29-5.12-3.12-12.35-4.47-16.82-.47-2.41 2.18-3.53 5.59-2.82 8.76.65 3.12 3.12 5.82 6.17 6.76 2.35.76 5.47.18 6.35-2.12.53-1.35.18-2.88.29-4.35 0-1.41.88-3.12 2.35-3.06 3.82-.24 7.64 2 9.35 5.47 1.47 3 1.18 6.7-.59 9.53.88.18 1.71.53 2.47 1.12.76.47 1.35 1.18 1.82 1.88 2.06-2.53 5.47-4 8.76-3.59 3.82.47 7.23 3.41 8.23 7.11.53 1.35-.82 2.71-2.12 3.23-1.41.53-2.94.65-4 1.59-1.94 1.65-1.47 4.82 0 6.76 1.88 2.59 5.23 4.06 8.41 3.65 3.23-.35 6.12-2.53 7.41-5.47 2.29-5.59-1.29-11.94-5.88-15.82zm0 0c-1.47-1.23-3.06-2.29-4.65-3.35l-20.05-14.35c-1.53-1.18-3.06-2.29-4.7-3.29-5.12-3.12-12.35-4.47-16.82-.47-2.41 2.18-3.53 5.59-2.82 8.76.65 3.12 3.12 5.82 6.17 6.76 2.35.76 5.47.18 6.35-2.12.53-1.35.18-2.88.29-4.35 0-1.41.88-3.12 2.35-3.06 3.82-.24 7.64 2 9.35 5.47 1.47 3 1.18 6.7-.59 9.53.88.18 1.71.53 2.47 1.12.76.47 1.35 1.18 1.82 1.88 2.06-2.53 5.47-4 8.76-3.59 3.82.47 7.23 3.41 8.23 7.11.53 1.35-.82 2.71-2.12 3.23-1.41.53-2.94.65-4 1.59-1.94 1.65-1.47 4.82 0 6.76 1.88 2.59 5.23 4.06 8.41 3.65 3.23-.35 6.12-2.53 7.41-5.47 2.29-5.59-1.29-11.94-5.88-15.82zm0 0c-1.47-1.23-3.06-2.29-4.65-3.35l-20.05-14.35c-1.53-1.18-3.06-2.29-4.7-3.29-5.12-3.12-12.35-4.47-16.82-.47-2.41 2.18-3.53 5.59-2.82 8.76.65 3.12 3.12 5.82 6.17 6.76 2.35.76 5.47.18 6.35-2.12.53-1.35.18-2.88.29-4.35 0-1.41.88-3.12 2.35-3.06 3.82-.24 7.64 2 9.35 5.47 1.47 3 1.18 6.7-.59 9.53.88.18 1.71.53 2.47 1.12.76.47 1.35 1.18 1.82 1.88 2.06-2.53 5.47-4 8.76-3.59 3.82.47 7.23 3.41 8.23 7.11.53 1.35-.82 2.71-2.12 3.23-1.41.53-2.94.65-4 1.59-1.94 1.65-1.47 4.82 0 6.76 1.88 2.59 5.23 4.06 8.41 3.65 3.23-.35 6.12-2.53 7.41-5.47 2.29-5.59-1.29-11.94-5.88-15.82zm0 0c-1.47-1.23-3.06-2.29-4.65-3.35l-20.05-14.35c-1.53-1.18-3.06-2.29-4.7-3.29-5.12-3.12-12.35-4.47-16.82-.47-2.41 2.18-3.53 5.59-2.82 8.76.65 3.12 3.12 5.82 6.17 6.76 2.35.76 5.47.18 6.35-2.12.53-1.35.18-2.88.29-4.35 0-1.41.88-3.12 2.35-3.06 3.82-.24 7.64 2 9.35 5.47 1.47 3 1.18 6.7-.59 9.53.88.18 1.71.53 2.47 1.12.76.47 1.35 1.18 1.82 1.88 2.06-2.53 5.47-4 8.76-3.59 3.82.47 7.23 3.41 8.23 7.11.53 1.35-.82 2.71-2.12 3.23-1.41.53-2.94.65-4 1.59-1.94 1.65-1.47 4.82 0 6.76 1.88 2.59 5.23 4.06 8.41 3.65 3.23-.35 6.12-2.53 7.41-5.47 2.29-5.59-1.29-11.94-5.88-15.82zm0 0c-1.47-1.23-3.06-2.29-4.65-3.35l-20.05-14.35c-1.53-1.18-3.06-2.29-4.7-3.29-5.12-3.12-12.35-4.47-16.82-.47-2.41 2.18-3.53 5.59-2.82 8.76.65 3.12 3.12 5.82 6.17 6.76 2.35.76 5.47.18 6.35-2.12.53-1.35.18-2.88.29-4.35 0-1.41.88-3.12 2.35-3.06 3.82-.24 7.64 2 9.35 5.47 1.47 3 1.18 6.7-.59 9.53.88.18 1.71.53 2.47 1.12.76.47 1.35 1.18 1.82 1.88 2.06-2.53 5.47-4 8.76-3.59 3.82.47 7.23 3.41 8.23 7.11.53 1.35-.82 2.71-2.12 3.23-1.41.53-2.94.65-4 1.59-1.94 1.65-1.47 4.82 0 6.76 1.88 2.59 5.23 4.06 8.41 3.65 3.23-.35 6.12-2.53 7.41-5.47 2.29-5.59-1.29-11.94-5.88-15.82zm0 0c-1.47-1.23-3.06-2.29-4.65-3.35l-20.05-14.35c-1.53-1.18-3.06-2.29-4.7-3.29-5.12-3.12-12.35-4.47-16.82-.47-2.41 2.18-3.53 5.59-2.82 8.76.65 3.12 3.12 5.82 6.17 6.76 2.35.76 5.47.18 6.35-2.12.53-1.35.18-2.88.29-4.35 0-1.41.88-3.12 2.35-3.06 3.82-.24 7.64 2 9.35 5.47 1.47 3 1.18 6.7-.59 9.53.88.18 1.71.53 2.47 1.12.76.47 1.35 1.18 1.82 1.88 2.06-2.53 5.47-4 8.76-3.59 3.82.47 7.23 3.41 8.23 7.11.53 1.35-.82 2.71-2.12 3.23-1.41.53-2.94.65-4 1.59-1.94 1.65-1.47 4.82 0 6.76 1.88 2.59 5.23 4.06 8.41 3.65 3.23-.35 6.12-2.53 7.41-5.47 2.29-5.59-1.29-11.94-5.88-15.82zm0 0c-1.47-1.23-3.06-2.29-4.65-3.35l-20.05-14.35c-1.53-1.18-3.06-2.29-4.7-3.29-5.12-3.12-12.35-4.47-16.82-.47-2.41 2.18-3.53 5.59-2.82 8.76.65 3.12 3.12 5.82 6.17 6.76 2.35.76 5.47.18 6.35-2.12.53-1.35.18-2.88.29-4.35 0-1.41.88-3.12 2.35-3.06 3.82-.24 7.64 2 9.35 5.47 1.47 3 1.18 6.7-.59 9.53.88.18 1.71.53 2.47 1.12.76.47 1.35 1.18 1.82 1.88 2.06-2.53 5.47-4 8.76-3.59 3.82.47 7.23 3.41 8.23 7.11.53 1.35-.82 2.71-2.12 3.23-1.41.53-2.94.65-4 1.59-1.94 1.65-1.47 4.82 0 6.76 1.88 2.59 5.23 4.06 8.41 3.65 3.23-.35 6.12-2.53 7.41-5.47 2.29-5.59-1.29-11.94-5.88-15.82zm0 0c-1.47-1.23-3.06-2.29-4.65-3.35l-20.05-14.35c-1.53-1.18-3.06-2.29-4.7-3.29-5.12-3.12-12.35-4.47-16.82-.47-2.41 2.18-3.53 5.59-2.82 8.76.65 3.12 3.12 5.82 6.17 6.76 2.35.76 5.47.18 6.35-2.12.53-1.35.18-2.88.29-4.35 0-1.41.88-3.12 2.35-3.06 3.82-.24 7.64 2 9.35 5.47 1.47 3 1.18 6.7-.59 9.53.88.18 1.71.53 2.47 1.12.76.47 1.35 1.18 1.82 1.88 2.06-2.53 5.47-4 8.76-3.59 3.82.47 7.23 3.41 8.23 7.11.53 1.35-.82 2.71-2.12 3.23-1.41.53-2.94.65-4 1.59-1.94 1.65-1.47 4.82 0 6.76 1.88 2.59 5.23 4.06 8.41 3.65 3.23-.35 6.12-2.53 7.41-5.47 2.29-5.59-1.29-11.94-5.88-15.82zm0 0c-1.47-1.23-3.06-2.29-4.65-3.35l-20.05-14.35c-1.53-1.18-3.06-2.29-4.7-3.29-5.12-3.12-12.35-4.47-16.82-.47-2.41 2.18-3.53 5.59-2.82 8.76.65 3.12 3.12 5.82 6.17 6.76 2.35.76 5.47.18 6.35-2.12.53-1.35.18-2.88.29-4.35 0-1.41.88-3.12 2.35-3.06 3.82-.24 7.64 2 9.35 5.47 1.47 3 1.18 6.7-.59 9.53.88.18 1.71.53 2.47 1.12.76.47 1.35 1.18 1.82 1.88 2.06-2.53 5.47-4 8.76-3.59 3.82.47 7.23 3.41 8.23 7.11.53 1.35-.82 2.71-2.12 3.23-1.41.53-2.94.65-4 1.59-1.94 1.65-1.47 4.82 0 6.76 1.88 2.59 5.23 4.06 8.41 3.65 3.23-.35 6.12-2.53 7.41-5.47 2.29-5.59-1.29-11.94-5.88-15.82zm-215.86 171.88v.12c.06-.06.06-.12.06-.18 0 0-.06 0-.06.06zm0 0v.12c.06-.06.06-.12.06-.18 0 0-.06 0-.06.06zm0 0v.12c.06-.06.06-.12.06-.18 0 0-.06 0-.06.06zm0 0v.12c.06-.06.06-.12.06-.18 0 0-.06 0-.06.06zm0 0v.12c.06-.06.06-.12.06-.18 0 0-.06 0-.06.06zm0 0v.12c.06-.06.06-.12.06-.18 0 0-.06 0-.06.06zm0 0v.12c.06-.06.06-.12.06-.18 0 0-.06 0-.06.06zm0 0v.12c.06-.06.06-.12.06-.18 0 0-.06 0-.06.06zm0 0v.12c.06-.06.06-.12.06-.18 0 0-.06 0-.06.06zm0 0v.12c.06-.06.06-.12.06-.18 0 0-.06 0-.06.06zm0 0v.12c.06-.06.06-.12.06-.18 0 0-.06 0-.06.06zm0 0v.12c.06-.06.06-.12.06-.18 0 0-.06 0-.06.06zm0 0v.12c.06-.06.06-.12.06-.18 0 0-.06 0-.06.06zm0 0v.12c.06-.06.06-.12.06-.18 0 0-.06 0-.06.06zm0 0v.12c.06-.06.06-.12.06-.18 0 0-.06 0-.06.06zm0 0v.12c.06-.06.06-.12.06-.18 0 0-.06 0-.06.06zm0 0v.12c.06-.06.06-.12.06-.18 0 0-.06 0-.06.06zm0 0v.12c.06-.06.06-.12.06-.18 0 0-.06 0-.06.06zm-30.52-45.81v88.14l-.06.65c-.06.18-2 25.64 13.29 42.22 9.35 10.17 23.87 15.35 43.22 15.35 32.28 0 59.45 12.58 78.38 35.93v-182.29h-134.82zm116.19 59.21c1.29.94 2.41 2.23 3.23 3.65.35.65.71 1.47.47 2.23-.06.12-.12.29-.24.41.06.29.06.53 0 .82-.06.82-.47 1.71-1.06 2.29.12-.94-.18-1.59-.71-2.23h-.18c-.94-.06-1.76-.59-2.47-1.23-.82-.71-1.47-1.59-2.29-2.35-.76-.71-2-1.06-3.12-1.06-1.06 1.35-2.23 2.65-3.41 3.94-.35.47-.76.94-1.29 1.18-.18.76-.12 1.53.35 2.18-.82-.24-1.53-.82-1.94-1.53-.18-.29-.35-.65-.47-.94h-.06c-.47-.47-.88-1.06-.94-1.71-.12-1.29.29-2.65.94-3.7-1.94-.94-4.06-1.94-6.17-1.47-.88.24-1.65.35-2.53.59h-.12c-.06.06-.18.12-.24.18-1 .71-1.53 2-1.35 3.18-1.65-.18-3.35-1-4.29-2.41q-.06-.06-.12-.18c-.12.06-.29.12-.41.18-.06.06-.12.06-.12.06-1 .59-1.71 1.71-1.76 2.88-1.7-.41-3.29-1.65-3.94-3.29l-.06-.12h-.82c-1.18.06-2.29.94-2.76 2-1.59-1.12-2.59-3-2.47-4.94-.88-.76-1.59-1.65-2.17-2.7-.59 2.29-2.71 3.88-4.59 5.29-2.06 1.53-4.18 3.41-4.35 5.94-.12 1.88 1.18 3.82 2.94 4.47.59.18 1.18.29 1.76.24 1.06-.71 2.12-1.23 3.29-1.65 4.47-1.82 9.59-2.12 14.17-.71 2.23.71 4.35 1.71 6.64 2.06s4.94-.29 6.23-2.18c1.06 3.41-1 7.53-4.35 8.7 1.35 1.88.88 4.7.47 6.94-.47 2.29-1.12 4.59-.71 6.88.59 3.59 3.7 6.12 6.59 8.41 4.94-.71 9.76-2.47 13.94-5.23 1.12-.71 1.88-1.94 3.12-2.47 1.12-.41 2.65-.35 3.41.59.35 0 .71.06 1.06.18.82.29 1.53.88 2 1.59-.88-.35-1.7-.18-2.53.24-.12.71-.47 1.41-1 1.94-.94.94-2.23 1.41-3.53 1.88-.82.24-.94 1.82-.47 2.53.47.65 1.29 1 2.06 1.23.82.24 1.71.59 2.12 1.29.18.24.29.53.29.82.35.29.65.71.88 1.12.41.76.53 1.65.35 2.47-.35-.88-1.18-1.29-2.12-1.53-.12.12-.24.24-.35.29-1.06.65-2.47.47-3.59 0-1.12-.53-2-1.41-2.94-2.29-.41-.41-1.29.12-1.59.59-.29.47-.24 1.18-.12 1.71.18.59.47 1.12.59 1.71.06.35.12.65 0 .94.18.41.23.88.23 1.29.06.82-.23 1.71-.76 2.41.06-1.06-.53-1.71-1.18-2.35-.12 0-.24 0-.29-.06-.65-.12-1.23-.53-1.71-1-1.29-1.12-2.17-2.71-2.59-4.41-.18-.71-1.53-.29-2.06.18-.47.47-.7 1.12-.88 1.82-.18.65-.29 1.35-.71 1.94-.35.47-.76.76-1.35.94-.53.94-.88 1.88-.35 2.94-.76-.41-1.35-1.12-1.65-1.94-.18-.53-.35-1.12-.29-1.71-.24-.18-.41-.47-.53-.76-.47-1.18.06-2.47.59-3.65-6.47.06-7.23 3.18-7.23 3.18-1.06 1.47-3.29 1.94-5 1.35.53-.82.53-1.94.06-2.76-.35-.53-.82-.94-1.41-1.06-1.59.53-3.41-.12-4.59-1.35.82-.47 1.41-1.47 1.35-2.35 0-1-.59-1.76-1.41-2.18h-.12c-1.29.06-2.59-.65-3.41-1.71v-.06c-.24-.35-.47-.71-.65-1.12.59-.06 1.12-.35 1.47-.82v-.06c.06-.12.06-.35.12-.53.06-.94.06-1.88 0-2.82-.06-2.23-.71-4.41-1.59-6.53-1.29 1.59-2.59 3.23-4.29 4.41-1.65 1.23-3.76 2-5.76 1.65h-.06c1.12 1.76 2.65 3.18 4.47 4.12-.29 1.23-1.53 2.12-2.82 1.94 1.65 3.41 1.59 7.94.12 11.53-1.41 3.53-4.41 6.47-8 7.76 1.59 2.35 3.65 4.41 6.17 5.64 2.35 1.18 5.88 2.18 8.47 1.59 3.53-.82 7-2.18 9.94-4.23.59-.41 1.12-.82 1.82-1 .24-.12.53-.18.88-.12.41-.29.94-.47 1.41-.47.82-.12 1.76.06 2.47.53-1.12.06-1.76.76-2.35 1.65-.06.47-.23 1-.53 1.35-.53.82-1.41 1.35-2.18 2-.65.53-.82 1.71-1.29 2.47.82.41 1.65.82 2.41 1.23.7.35 1.53.82 1.76 1.53.47.29.82.76 1 1.18.47.82.59 1.71.41 2.53-.47-1-1.35-1.35-2.35-1.59-.29.18-.59.24-.88.24-1.06.06-2.06-.47-2.94-1.06-.82-.59-1.71-1.23-2.76-1.47-.41-.12-.88-.12-1.23.12-.41.18-.59.71-.29 1.06.59.82 1.18 1.65 1.35 2.59v.59c.41.47.59 1.29.65 2 0 .88-.29 1.76-.82 2.41.06-1.12-.59-1.88-1.41-2.53h-.06c-.82.06-1.65-.53-2.29-1.06-1.29-1-2.47-2.41-4.06-2.82-.76-.18-1.59.18-2.29.65-.71.41-1.24 1-1.82 1.59-.59.47-1.23.94-2 1-.65.82-1.12 1.65-.94 2.65-.65-.53-1.06-1.35-1.12-2.23-.06-.41-.06-.82 0-1.23-.06 0-.06-.06-.12-.12-.24-.53-.12-1.18.18-1.65.23-.53.59-1.12 1-1.53-.18 0-.29-.06-.47-.12-1.7-.29-3.29-.76-5.06-.82-2.06-.06-4.06-.47-6-1.06-1.18 1-2.88 1.35-4.41 1.06.47-1 .29-2.29-.41-3.18-.18-.24-.35-.35-.59-.53-.06.06-.18.06-.23.06-1.29.47-2.82.35-4.18-.24.65-.76.82-1.88.59-2.82-.06-.18-.06-.24-.12-.35-.12-.29-.29-.53-.53-.71-1.53 0-3.06-.76-4.12-1.94 1-.53 1.71-1.65 1.71-2.76 0-.41-.12-.82-.24-1.12-.7-1.53-1.41-2.94-2.53-4.17s-1.59-3.18-1.47-4.88c6.06 1.65 12.76-.94 16.52-5.94-3.41-1.35-6.23-4.17-7.59-7.59-1.35-3.41-1.29-7.41.29-10.7l.06-.29c-4.88 5.47-11.29 10.05-18.64 10.88h-.35c-1.29 1.65-3.23 2.76-5.23 3.06.06-1.35-.47-2.71-1.35-3.65h-.06c-4.88-1.29-9.23-4.53-11-9.23-1-2.82-1.12-5.59-.65-8.35-1.12-1.71-1.65-4-1.53-6.17 1.29.47 2.76.24 3.88-.65 1.53-3.23 3.59-6.17 5.59-8.94 4.47-6.29 8-13.64 3.47-20.93-1.88-3.12-4.82-5.29-7.29-7.94-2.41-2.65-4.47-6.12-3.94-9.7.47-2.94 2.82-5.47 5.64-6.59 2.82-1.06 6.06-.82 8.88.24 3.88 1.47 7.17 4.41 9 8.11.88 1.71 1.65 4.06 1.35 6.12v.53c0 2.18-.94 2-.94 2-3.59-1.18-5.35-5.06-7.7-8-1.47-1.88-3.47-3.59-5.82-3.88-2.41-.29-5.12 1.35-5.29 3.76-.12 1.35.65 2.71 1.65 3.7 2.7 2.76 5.88 4.35 8.17 7.59 1.06 1.47 1.94 3.06 2.53 4.65.18-.41.29-.76.41-1.18.47-1.65.53-3.7-.41-5.23 1.71.88 2.94 3.18 3.06 5.41s-.53 4.41-1.06 6.47c-.12.29-.24.65-.29 1 .59-.53 1.18-1 1.71-1.65 1.18-1.23 2.12-3.12 1.94-4.88 1.18 1.59 1.24 4.12.35 6.23-.88 2.06-2.41 3.7-3.82 5.23-.12.12-.18.24-.29.35v.06c.76-.24 1.47-.41 2.23-.71 1.59-.65 3.23-1.88 3.88-3.53.35 1.94-.71 4.23-2.41 5.7-1.35 1.12-2.88 1.88-4.41 2.53-1.06 4.12-2.94 8-5.47 11.41-1.06 1.41-2.23 2.82-3.29 4.23.12 1.41 1.06 2.65 2.29 3.23-1.41 1.65-3.35 2.88-5.29 3.41-.18 1.35 0 2.76.59 4 1.29 2.76 5.06 3.76 8.11 3.82 3.06.06 6.12-.82 8.88-2.18 2.82-1.29 5.41-3.12 7.7-5.35 4.76-5.94 7.82-13.17 9-20.7-.47-.35-.82-.82-1.23-1.29-.53-.76-.94-1.65-1.18-2.59-.18-1-.24-2 0-2.94.06-.12.06-.24.06-.29.18-1.59.29-3.18.24-4.7-2.12-.65-3.88-2.41-4.7-4.53 1.53-.24 2.94-1.35 3.47-2.82.12-.47.23-.94.18-1.41-1.94-.35-3.53-1.82-4.41-3.59 1.29-.24 2.41-1.29 2.76-2.65.06-.12.06-.24.12-.35-.06 0-.12-.06-.18-.12-1.59-.76-2.76-2.29-3.29-3.94 1-.06 2.06-.59 2.7-1.41.18-.24.35-.53.53-.82v-.06c-.12-.18-.23-.35-.41-.53-.94-1.35-1.23-3.12-1-4.82 1.24.53 2.76.29 3.76-.53l.06-.06c.06-.06.18-.12.29-.24.18-.18.47-.35.7-.53-.23-.06-.59-.06-.82 0-.77 0-1.65.12-2.35-.29-.59-.29-1-.88-1.24-1.53-.18-.65-.23-1.29-.29-1.94.88.41 2 .29 3 .18 1-.18 2-.47 3.06-.29 1 .12 2.18.65 2.35 1.65.23 0 .41-.06.59-.12.82-2.35 3-4.18 5.47-4.82 0 1.06.47 2.06 1.18 2.88 1.47-1.53 3.59-2.29 5.7-2.35-.29 1.35 0 2.76.76 3.82q0 .06.06.06c1.06.29 2.12.76 3.06 1.41.94-.35 1.94.24 2.88.53s1.82.76 2.82 1c.53.18 1.12.24 1.65.47.53.18 1.06.59 1.24 1.12.12.59-.18 1.29-.76 1.41.71 1.18.59 2.76.24 4.18-.29 1.18-2.59 1-3.76.65-1.23-.35-2.53-.88-3.76-.53s-2 1.41-2.53 2.53c-.06.12-.12.24-.18.41 1.29-.59 2.7-.88 4.12-.88 2.12-.06 4.23.35 6.23 1 1.41.47 2.88 1 4.35.88 1.47-.18 3.06-1.18 3.17-2.65.06-.71-.18-1.41-.35-2.06-.12-.76-.18-1.53.24-2.06.47-.59 1.53-.59 1.88 0 1.23 1.94 1.41 4.47.35 6.47-1.06 2.06-3.41 3.29-5.7 2.88-1.65-.35-3-1.47-4.53-2.23-3.18-1.53-7.11-1.18-9.94.82.18.47.53.94.94 1.12.77.29 1.59-.06 2.35-.35.94-.47 1.88-.88 2.94-1s2.17.18 2.82 1c.7.76.65 2.12-.18 2.7-.82.59-1.88.29-2.82.24-1.41-.12-2.88.35-4.29.65-.53.12-1.06.29-1.65.35.12.12.29.24.47.35 3.53 2.06 8.35 1.88 11.7-.53-.06 1.18-.41 2.29-1 3.23 10.47-1.76 20.11-8.11 26.34-16.76-.18-1.29-.53-2.59-.59-3.88s.23-2.71 1.18-3.59c.12-.12.29-.24.41-.29.18-.47.41-.88.71-1.23.59-.76 1.41-1.35 2.41-1.53-.71.76-.82 1.59-.71 2.53.24.06.47.24.65.47.76.88.65 2.18.59 3.35.06 1 .18 1.94.53 2.88.12.35.35.82.65 1.06.35.24 1.18 0 1.41-.41 1.12-1.71 2.47-3.65 4.41-4.12.41-.12.82-.18 1.18-.12h.06c.47-.24 1.06-.29 1.59-.24.82 0 1.7.35 2.35.94-.94-.12-1.71.29-2.29.94 0 .47-.29.94-.59 1.29-.41.47-.88.76-1.41 1.12-.94.71-1.88 1.65-2.59 2.7-.23.47-.53.94-.47 1.47s.53.59 1.06.59c1.65-.06 3.29.24 4.82.88.7.29 1.47.71 1.76 1.41.06.18.12.29.12.47.18.24.35.47.47.65.47.76.71 1.65.59 2.47-.41-.76-1.12-1.12-1.94-1.29-.06.06-.12.06-.12.12-.76.53-1.76.59-2.7.59-1.06-.12-2.18-.35-3.23-.41-1.12-.12-2.23.35-3.06 1.06-.06 1.76-.18 3.47-.23 5.17-.06.65-.06 1.23-.35 1.76v.06c.41.71.88 1.23 1.7 1.41-.82.29-1.7.35-2.53.06-.29-.12-.65-.29-.94-.47-.65 0-1.35-.24-1.82-.71-.94-.88-1.41-2.23-1.59-3.47-2.12.47-4.41 1-5.76 2.71-.53.65-1.06 1.29-1.59 2l-.06.06v.06c-.06.06-.12.18-.12.29-.35 1.18.06 2.47.94 3.29-1.41.94-3.29 1.29-4.88.76h-.18c-.12.12-.18.24-.24.35 0 .06-.06.12-.06.12-.47 1.06-.24 2.41.47 3.35-1.65.76-3.65.76-5.17-.12l-.12-.06c-.12.06-.24.12-.29.24h-.06c0 .06-.06.06-.06.06-.06.06-.18.12-.24.18-.76.71-1.12 1.76-1 2.76 6.82 1.53 14.05 1.29 20.82-.59.65-1.12 1.12-2.35 1.94-3.35.77-1.06 1.82-2 3.18-2.06.12-.06.24-.06.41-.06h.06c.41-.24.88-.41 1.29-.53.94-.24 2-.12 2.88.35-1 .12-1.65.76-2.12 1.53.12.24.18.53.18.82.06 1.12-.88 2.06-1.65 2.94-.53.76-1 1.65-1.35 2.59-.12.41-.29.82-.12 1.23.06.41.88.71 1.29.53 2-.65 4.23-1.29 6.06-.41.35.18.71.29.94.59 0 0 .06 0 .06.06.53.12 1 .41 1.41.76.65.53 1.12 1.35 1.23 2.18-.65-.65-1.47-.76-2.35-.65-.35.41-.82.59-1.29.65-.59.12-1.12.06-1.76 0-1.24-.06-2.53.12-3.71.53-.47.18-1 .35-1.29.82-.29.41.06.82.47 1.18zm-85.67-13.29c.06-.06.06-.12.06-.18 0 0-.06 0-.06.06zm0-.12v.12c.06-.06.06-.12.06-.18 0 0-.06 0-.06.06zm0 0v.12c.06-.06.06-.12.06-.18 0 0-.06 0-.06.06zm0 0v.12c.06-.06.06-.12.06-.18 0 0-.06 0-.06.06zm0 0v.12c.06-.06.06-.12.06-.18 0 0-.06 0-.06.06zm0 0v.12c.06-.06.06-.12.06-.18 0 0-.06 0-.06.06zm0 0v.12c.06-.06.06-.12.06-.18 0 0-.06 0-.06.06zm0 0v.12c.06-.06.06-.12.06-.18 0 0-.06 0-.06.06zm0 0v.12c.06-.06.06-.12.06-.18 0 0-.06 0-.06.06zm0 0v.12c.06-.06.06-.12.06-.18 0 0-.06 0-.06.06zm0 0v.12c.06-.06.06-.12.06-.18 0 0-.06 0-.06.06zm0 0v.12c.06-.06.06-.12.06-.18 0 0-.06 0-.06.06zm0 0v.12c.06-.06.06-.12.06-.18 0 0-.06 0-.06.06zm0 0v.12c.06-.06.06-.12.06-.18 0 0-.06 0-.06.06zm0 0v.12c.06-.06.06-.12.06-.18 0 0-.06 0-.06.06zm0 0v.12c.06-.06.06-.12.06-.18 0 0-.06 0-.06.06zm0 0v.12c.06-.06.06-.12.06-.18 0 0-.06 0-.06.06zm0 0v.12c.06-.06.06-.12.06-.18 0 0-.06 0-.06.06zm0 0v.12c.06-.06.06-.12.06-.18 0 0-.06 0-.06.06z"/><path d="m0 0 14.7 19.58 7.41 9.82c4.65 6.17 8.29 12.76 10.82 19.4 2.35 6.23 3.65 12.41 4.06 18.82.12 1.59.18 3.12.18 4.65v200.04c0 1.18-.06 2.35-.06 3.59-.06 3.47-.12 7.06.18 10.94.65 6.94 2.06 13.58 4.17 19.82 2.88 8.35 7 15.7 12.29 21.93.47.53.94 1.06 1.41 1.65 12.99 14.11 32.11 21.29 56.8 21.29 26.52 0 48.69 10.11 64.09 29.11l4.76 5.88 9.53 11.7 9.53-11.7 4.7-5.88c15.46-18.99 37.69-29.11 64.21-29.11 24.64 0 43.69-7.12 56.63-21.29 18.17-19.7 18.52-46.69 18.11-55.04v-202.93c0-15.29 5.06-29.75 14.99-42.81l7.41-9.82 14.88-19.64zm348.46 21.7c-11.58 15.29-17.46 32.22-17.46 50.22v203.28h-.06c.35 6.12.59 29.69-14.82 46.45-10.58 11.53-26.58 17.35-47.63 17.35-30.4 0-55.86 11.58-73.68 33.63l-4.82 5.82-4.7-5.82c-17.88-22.05-43.34-33.63-73.68-33.63-21.05 0-37.1-5.88-47.69-17.41-15.47-16.76-15.47-40.87-14.82-46.98v-.06h-.06l.06-.29v-202.35c0-1.82-.06-3.59-.24-5.41-.47-7.59-2.06-14.94-4.82-22.34-2.88-7.76-7.06-15.35-12.47-22.46l-7.35-9.82h331.65z"/><path d="m307.54 256.49c-4.22 14.84-14.04 27.42-24.81 38.49-8.17 8.35-17.07 16.12-25.18 24.54-8.17-8.41-17.04-16.19-25.21-24.54-10.77-11.08-20.59-23.65-24.81-38.49s-1.84-32.28 9.15-43.11c10.86-10.71 30.72-11.99 40.88-.73 10.13-11.26 29.99-9.97 40.82.73 10.98 10.83 13.4 28.27 9.18 43.11z"/><path d="m35.58 476.6 6.26-19.36v22.87h-28.04l17.44-47.24h-10.52l-6.92 14.69v-17.94h28.04l-17.61 46.99h11.35z"/><path d="m79.65 429.62v17.86l-6.09-15.11h-9.93v20.2h5.93l4.01-6.01v15.11l-3.84-5.59h-6.09v20.2h10.27l5.76-18.86v22.7h-29.29l3.67-3.17v-44.07l-3.67-3.26h29.29z"/><path d="m88.24 480.11 4.09-3.09v-44.07l-4.09-3.34h18.03l-4.01 2.84v44.4h5.76l5.93-18.53v21.78h-25.7z"/><path d="m154.51 452.48c.28 5.29-.25 9.99-1.59 14.11-.55 1.78-1.32 3.49-2.3 5.13-.97 1.64-2.21 3.11-3.71 4.38-1.5 1.28-3.31 2.3-5.42 3.05-2.12.75-4.59 1.07-7.43.96h-12.02l4.42-3.59v-43.31l-4.67-3.75h11.35c3.89 0 7.37.78 10.43 2.34 1.34.67 2.63 1.54 3.88 2.63 1.26 1.08 2.38 2.46 3.38 4.13s1.84 3.64 2.51 5.93c.67 2.28 1.06 4.95 1.17 8.01zm-15.78 23.03c.67-.39 1.48-.99 2.42-1.79s1.83-2.02 2.67-3.63 1.52-3.74 2.05-6.38.76-6.02.71-10.14c.17-3.17-.06-6.09-.67-8.76-.28-1.17-.62-2.34-1.04-3.51s-.96-2.26-1.63-3.29-1.49-1.96-2.46-2.79c-.98-.84-2.1-1.48-3.38-1.92-.55-.17-.97-.25-1.25-.25h-1.25v43.31c.45.05.89.05 1.34 0 .89-.11 1.72-.39 2.5-.84z"/><path d="m177.21 480.11 3.75-4.34-2.67-13.02h-10.43l-3.42 13.35 4.42 4.01h-15.52l5.85-4.34 11.6-42.06-5.26-4.17h13.02l12.85 46.9 4.84 3.67zm.25-20.45-4.43-17.69-4.34 17.69h8.76z"/><path d="m209.03 429.62h16.86l-3.75 3.42 7.51 27.37 6.43-27.37-4.67-3.42h17.44l-3.75 3.42 7.52 27.37 6.43-27.46-4.68-3.34h14.77l-4.84 3.42-11.52 47.07h-3.84l-10.1-36.89-9.01 36.89h-3.84l-12.85-47.07-4.09-3.42z"/><path d="m294.41 429.62-3.5 2.51v44.4l3.59 3.59h-17.19l3.59-3.42v-44.31l-3.92-2.76h17.44z"/><path d="m315.52 476.77 3.59 3.34h-16.27l4.17-3.5v-44.15l-4.01-2.84h16.11l-3.59 2.84v16.36l10.77-16.44-2.34-2.76h11.35l-3.92 2.76-11.93 18.61 17.03 25.7 4.84 3.42h-19.53l4.42-3-10.68-16.86v16.53z"/><path d="m366.09 429.62-3.5 2.51v44.4l3.59 3.59h-17.19l3.59-3.42v-44.31l-3.92-2.76h17.44z"/></g></svg>