<svg viewBox="0 0 904.29 130.06" xmlns="http://www.w3.org/2000/svg"><g fill="#fff"><path d="m55.9 121.01 16.06-49.69v58.68h-71.96l44.77-121.22h-27l-17.77 37.69v-46.04h71.97l-45.2 120.58z"/><path d="m168.99.43v45.84l-15.64-38.76h-25.49v51.82h15.21l10.28-15.43v38.78l-9.86-14.36h-15.64v51.83h26.35l14.78-48.4v58.26h-75.17l9.42-8.14v-113.09l-9.42-8.35h75.17z"/><path d="m191.04 130 10.49-7.93v-113.08l-10.49-8.56h46.27l-10.28 7.28v113.94h14.77l15.21-47.55v55.9h-65.96z"/><path d="m361.08 59.11c.72 13.57-.65 25.63-4.07 36.2-1.42 4.57-3.39 8.96-5.89 13.16-2.49 4.21-5.67 7.97-9.53 11.25-3.85 3.29-8.49 5.89-13.92 7.82-5.44 1.93-11.78 2.75-19.07 2.46h-30.83l11.34-9.21v-111.15l-11.99-9.64h29.13c9.99 0 18.91 2 26.77 6 3.43 1.71 6.75 3.95 9.95 6.75 3.22 2.78 6.11 6.32 8.67 10.6 2.57 4.28 4.72 9.35 6.43 15.21 1.72 5.85 2.71 12.71 3 20.55zm-40.48 59.11c1.72-.99 3.79-2.53 6.22-4.6 2.42-2.06 4.71-5.18 6.84-9.32 2.15-4.14 3.9-9.59 5.26-16.38 1.35-6.79 1.95-15.46 1.82-26.03.43-8.14-.15-15.62-1.72-22.48-.72-3-1.6-6-2.67-9s-2.46-5.81-4.17-8.45c-1.72-2.64-3.83-5.04-6.32-7.17-2.51-2.15-5.4-3.79-8.69-4.93-1.42-.43-2.49-.65-3.21-.65h-3.21v111.16c1.14.14 2.27.14 3.43 0 2.27-.29 4.42-1 6.41-2.15z"/><path d="m419.34 130 9.64-11.14-6.86-33.41h-26.76l-8.78 34.26 11.34 10.28h-39.84l15-11.14 29.76-107.95-13.48-10.68h33.41l32.98 120.35 12.43 9.43zm.65-52.47-11.36-45.4-11.14 45.4h22.49z"/><path d="m501.01.43h43.27l-9.64 8.78 19.27 70.25 16.49-70.25-11.99-8.78h44.75l-9.64 8.78 19.29 70.25 16.49-70.47-12-8.56h37.91l-12.42 8.78-29.55 120.79h-9.86l-25.92-94.67-23.13 94.67h-9.86l-32.97-120.79z"/><path d="m720.1.43-8.99 6.43v113.93l9.21 9.21h-44.12l9.21-8.78v-113.72l-10.06-7.08h44.75z"/><path d="m774.28 121.44 9.21 8.56h-41.76l10.71-8.99v-113.3l-10.28-7.28h41.34l-9.21 7.28v41.98l27.63-42.19-6-7.08h29.13l-10.06 7.08-30.63 47.75 43.69 65.96 12.42 8.78h-50.11l11.34-7.71-27.41-43.27v42.41z"/><path d="m904.07.43-8.99 6.43v113.93l9.21 9.21h-44.12l9.21-8.78v-113.72l-10.06-7.08h44.75z"/></g></svg>