<svg viewBox="0 0 921.05 408.79" xmlns="http://www.w3.org/2000/svg"><g fill="#fff"><path d="m309.55 61.99c-1.51-1.27-3.14-2.35-4.77-3.44l-20.58-14.73c-1.57-1.21-3.14-2.35-4.83-3.38-5.25-3.2-12.68-4.59-17.26-.48-2.48 2.23-3.62 5.73-2.9 8.99.66 3.2 3.2 5.98 6.34 6.94 2.42.78 5.61.18 6.52-2.17.54-1.39.18-2.96.3-4.47 0-1.45.9-3.2 2.41-3.14 3.92-.24 7.85 2.05 9.6 5.61 1.51 3.08 1.21 6.88-.6 9.78.91.18 1.75.54 2.54 1.15.78.48 1.39 1.21 1.87 1.93 2.11-2.6 5.61-4.1 8.99-3.68 3.92.48 7.43 3.5 8.45 7.3.54 1.39-.85 2.78-2.17 3.32-1.45.54-3.02.66-4.1 1.63-1.99 1.69-1.51 4.95 0 6.94 1.93 2.66 5.37 4.17 8.63 3.74 3.32-.36 6.28-2.6 7.61-5.61 2.35-5.73-1.33-12.25-6.04-16.24zm0 0c-1.51-1.27-3.14-2.35-4.77-3.44l-20.58-14.73c-1.57-1.21-3.14-2.35-4.83-3.38-5.25-3.2-12.68-4.59-17.26-.48-2.48 2.23-3.62 5.73-2.9 8.99.66 3.2 3.2 5.98 6.34 6.94 2.42.78 5.61.18 6.52-2.17.54-1.39.18-2.96.3-4.47 0-1.45.9-3.2 2.41-3.14 3.92-.24 7.85 2.05 9.6 5.61 1.51 3.08 1.21 6.88-.6 9.78.91.18 1.75.54 2.54 1.15.78.48 1.39 1.21 1.87 1.93 2.11-2.6 5.61-4.1 8.99-3.68 3.92.48 7.43 3.5 8.45 7.3.54 1.39-.85 2.78-2.17 3.32-1.45.54-3.02.66-4.1 1.63-1.99 1.69-1.51 4.95 0 6.94 1.93 2.66 5.37 4.17 8.63 3.74 3.32-.36 6.28-2.6 7.61-5.61 2.35-5.73-1.33-12.25-6.04-16.24zm0 0c-1.51-1.27-3.14-2.35-4.77-3.44l-20.58-14.73c-1.57-1.21-3.14-2.35-4.83-3.38-5.25-3.2-12.68-4.59-17.26-.48-2.48 2.23-3.62 5.73-2.9 8.99.66 3.2 3.2 5.98 6.34 6.94 2.42.78 5.61.18 6.52-2.17.54-1.39.18-2.96.3-4.47 0-1.45.9-3.2 2.41-3.14 3.92-.24 7.85 2.05 9.6 5.61 1.51 3.08 1.21 6.88-.6 9.78.91.18 1.75.54 2.54 1.15.78.48 1.39 1.21 1.87 1.93 2.11-2.6 5.61-4.1 8.99-3.68 3.92.48 7.43 3.5 8.45 7.3.54 1.39-.85 2.78-2.17 3.32-1.45.54-3.02.66-4.1 1.63-1.99 1.69-1.51 4.95 0 6.94 1.93 2.66 5.37 4.17 8.63 3.74 3.32-.36 6.28-2.6 7.61-5.61 2.35-5.73-1.33-12.25-6.04-16.24zm0 0c-1.51-1.27-3.14-2.35-4.77-3.44l-20.58-14.73c-1.57-1.21-3.14-2.35-4.83-3.38-5.25-3.2-12.68-4.59-17.26-.48-2.48 2.23-3.62 5.73-2.9 8.99.66 3.2 3.2 5.98 6.34 6.94 2.42.78 5.61.18 6.52-2.17.54-1.39.18-2.96.3-4.47 0-1.45.9-3.2 2.41-3.14 3.92-.24 7.85 2.05 9.6 5.61 1.51 3.08 1.21 6.88-.6 9.78.91.18 1.75.54 2.54 1.15.78.48 1.39 1.21 1.87 1.93 2.11-2.6 5.61-4.1 8.99-3.68 3.92.48 7.43 3.5 8.45 7.3.54 1.39-.85 2.78-2.17 3.32-1.45.54-3.02.66-4.1 1.63-1.99 1.69-1.51 4.95 0 6.94 1.93 2.66 5.37 4.17 8.63 3.74 3.32-.36 6.28-2.6 7.61-5.61 2.35-5.73-1.33-12.25-6.04-16.24zm0 0c-1.51-1.27-3.14-2.35-4.77-3.44l-20.58-14.73c-1.57-1.21-3.14-2.35-4.83-3.38-5.25-3.2-12.68-4.59-17.26-.48-2.48 2.23-3.62 5.73-2.9 8.99.66 3.2 3.2 5.98 6.34 6.94 2.42.78 5.61.18 6.52-2.17.54-1.39.18-2.96.3-4.47 0-1.45.9-3.2 2.41-3.14 3.92-.24 7.85 2.05 9.6 5.61 1.51 3.08 1.21 6.88-.6 9.78.91.18 1.75.54 2.54 1.15.78.48 1.39 1.21 1.87 1.93 2.11-2.6 5.61-4.1 8.99-3.68 3.92.48 7.43 3.5 8.45 7.3.54 1.39-.85 2.78-2.17 3.32-1.45.54-3.02.66-4.1 1.63-1.99 1.69-1.51 4.95 0 6.94 1.93 2.66 5.37 4.17 8.63 3.74 3.32-.36 6.28-2.6 7.61-5.61 2.35-5.73-1.33-12.25-6.04-16.24zm0 0c-1.51-1.27-3.14-2.35-4.77-3.44l-20.58-14.73c-1.57-1.21-3.14-2.35-4.83-3.38-5.25-3.2-12.68-4.59-17.26-.48-2.48 2.23-3.62 5.73-2.9 8.99.66 3.2 3.2 5.98 6.34 6.94 2.42.78 5.61.18 6.52-2.17.54-1.39.18-2.96.3-4.47 0-1.45.9-3.2 2.41-3.14 3.92-.24 7.85 2.05 9.6 5.61 1.51 3.08 1.21 6.88-.6 9.78.91.18 1.75.54 2.54 1.15.78.48 1.39 1.21 1.87 1.93 2.11-2.6 5.61-4.1 8.99-3.68 3.92.48 7.43 3.5 8.45 7.3.54 1.39-.85 2.78-2.17 3.32-1.45.54-3.02.66-4.1 1.63-1.99 1.69-1.51 4.95 0 6.94 1.93 2.66 5.37 4.17 8.63 3.74 3.32-.36 6.28-2.6 7.61-5.61 2.35-5.73-1.33-12.25-6.04-16.24zm0 0c-1.51-1.27-3.14-2.35-4.77-3.44l-20.58-14.73c-1.57-1.21-3.14-2.35-4.83-3.38-5.25-3.2-12.68-4.59-17.26-.48-2.48 2.23-3.62 5.73-2.9 8.99.66 3.2 3.2 5.98 6.34 6.94 2.42.78 5.61.18 6.52-2.17.54-1.39.18-2.96.3-4.47 0-1.45.9-3.2 2.41-3.14 3.92-.24 7.85 2.05 9.6 5.61 1.51 3.08 1.21 6.88-.6 9.78.91.18 1.75.54 2.54 1.15.78.48 1.39 1.21 1.87 1.93 2.11-2.6 5.61-4.1 8.99-3.68 3.92.48 7.43 3.5 8.45 7.3.54 1.39-.85 2.78-2.17 3.32-1.45.54-3.02.66-4.1 1.63-1.99 1.69-1.51 4.95 0 6.94 1.93 2.66 5.37 4.17 8.63 3.74 3.32-.36 6.28-2.6 7.61-5.61 2.35-5.73-1.33-12.25-6.04-16.24zm0 0c-1.51-1.27-3.14-2.35-4.77-3.44l-20.58-14.73c-1.57-1.21-3.14-2.35-4.83-3.38-5.25-3.2-12.68-4.59-17.26-.48-2.48 2.23-3.62 5.73-2.9 8.99.66 3.2 3.2 5.98 6.34 6.94 2.42.78 5.61.18 6.52-2.17.54-1.39.18-2.96.3-4.47 0-1.45.9-3.2 2.41-3.14 3.92-.24 7.85 2.05 9.6 5.61 1.51 3.08 1.21 6.88-.6 9.78.91.18 1.75.54 2.54 1.15.78.48 1.39 1.21 1.87 1.93 2.11-2.6 5.61-4.1 8.99-3.68 3.92.48 7.43 3.5 8.45 7.3.54 1.39-.85 2.78-2.17 3.32-1.45.54-3.02.66-4.1 1.63-1.99 1.69-1.51 4.95 0 6.94 1.93 2.66 5.37 4.17 8.63 3.74 3.32-.36 6.28-2.6 7.61-5.61 2.35-5.73-1.33-12.25-6.04-16.24zm0 0c-1.51-1.27-3.14-2.35-4.77-3.44l-20.58-14.73c-1.57-1.21-3.14-2.35-4.83-3.38-5.25-3.2-12.68-4.59-17.26-.48-2.48 2.23-3.62 5.73-2.9 8.99.66 3.2 3.2 5.98 6.34 6.94 2.42.78 5.61.18 6.52-2.17.54-1.39.18-2.96.3-4.47 0-1.45.9-3.2 2.41-3.14 3.92-.24 7.85 2.05 9.6 5.61 1.51 3.08 1.21 6.88-.6 9.78.91.18 1.75.54 2.54 1.15.78.48 1.39 1.21 1.87 1.93 2.11-2.6 5.61-4.1 8.99-3.68 3.92.48 7.43 3.5 8.45 7.3.54 1.39-.85 2.78-2.17 3.32-1.45.54-3.02.66-4.1 1.63-1.99 1.69-1.51 4.95 0 6.94 1.93 2.66 5.37 4.17 8.63 3.74 3.32-.36 6.28-2.6 7.61-5.61 2.35-5.73-1.33-12.25-6.04-16.24zm0 0c-1.51-1.27-3.14-2.35-4.77-3.44l-20.58-14.73c-1.57-1.21-3.14-2.35-4.83-3.38-5.25-3.2-12.68-4.59-17.26-.48-2.48 2.23-3.62 5.73-2.9 8.99.66 3.2 3.2 5.98 6.34 6.94 2.42.78 5.61.18 6.52-2.17.54-1.39.18-2.96.3-4.47 0-1.45.9-3.2 2.41-3.14 3.92-.24 7.85 2.05 9.6 5.61 1.51 3.08 1.21 6.88-.6 9.78.91.18 1.75.54 2.54 1.15.78.48 1.39 1.21 1.87 1.93 2.11-2.6 5.61-4.1 8.99-3.68 3.92.48 7.43 3.5 8.45 7.3.54 1.39-.85 2.78-2.17 3.32-1.45.54-3.02.66-4.1 1.63-1.99 1.69-1.51 4.95 0 6.94 1.93 2.66 5.37 4.17 8.63 3.74 3.32-.36 6.28-2.6 7.61-5.61 2.35-5.73-1.33-12.25-6.04-16.24zm0 0c-1.51-1.27-3.14-2.35-4.77-3.44l-20.58-14.73c-1.57-1.21-3.14-2.35-4.83-3.38-5.25-3.2-12.68-4.59-17.26-.48-2.48 2.23-3.62 5.73-2.9 8.99.66 3.2 3.2 5.98 6.34 6.94 2.42.78 5.61.18 6.52-2.17.54-1.39.18-2.96.3-4.47 0-1.45.9-3.2 2.41-3.14 3.92-.24 7.85 2.05 9.6 5.61 1.51 3.08 1.21 6.88-.6 9.78.91.18 1.75.54 2.54 1.15.78.48 1.39 1.21 1.87 1.93 2.11-2.6 5.61-4.1 8.99-3.68 3.92.48 7.43 3.5 8.45 7.3.54 1.39-.85 2.78-2.17 3.32-1.45.54-3.02.66-4.1 1.63-1.99 1.69-1.51 4.95 0 6.94 1.93 2.66 5.37 4.17 8.63 3.74 3.32-.36 6.28-2.6 7.61-5.61 2.35-5.73-1.33-12.25-6.04-16.24zm0 0c-1.51-1.27-3.14-2.35-4.77-3.44l-20.58-14.73c-1.57-1.21-3.14-2.35-4.83-3.38-5.25-3.2-12.68-4.59-17.26-.48-2.48 2.23-3.62 5.73-2.9 8.99.66 3.2 3.2 5.98 6.34 6.94 2.42.78 5.61.18 6.52-2.17.54-1.39.18-2.96.3-4.47 0-1.45.9-3.2 2.41-3.14 3.92-.24 7.85 2.05 9.6 5.61 1.51 3.08 1.21 6.88-.6 9.78.91.18 1.75.54 2.54 1.15.78.48 1.39 1.21 1.87 1.93 2.11-2.6 5.61-4.1 8.99-3.68 3.92.48 7.43 3.5 8.45 7.3.54 1.39-.85 2.78-2.17 3.32-1.45.54-3.02.66-4.1 1.63-1.99 1.69-1.51 4.95 0 6.94 1.93 2.66 5.37 4.17 8.63 3.74 3.32-.36 6.28-2.6 7.61-5.61 2.35-5.73-1.33-12.25-6.04-16.24zm0 0c-1.51-1.27-3.14-2.35-4.77-3.44l-20.58-14.73c-1.57-1.21-3.14-2.35-4.83-3.38-5.25-3.2-12.68-4.59-17.26-.48-2.48 2.23-3.62 5.73-2.9 8.99.66 3.2 3.2 5.98 6.34 6.94 2.42.78 5.61.18 6.52-2.17.54-1.39.18-2.96.3-4.47 0-1.45.9-3.2 2.41-3.14 3.92-.24 7.85 2.05 9.6 5.61 1.51 3.08 1.21 6.88-.6 9.78.91.18 1.75.54 2.54 1.15.78.48 1.39 1.21 1.87 1.93 2.11-2.6 5.61-4.1 8.99-3.68 3.92.48 7.43 3.5 8.45 7.3.54 1.39-.85 2.78-2.17 3.32-1.45.54-3.02.66-4.1 1.63-1.99 1.69-1.51 4.95 0 6.94 1.93 2.66 5.37 4.17 8.63 3.74 3.32-.36 6.28-2.6 7.61-5.61 2.35-5.73-1.33-12.25-6.04-16.24zm0 0c-1.51-1.27-3.14-2.35-4.77-3.44l-20.58-14.73c-1.57-1.21-3.14-2.35-4.83-3.38-5.25-3.2-12.68-4.59-17.26-.48-2.48 2.23-3.62 5.73-2.9 8.99.66 3.2 3.2 5.98 6.34 6.94 2.42.78 5.61.18 6.52-2.17.54-1.39.18-2.96.3-4.47 0-1.45.9-3.2 2.41-3.14 3.92-.24 7.85 2.05 9.6 5.61 1.51 3.08 1.21 6.88-.6 9.78.91.18 1.75.54 2.54 1.15.78.48 1.39 1.21 1.87 1.93 2.11-2.6 5.61-4.1 8.99-3.68 3.92.48 7.43 3.5 8.45 7.3.54 1.39-.85 2.78-2.17 3.32-1.45.54-3.02.66-4.1 1.63-1.99 1.69-1.51 4.95 0 6.94 1.93 2.66 5.37 4.17 8.63 3.74 3.32-.36 6.28-2.6 7.61-5.61 2.35-5.73-1.33-12.25-6.04-16.24zm0 0c-1.51-1.27-3.14-2.35-4.77-3.44l-20.58-14.73c-1.57-1.21-3.14-2.35-4.83-3.38-5.25-3.2-12.68-4.59-17.26-.48-2.48 2.23-3.62 5.73-2.9 8.99.66 3.2 3.2 5.98 6.34 6.94 2.42.78 5.61.18 6.52-2.17.54-1.39.18-2.96.3-4.47 0-1.45.9-3.2 2.41-3.14 3.92-.24 7.85 2.05 9.6 5.61 1.51 3.08 1.21 6.88-.6 9.78.91.18 1.75.54 2.54 1.15.78.48 1.39 1.21 1.87 1.93 2.11-2.6 5.61-4.1 8.99-3.68 3.92.48 7.43 3.5 8.45 7.3.54 1.39-.85 2.78-2.17 3.32-1.45.54-3.02.66-4.1 1.63-1.99 1.69-1.51 4.95 0 6.94 1.93 2.66 5.37 4.17 8.63 3.74 3.32-.36 6.28-2.6 7.61-5.61 2.35-5.73-1.33-12.25-6.04-16.24zm0 0c-1.51-1.27-3.14-2.35-4.77-3.44l-20.58-14.73c-1.57-1.21-3.14-2.35-4.83-3.38-5.25-3.2-12.68-4.59-17.26-.48-2.48 2.23-3.62 5.73-2.9 8.99.66 3.2 3.2 5.98 6.34 6.94 2.42.78 5.61.18 6.52-2.17.54-1.39.18-2.96.3-4.47 0-1.45.9-3.2 2.41-3.14 3.92-.24 7.85 2.05 9.6 5.61 1.51 3.08 1.21 6.88-.6 9.78.91.18 1.75.54 2.54 1.15.78.48 1.39 1.21 1.87 1.93 2.11-2.6 5.61-4.1 8.99-3.68 3.92.48 7.43 3.5 8.45 7.3.54 1.39-.85 2.78-2.17 3.32-1.45.54-3.02.66-4.1 1.63-1.99 1.69-1.51 4.95 0 6.94 1.93 2.66 5.37 4.17 8.63 3.74 3.32-.36 6.28-2.6 7.61-5.61 2.35-5.73-1.33-12.25-6.04-16.24zm0 0c-1.51-1.27-3.14-2.35-4.77-3.44l-20.58-14.73c-1.57-1.21-3.14-2.35-4.83-3.38-5.25-3.2-12.68-4.59-17.26-.48-2.48 2.23-3.62 5.73-2.9 8.99.66 3.2 3.2 5.98 6.34 6.94 2.42.78 5.61.18 6.52-2.17.54-1.39.18-2.96.3-4.47 0-1.45.9-3.2 2.41-3.14 3.92-.24 7.85 2.05 9.6 5.61 1.51 3.08 1.21 6.88-.6 9.78.91.18 1.75.54 2.54 1.15.78.48 1.39 1.21 1.87 1.93 2.11-2.6 5.61-4.1 8.99-3.68 3.92.48 7.43 3.5 8.45 7.3.54 1.39-.85 2.78-2.17 3.32-1.45.54-3.02.66-4.1 1.63-1.99 1.69-1.51 4.95 0 6.94 1.93 2.66 5.37 4.17 8.63 3.74 3.32-.36 6.28-2.6 7.61-5.61 2.35-5.73-1.33-12.25-6.04-16.24zm0 0c-1.51-1.27-3.14-2.35-4.77-3.44l-20.58-14.73c-1.57-1.21-3.14-2.35-4.83-3.38-5.25-3.2-12.68-4.59-17.26-.48-2.48 2.23-3.62 5.73-2.9 8.99.66 3.2 3.2 5.98 6.34 6.94 2.42.78 5.61.18 6.52-2.17.54-1.39.18-2.96.3-4.47 0-1.45.9-3.2 2.41-3.14 3.92-.24 7.85 2.05 9.6 5.61 1.51 3.08 1.21 6.88-.6 9.78.91.18 1.75.54 2.54 1.15.78.48 1.39 1.21 1.87 1.93 2.11-2.6 5.61-4.1 8.99-3.68 3.92.48 7.43 3.5 8.45 7.3.54 1.39-.85 2.78-2.17 3.32-1.45.54-3.02.66-4.1 1.63-1.99 1.69-1.51 4.95 0 6.94 1.93 2.66 5.37 4.17 8.63 3.74 3.32-.36 6.28-2.6 7.61-5.61 2.35-5.73-1.33-12.25-6.04-16.24zm0 0c-1.51-1.27-3.14-2.35-4.77-3.44l-20.58-14.73c-1.57-1.21-3.14-2.35-4.83-3.38-5.25-3.2-12.68-4.59-17.26-.48-2.48 2.23-3.62 5.73-2.9 8.99.66 3.2 3.2 5.98 6.34 6.94 2.42.78 5.61.18 6.52-2.17.54-1.39.18-2.96.3-4.47 0-1.45.9-3.2 2.41-3.14 3.92-.24 7.85 2.05 9.6 5.61 1.51 3.08 1.21 6.88-.6 9.78.91.18 1.75.54 2.54 1.15.78.48 1.39 1.21 1.87 1.93 2.11-2.6 5.61-4.1 8.99-3.68 3.92.48 7.43 3.5 8.45 7.3.54 1.39-.85 2.78-2.17 3.32-1.45.54-3.02.66-4.1 1.63-1.99 1.69-1.51 4.95 0 6.94 1.93 2.66 5.37 4.17 8.63 3.74 3.32-.36 6.28-2.6 7.61-5.61 2.35-5.73-1.33-12.25-6.04-16.24zm0 0c-1.51-1.27-3.14-2.35-4.77-3.44l-20.58-14.73c-1.57-1.21-3.14-2.35-4.83-3.38-5.25-3.2-12.68-4.59-17.26-.48-2.48 2.23-3.62 5.73-2.9 8.99.66 3.2 3.2 5.98 6.34 6.94 2.42.78 5.61.18 6.52-2.17.54-1.39.18-2.96.3-4.47 0-1.45.9-3.2 2.41-3.14 3.92-.24 7.85 2.05 9.6 5.61 1.51 3.08 1.21 6.88-.6 9.78.91.18 1.75.54 2.54 1.15.78.48 1.39 1.21 1.87 1.93 2.11-2.6 5.61-4.1 8.99-3.68 3.92.48 7.43 3.5 8.45 7.3.54 1.39-.85 2.78-2.17 3.32-1.45.54-3.02.66-4.1 1.63-1.99 1.69-1.51 4.95 0 6.94 1.93 2.66 5.37 4.17 8.63 3.74 3.32-.36 6.28-2.6 7.61-5.61 2.35-5.73-1.33-12.25-6.04-16.24zm-114.51-43.52v24.69h-143.91c2.78 7.42 4.71 15.69 5.31 24.75h138.6v24.69h-138.42v24.75h138.42v24.69h-138.42v24.75h138.42v24.63h138.41v-117.59c0-23.3 8.99-41.89 19.26-55.35h-157.67zm131.23 59.52c-3.14 8.03-11.47 13.58-20.1 13.4-8.51-.12-16.66-6.1-19.5-14.25-.18-.66-.42-1.33-.6-2.11l-3.38 4.83 1.81 1.33c1.45 1.03 1.75 2.96.72 4.41-.97 1.39-2.96 1.75-4.35.72l-1.87-1.39-10.2 14.25 1.93 1.39c1.39 1.03 1.75 3.02.72 4.41s-2.96 1.75-4.41.72l-1.93-1.33-14.97 20.95 1.93 1.39c1.39.97 1.75 2.9.73 4.35-1.03 1.45-3.02 1.75-4.41.72l-.6-.42c.85.6 1.03 1.75.42 2.6-.6.85-1.75 1.03-2.6.42l-1.33-.91-3.2 4.47.12.12 1.09-1.51 27.04 19.32-9.36 13.1-5.37-3.86 5.67-7.97-7.91-5.61-1.87 2.54 5.31 3.8-3.8 5.37-11.29-8.03 5.67-7.97-2.17-1.57-13.28 18.53 2.11 1.51 5.61-7.91 11.29 8.03-3.8 5.37-5.31-3.8-1.87 2.6 7.97 5.67 5.61-7.91 5.37 3.8-9.3 13.04-4.77-3.38-.6-.42-21.67-15.51-2.41 3.38c1.39 1.33 1.69 3.5.48 5.19-1.09 1.51-2.66 2.41-4.35 2.72-1.75.3-3.56-.06-5.07-1.15l-6.1-4.41c-3.02-2.11-3.74-6.34-1.57-9.36 1.21-1.63 3.38-2.17 5.07-1.21l25.17-35.19-1.27-.97c-.85-.54-1.09-1.75-.42-2.6.6-.85 1.75-1.03 2.6-.36l-.66-.48c-1.39-1.03-1.75-3.02-.66-4.41.97-1.45 2.96-1.75 4.35-.72l1.93 1.33 14.97-20.95-1.93-1.33c-1.39-1.03-1.69-3.02-.72-4.41 1.03-1.45 3.02-1.75 4.41-.72l1.93 1.33 10.14-14.19-1.93-1.45c-1.39-.97-1.75-2.96-.72-4.41.97-1.33 2.96-1.69 4.41-.72l1.93 1.45 3.44-4.83c-.72.06-1.51.12-2.23.12-8.57 0-16.84-5.8-19.74-13.88-2.96-8.03-.36-17.75 6.16-23.3s18.05-5.37 25.53-1.21l34.77 24.93c6.4 5.67 10.38 16.6 7.18 24.51zm-16.72-16c-1.51-1.27-3.14-2.35-4.77-3.44l-20.58-14.73c-1.57-1.21-3.14-2.35-4.83-3.38-5.25-3.2-12.68-4.59-17.26-.48-2.48 2.23-3.62 5.73-2.9 8.99.66 3.2 3.2 5.98 6.34 6.94 2.42.78 5.61.18 6.52-2.17.54-1.39.18-2.96.3-4.47 0-1.45.9-3.2 2.41-3.14 3.92-.24 7.85 2.05 9.6 5.61 1.51 3.08 1.21 6.88-.6 9.78.91.18 1.75.54 2.54 1.15.78.48 1.39 1.21 1.87 1.93 2.11-2.6 5.61-4.1 8.99-3.68 3.92.48 7.43 3.5 8.45 7.3.54 1.39-.85 2.78-2.17 3.32-1.45.54-3.02.66-4.1 1.63-1.99 1.69-1.51 4.95 0 6.94 1.93 2.66 5.37 4.17 8.63 3.74 3.32-.36 6.28-2.6 7.61-5.61 2.35-5.73-1.33-12.25-6.04-16.24zm0 0c-1.51-1.27-3.14-2.35-4.77-3.44l-20.58-14.73c-1.57-1.21-3.14-2.35-4.83-3.38-5.25-3.2-12.68-4.59-17.26-.48-2.48 2.23-3.62 5.73-2.9 8.99.66 3.2 3.2 5.98 6.34 6.94 2.42.78 5.61.18 6.52-2.17.54-1.39.18-2.96.3-4.47 0-1.45.9-3.2 2.41-3.14 3.92-.24 7.85 2.05 9.6 5.61 1.51 3.08 1.21 6.88-.6 9.78.91.18 1.75.54 2.54 1.15.78.48 1.39 1.21 1.87 1.93 2.11-2.6 5.61-4.1 8.99-3.68 3.92.48 7.43 3.5 8.45 7.3.54 1.39-.85 2.78-2.17 3.32-1.45.54-3.02.66-4.1 1.63-1.99 1.69-1.51 4.95 0 6.94 1.93 2.66 5.37 4.17 8.63 3.74 3.32-.36 6.28-2.6 7.61-5.61 2.35-5.73-1.33-12.25-6.04-16.24zm0 0c-1.51-1.27-3.14-2.35-4.77-3.44l-20.58-14.73c-1.57-1.21-3.14-2.35-4.83-3.38-5.25-3.2-12.68-4.59-17.26-.48-2.48 2.23-3.62 5.73-2.9 8.99.66 3.2 3.2 5.98 6.34 6.94 2.42.78 5.61.18 6.52-2.17.54-1.39.18-2.96.3-4.47 0-1.45.9-3.2 2.41-3.14 3.92-.24 7.85 2.05 9.6 5.61 1.51 3.08 1.21 6.88-.6 9.78.91.18 1.75.54 2.54 1.15.78.48 1.39 1.21 1.87 1.93 2.11-2.6 5.61-4.1 8.99-3.68 3.92.48 7.43 3.5 8.45 7.3.54 1.39-.85 2.78-2.17 3.32-1.45.54-3.02.66-4.1 1.63-1.99 1.69-1.51 4.95 0 6.94 1.93 2.66 5.37 4.17 8.63 3.74 3.32-.36 6.28-2.6 7.61-5.61 2.35-5.73-1.33-12.25-6.04-16.24zm0 0c-1.51-1.27-3.14-2.35-4.77-3.44l-20.58-14.73c-1.57-1.21-3.14-2.35-4.83-3.38-5.25-3.2-12.68-4.59-17.26-.48-2.48 2.23-3.62 5.73-2.9 8.99.66 3.2 3.2 5.98 6.34 6.94 2.42.78 5.61.18 6.52-2.17.54-1.39.18-2.96.3-4.47 0-1.45.9-3.2 2.41-3.14 3.92-.24 7.85 2.05 9.6 5.61 1.51 3.08 1.21 6.88-.6 9.78.91.18 1.75.54 2.54 1.15.78.48 1.39 1.21 1.87 1.93 2.11-2.6 5.61-4.1 8.99-3.68 3.92.48 7.43 3.5 8.45 7.3.54 1.39-.85 2.78-2.17 3.32-1.45.54-3.02.66-4.1 1.63-1.99 1.69-1.51 4.95 0 6.94 1.93 2.66 5.37 4.17 8.63 3.74 3.32-.36 6.28-2.6 7.61-5.61 2.35-5.73-1.33-12.25-6.04-16.24zm0 0c-1.51-1.27-3.14-2.35-4.77-3.44l-20.58-14.73c-1.57-1.21-3.14-2.35-4.83-3.38-5.25-3.2-12.68-4.59-17.26-.48-2.48 2.23-3.62 5.73-2.9 8.99.66 3.2 3.2 5.98 6.34 6.94 2.42.78 5.61.18 6.52-2.17.54-1.39.18-2.96.3-4.47 0-1.45.9-3.2 2.41-3.14 3.92-.24 7.85 2.05 9.6 5.61 1.51 3.08 1.21 6.88-.6 9.78.91.18 1.75.54 2.54 1.15.78.48 1.39 1.21 1.87 1.93 2.11-2.6 5.61-4.1 8.99-3.68 3.92.48 7.43 3.5 8.45 7.3.54 1.39-.85 2.78-2.17 3.32-1.45.54-3.02.66-4.1 1.63-1.99 1.69-1.51 4.95 0 6.94 1.93 2.66 5.37 4.17 8.63 3.74 3.32-.36 6.28-2.6 7.61-5.61 2.35-5.73-1.33-12.25-6.04-16.24zm0 0c-1.51-1.27-3.14-2.35-4.77-3.44l-20.58-14.73c-1.57-1.21-3.14-2.35-4.83-3.38-5.25-3.2-12.68-4.59-17.26-.48-2.48 2.23-3.62 5.73-2.9 8.99.66 3.2 3.2 5.98 6.34 6.94 2.42.78 5.61.18 6.52-2.17.54-1.39.18-2.96.3-4.47 0-1.45.9-3.2 2.41-3.14 3.92-.24 7.85 2.05 9.6 5.61 1.51 3.08 1.21 6.88-.6 9.78.91.18 1.75.54 2.54 1.15.78.48 1.39 1.21 1.87 1.93 2.11-2.6 5.61-4.1 8.99-3.68 3.92.48 7.43 3.5 8.45 7.3.54 1.39-.85 2.78-2.17 3.32-1.45.54-3.02.66-4.1 1.63-1.99 1.69-1.51 4.95 0 6.94 1.93 2.66 5.37 4.17 8.63 3.74 3.32-.36 6.28-2.6 7.61-5.61 2.35-5.73-1.33-12.25-6.04-16.24zm0 0c-1.51-1.27-3.14-2.35-4.77-3.44l-20.58-14.73c-1.57-1.21-3.14-2.35-4.83-3.38-5.25-3.2-12.68-4.59-17.26-.48-2.48 2.23-3.62 5.73-2.9 8.99.66 3.2 3.2 5.98 6.34 6.94 2.42.78 5.61.18 6.52-2.17.54-1.39.18-2.96.3-4.47 0-1.45.9-3.2 2.41-3.14 3.92-.24 7.85 2.05 9.6 5.61 1.51 3.08 1.21 6.88-.6 9.78.91.18 1.75.54 2.54 1.15.78.48 1.39 1.21 1.87 1.93 2.11-2.6 5.61-4.1 8.99-3.68 3.92.48 7.43 3.5 8.45 7.3.54 1.39-.85 2.78-2.17 3.32-1.45.54-3.02.66-4.1 1.63-1.99 1.69-1.51 4.95 0 6.94 1.93 2.66 5.37 4.17 8.63 3.74 3.32-.36 6.28-2.6 7.61-5.61 2.35-5.73-1.33-12.25-6.04-16.24zm0 0c-1.51-1.27-3.14-2.35-4.77-3.44l-20.58-14.73c-1.57-1.21-3.14-2.35-4.83-3.38-5.25-3.2-12.68-4.59-17.26-.48-2.48 2.23-3.62 5.73-2.9 8.99.66 3.2 3.2 5.98 6.34 6.94 2.42.78 5.61.18 6.52-2.17.54-1.39.18-2.96.3-4.47 0-1.45.9-3.2 2.41-3.14 3.92-.24 7.85 2.05 9.6 5.61 1.51 3.08 1.21 6.88-.6 9.78.91.18 1.75.54 2.54 1.15.78.48 1.39 1.21 1.87 1.93 2.11-2.6 5.61-4.1 8.99-3.68 3.92.48 7.43 3.5 8.45 7.3.54 1.39-.85 2.78-2.17 3.32-1.45.54-3.02.66-4.1 1.63-1.99 1.69-1.51 4.95 0 6.94 1.93 2.66 5.37 4.17 8.63 3.74 3.32-.36 6.28-2.6 7.61-5.61 2.35-5.73-1.33-12.25-6.04-16.24zm0 0c-1.51-1.27-3.14-2.35-4.77-3.44l-20.58-14.73c-1.57-1.21-3.14-2.35-4.83-3.38-5.25-3.2-12.68-4.59-17.26-.48-2.48 2.23-3.62 5.73-2.9 8.99.66 3.2 3.2 5.98 6.34 6.94 2.42.78 5.61.18 6.52-2.17.54-1.39.18-2.96.3-4.47 0-1.45.9-3.2 2.41-3.14 3.92-.24 7.85 2.05 9.6 5.61 1.51 3.08 1.21 6.88-.6 9.78.91.18 1.75.54 2.54 1.15.78.48 1.39 1.21 1.87 1.93 2.11-2.6 5.61-4.1 8.99-3.68 3.92.48 7.43 3.5 8.45 7.3.54 1.39-.85 2.78-2.17 3.32-1.45.54-3.02.66-4.1 1.63-1.99 1.69-1.51 4.95 0 6.94 1.93 2.66 5.37 4.17 8.63 3.74 3.32-.36 6.28-2.6 7.61-5.61 2.35-5.73-1.33-12.25-6.04-16.24zm0 0c-1.51-1.27-3.14-2.35-4.77-3.44l-20.58-14.73c-1.57-1.21-3.14-2.35-4.83-3.38-5.25-3.2-12.68-4.59-17.26-.48-2.48 2.23-3.62 5.73-2.9 8.99.66 3.2 3.2 5.98 6.34 6.94 2.42.78 5.61.18 6.52-2.17.54-1.39.18-2.96.3-4.47 0-1.45.9-3.2 2.41-3.14 3.92-.24 7.85 2.05 9.6 5.61 1.51 3.08 1.21 6.88-.6 9.78.91.18 1.75.54 2.54 1.15.78.48 1.39 1.21 1.87 1.93 2.11-2.6 5.61-4.1 8.99-3.68 3.92.48 7.43 3.5 8.45 7.3.54 1.39-.85 2.78-2.17 3.32-1.45.54-3.02.66-4.1 1.63-1.99 1.69-1.51 4.95 0 6.94 1.93 2.66 5.37 4.17 8.63 3.74 3.32-.36 6.28-2.6 7.61-5.61 2.35-5.73-1.33-12.25-6.04-16.24zm0 0c-1.51-1.27-3.14-2.35-4.77-3.44l-20.58-14.73c-1.57-1.21-3.14-2.35-4.83-3.38-5.25-3.2-12.68-4.59-17.26-.48-2.48 2.23-3.62 5.73-2.9 8.99.66 3.2 3.2 5.98 6.34 6.94 2.42.78 5.61.18 6.52-2.17.54-1.39.18-2.96.3-4.47 0-1.45.9-3.2 2.41-3.14 3.92-.24 7.85 2.05 9.6 5.61 1.51 3.08 1.21 6.88-.6 9.78.91.18 1.75.54 2.54 1.15.78.48 1.39 1.21 1.87 1.93 2.11-2.6 5.61-4.1 8.99-3.68 3.92.48 7.43 3.5 8.45 7.3.54 1.39-.85 2.78-2.17 3.32-1.45.54-3.02.66-4.1 1.63-1.99 1.69-1.51 4.95 0 6.94 1.93 2.66 5.37 4.17 8.63 3.74 3.32-.36 6.28-2.6 7.61-5.61 2.35-5.73-1.33-12.25-6.04-16.24zm0 0c-1.51-1.27-3.14-2.35-4.77-3.44l-20.58-14.73c-1.57-1.21-3.14-2.35-4.83-3.38-5.25-3.2-12.68-4.59-17.26-.48-2.48 2.23-3.62 5.73-2.9 8.99.66 3.2 3.2 5.98 6.34 6.94 2.42.78 5.61.18 6.52-2.17.54-1.39.18-2.96.3-4.47 0-1.45.9-3.2 2.41-3.14 3.92-.24 7.85 2.05 9.6 5.61 1.51 3.08 1.21 6.88-.6 9.78.91.18 1.75.54 2.54 1.15.78.48 1.39 1.21 1.87 1.93 2.11-2.6 5.61-4.1 8.99-3.68 3.92.48 7.43 3.5 8.45 7.3.54 1.39-.85 2.78-2.17 3.32-1.45.54-3.02.66-4.1 1.63-1.99 1.69-1.51 4.95 0 6.94 1.93 2.66 5.37 4.17 8.63 3.74 3.32-.36 6.28-2.6 7.61-5.61 2.35-5.73-1.33-12.25-6.04-16.24zm0 0c-1.51-1.27-3.14-2.35-4.77-3.44l-20.58-14.73c-1.57-1.21-3.14-2.35-4.83-3.38-5.25-3.2-12.68-4.59-17.26-.48-2.48 2.23-3.62 5.73-2.9 8.99.66 3.2 3.2 5.98 6.34 6.94 2.42.78 5.61.18 6.52-2.17.54-1.39.18-2.96.3-4.47 0-1.45.9-3.2 2.41-3.14 3.92-.24 7.85 2.05 9.6 5.61 1.51 3.08 1.21 6.88-.6 9.78.91.18 1.75.54 2.54 1.15.78.48 1.39 1.21 1.87 1.93 2.11-2.6 5.61-4.1 8.99-3.68 3.92.48 7.43 3.5 8.45 7.3.54 1.39-.85 2.78-2.17 3.32-1.45.54-3.02.66-4.1 1.63-1.99 1.69-1.51 4.95 0 6.94 1.93 2.66 5.37 4.17 8.63 3.74 3.32-.36 6.28-2.6 7.61-5.61 2.35-5.73-1.33-12.25-6.04-16.24zm0 0c-1.51-1.27-3.14-2.35-4.77-3.44l-20.58-14.73c-1.57-1.21-3.14-2.35-4.83-3.38-5.25-3.2-12.68-4.59-17.26-.48-2.48 2.23-3.62 5.73-2.9 8.99.66 3.2 3.2 5.98 6.34 6.94 2.42.78 5.61.18 6.52-2.17.54-1.39.18-2.96.3-4.47 0-1.45.9-3.2 2.41-3.14 3.92-.24 7.85 2.05 9.6 5.61 1.51 3.08 1.21 6.88-.6 9.78.91.18 1.75.54 2.54 1.15.78.48 1.39 1.21 1.87 1.93 2.11-2.6 5.61-4.1 8.99-3.68 3.92.48 7.43 3.5 8.45 7.3.54 1.39-.85 2.78-2.17 3.32-1.45.54-3.02.66-4.1 1.63-1.99 1.69-1.51 4.95 0 6.94 1.93 2.66 5.37 4.17 8.63 3.74 3.32-.36 6.28-2.6 7.61-5.61 2.35-5.73-1.33-12.25-6.04-16.24zm0 0c-1.51-1.27-3.14-2.35-4.77-3.44l-20.58-14.73c-1.57-1.21-3.14-2.35-4.83-3.38-5.25-3.2-12.68-4.59-17.26-.48-2.48 2.23-3.62 5.73-2.9 8.99.66 3.2 3.2 5.98 6.34 6.94 2.42.78 5.61.18 6.52-2.17.54-1.39.18-2.96.3-4.47 0-1.45.9-3.2 2.41-3.14 3.92-.24 7.85 2.05 9.6 5.61 1.51 3.08 1.21 6.88-.6 9.78.91.18 1.75.54 2.54 1.15.78.48 1.39 1.21 1.87 1.93 2.11-2.6 5.61-4.1 8.99-3.68 3.92.48 7.43 3.5 8.45 7.3.54 1.39-.85 2.78-2.17 3.32-1.45.54-3.02.66-4.1 1.63-1.99 1.69-1.51 4.95 0 6.94 1.93 2.66 5.37 4.17 8.63 3.74 3.32-.36 6.28-2.6 7.61-5.61 2.35-5.73-1.33-12.25-6.04-16.24zm0 0c-1.51-1.27-3.14-2.35-4.77-3.44l-20.58-14.73c-1.57-1.21-3.14-2.35-4.83-3.38-5.25-3.2-12.68-4.59-17.26-.48-2.48 2.23-3.62 5.73-2.9 8.99.66 3.2 3.2 5.98 6.34 6.94 2.42.78 5.61.18 6.52-2.17.54-1.39.18-2.96.3-4.47 0-1.45.9-3.2 2.41-3.14 3.92-.24 7.85 2.05 9.6 5.61 1.51 3.08 1.21 6.88-.6 9.78.91.18 1.75.54 2.54 1.15.78.48 1.39 1.21 1.87 1.93 2.11-2.6 5.61-4.1 8.99-3.68 3.92.48 7.43 3.5 8.45 7.3.54 1.39-.85 2.78-2.17 3.32-1.45.54-3.02.66-4.1 1.63-1.99 1.69-1.51 4.95 0 6.94 1.93 2.66 5.37 4.17 8.63 3.74 3.32-.36 6.28-2.6 7.61-5.61 2.35-5.73-1.33-12.25-6.04-16.24zm0 0c-1.51-1.27-3.14-2.35-4.77-3.44l-20.58-14.73c-1.57-1.21-3.14-2.35-4.83-3.38-5.25-3.2-12.68-4.59-17.26-.48-2.48 2.23-3.62 5.73-2.9 8.99.66 3.2 3.2 5.98 6.34 6.94 2.42.78 5.61.18 6.52-2.17.54-1.39.18-2.96.3-4.47 0-1.45.9-3.2 2.41-3.14 3.92-.24 7.85 2.05 9.6 5.61 1.51 3.08 1.21 6.88-.6 9.78.91.18 1.75.54 2.54 1.15.78.48 1.39 1.21 1.87 1.93 2.11-2.6 5.61-4.1 8.99-3.68 3.92.48 7.43 3.5 8.45 7.3.54 1.39-.85 2.78-2.17 3.32-1.45.54-3.02.66-4.1 1.63-1.99 1.69-1.51 4.95 0 6.94 1.93 2.66 5.37 4.17 8.63 3.74 3.32-.36 6.28-2.6 7.61-5.61 2.35-5.73-1.33-12.25-6.04-16.24zm0 0c-1.51-1.27-3.14-2.35-4.77-3.44l-20.58-14.73c-1.57-1.21-3.14-2.35-4.83-3.38-5.25-3.2-12.68-4.59-17.26-.48-2.48 2.23-3.62 5.73-2.9 8.99.66 3.2 3.2 5.98 6.34 6.94 2.42.78 5.61.18 6.52-2.17.54-1.39.18-2.96.3-4.47 0-1.45.9-3.2 2.41-3.14 3.92-.24 7.85 2.05 9.6 5.61 1.51 3.08 1.21 6.88-.6 9.78.91.18 1.75.54 2.54 1.15.78.48 1.39 1.21 1.87 1.93 2.11-2.6 5.61-4.1 8.99-3.68 3.92.48 7.43 3.5 8.45 7.3.54 1.39-.85 2.78-2.17 3.32-1.45.54-3.02.66-4.1 1.63-1.99 1.69-1.51 4.95 0 6.94 1.93 2.66 5.37 4.17 8.63 3.74 3.32-.36 6.28-2.6 7.61-5.61 2.35-5.73-1.33-12.25-6.04-16.24zm0 0c-1.51-1.27-3.14-2.35-4.77-3.44l-20.58-14.73c-1.57-1.21-3.14-2.35-4.83-3.38-5.25-3.2-12.68-4.59-17.26-.48-2.48 2.23-3.62 5.73-2.9 8.99.66 3.2 3.2 5.98 6.34 6.94 2.42.78 5.61.18 6.52-2.17.54-1.39.18-2.96.3-4.47 0-1.45.9-3.2 2.41-3.14 3.92-.24 7.85 2.05 9.6 5.61 1.51 3.08 1.21 6.88-.6 9.78.91.18 1.75.54 2.54 1.15.78.48 1.39 1.21 1.87 1.93 2.11-2.6 5.61-4.1 8.99-3.68 3.92.48 7.43 3.5 8.45 7.3.54 1.39-.85 2.78-2.17 3.32-1.45.54-3.02.66-4.1 1.63-1.99 1.69-1.51 4.95 0 6.94 1.93 2.66 5.37 4.17 8.63 3.74 3.32-.36 6.28-2.6 7.61-5.61 2.35-5.73-1.33-12.25-6.04-16.24zm-221.6 176.45v.12c.06-.06.06-.12.06-.18 0 0-.06 0-.06.06zm0 0v.12c.06-.06.06-.12.06-.18 0 0-.06 0-.06.06zm0 0v.12c.06-.06.06-.12.06-.18 0 0-.06 0-.06.06zm0 0v.12c.06-.06.06-.12.06-.18 0 0-.06 0-.06.06zm0 0v.12c.06-.06.06-.12.06-.18 0 0-.06 0-.06.06zm0 0v.12c.06-.06.06-.12.06-.18 0 0-.06 0-.06.06zm0 0v.12c.06-.06.06-.12.06-.18 0 0-.06 0-.06.06zm0 0v.12c.06-.06.06-.12.06-.18 0 0-.06 0-.06.06zm0 0v.12c.06-.06.06-.12.06-.18 0 0-.06 0-.06.06zm0 0v.12c.06-.06.06-.12.06-.18 0 0-.06 0-.06.06zm0 0v.12c.06-.06.06-.12.06-.18 0 0-.06 0-.06.06zm0 0v.12c.06-.06.06-.12.06-.18 0 0-.06 0-.06.06zm0 0v.12c.06-.06.06-.12.06-.18 0 0-.06 0-.06.06zm0 0v.12c.06-.06.06-.12.06-.18 0 0-.06 0-.06.06zm0 0v.12c.06-.06.06-.12.06-.18 0 0-.06 0-.06.06zm0 0v.12c.06-.06.06-.12.06-.18 0 0-.06 0-.06.06zm0 0v.12c.06-.06.06-.12.06-.18 0 0-.06 0-.06.06zm0 0v.12c.06-.06.06-.12.06-.18 0 0-.06 0-.06.06zm-31.33-47.02v90.49l-.06.66c-.06.18-2.05 26.32 13.64 43.34 9.6 10.44 24.51 15.75 44.37 15.75 33.14 0 61.03 12.92 80.47 36.88v-187.12zm119.28 60.79c1.33.97 2.47 2.29 3.32 3.74.36.66.72 1.51.48 2.29-.06.12-.12.3-.24.42.06.3.06.54 0 .85-.06.85-.48 1.75-1.09 2.35.12-.97-.18-1.63-.72-2.29h-.18c-.97-.06-1.81-.6-2.54-1.27-.84-.72-1.51-1.63-2.35-2.41-.78-.72-2.05-1.09-3.2-1.09-1.09 1.39-2.29 2.72-3.5 4.04-.36.48-.78.97-1.33 1.21-.18.78-.12 1.57.36 2.23-.85-.24-1.57-.85-1.99-1.57-.18-.3-.36-.66-.48-.97h-.06c-.48-.48-.91-1.09-.97-1.75-.12-1.33.3-2.72.97-3.8-1.99-.97-4.17-1.99-6.34-1.51-.91.24-1.69.36-2.6.6h-.12c-.06.06-.18.12-.24.18-1.03.72-1.57 2.05-1.39 3.26-1.69-.18-3.44-1.03-4.41-2.48q-.06-.06-.12-.18c-.12.06-.3.12-.42.18-.06.06-.12.06-.12.06-1.03.6-1.75 1.75-1.81 2.96-1.75-.42-3.38-1.69-4.04-3.38l-.06-.12h-.85c-1.21.06-2.35.97-2.84 2.05-1.63-1.15-2.66-3.08-2.54-5.07-.9-.78-1.63-1.69-2.23-2.78-.6 2.35-2.78 3.98-4.71 5.43-2.11 1.57-4.29 3.5-4.47 6.1-.12 1.93 1.21 3.92 3.02 4.59.6.18 1.21.3 1.81.24 1.09-.72 2.17-1.27 3.38-1.69 4.59-1.87 9.84-2.17 14.55-.72 2.29.72 4.47 1.75 6.82 2.11s5.07-.3 6.4-2.23c1.09 3.5-1.03 7.73-4.47 8.93 1.39 1.93.9 4.83.48 7.12-.48 2.35-1.15 4.71-.72 7.06.6 3.68 3.8 6.28 6.76 8.63 5.07-.72 10.02-2.54 14.31-5.37 1.15-.72 1.93-1.99 3.2-2.54 1.15-.42 2.72-.36 3.5.6.36 0 .72.06 1.09.18.84.3 1.57.91 2.05 1.63-.91-.36-1.75-.18-2.6.24-.12.72-.48 1.45-1.03 1.99-.97.97-2.29 1.45-3.62 1.93-.84.24-.97 1.87-.48 2.6.48.66 1.33 1.03 2.11 1.27.85.24 1.75.6 2.17 1.33.18.24.3.54.3.85.36.3.66.72.91 1.15.42.78.54 1.69.36 2.54-.36-.91-1.21-1.33-2.17-1.57-.12.12-.24.24-.36.3-1.09.66-2.54.48-3.68 0-1.15-.54-2.05-1.45-3.02-2.35-.42-.42-1.33.12-1.63.6s-.24 1.21-.12 1.75c.18.6.48 1.15.6 1.75.06.36.12.66 0 .97.18.42.24.91.24 1.33.06.85-.24 1.75-.78 2.48.06-1.09-.54-1.75-1.21-2.41-.12 0-.24 0-.3-.06-.66-.12-1.27-.54-1.75-1.03-1.33-1.15-2.23-2.78-2.66-4.53-.18-.72-1.57-.3-2.11.18-.48.48-.72 1.15-.9 1.87-.18.66-.3 1.39-.72 1.99-.36.48-.78.78-1.39.97-.54.97-.9 1.93-.36 3.02-.78-.42-1.39-1.15-1.69-1.99-.18-.54-.36-1.15-.3-1.75-.24-.18-.42-.48-.54-.78-.48-1.21.06-2.54.6-3.74-6.64.06-7.42 3.26-7.42 3.26-1.09 1.51-3.38 1.99-5.13 1.39.54-.84.54-1.99.06-2.84-.36-.54-.84-.97-1.45-1.09-1.63.54-3.5-.12-4.71-1.39.85-.48 1.45-1.51 1.39-2.41 0-1.03-.6-1.81-1.45-2.23h-.12c-1.33.06-2.66-.66-3.5-1.75v-.06c-.24-.36-.48-.72-.66-1.15.6-.06 1.15-.36 1.51-.85v-.06c.06-.12.06-.36.12-.54.06-.97.06-1.93 0-2.9-.06-2.29-.72-4.53-1.63-6.7-1.33 1.63-2.66 3.32-4.41 4.53-1.69 1.27-3.86 2.05-5.92 1.69h-.06c1.15 1.81 2.72 3.26 4.59 4.23-.3 1.27-1.57 2.17-2.9 1.99 1.69 3.5 1.63 8.15.12 11.83-1.45 3.62-4.53 6.64-8.21 7.97 1.63 2.41 3.74 4.53 6.34 5.79 2.41 1.21 6.04 2.23 8.69 1.63 3.62-.85 7.18-2.23 10.2-4.35.6-.42 1.15-.84 1.87-1.03.24-.12.54-.18.91-.12.42-.3.97-.48 1.45-.48.84-.12 1.81.06 2.53.54-1.15.06-1.81.78-2.41 1.69-.06.48-.24 1.03-.54 1.39-.54.85-1.45 1.39-2.23 2.05-.66.54-.85 1.75-1.33 2.54.85.42 1.69.85 2.48 1.27.72.36 1.57.84 1.81 1.57.48.3.85.78 1.03 1.21.48.85.6 1.75.42 2.6-.48-1.03-1.39-1.39-2.41-1.63-.3.18-.6.24-.9.24-1.09.06-2.11-.48-3.02-1.09-.85-.6-1.75-1.27-2.84-1.51-.42-.12-.91-.12-1.27.12-.42.18-.6.72-.3 1.09.6.84 1.21 1.69 1.39 2.66v.6c.42.48.6 1.33.66 2.05 0 .91-.3 1.81-.84 2.47.06-1.15-.6-1.93-1.45-2.6h-.06c-.85.06-1.69-.54-2.35-1.09-1.33-1.03-2.54-2.48-4.17-2.9-.78-.18-1.63.18-2.35.66-.73.42-1.27 1.03-1.87 1.63-.6.48-1.27.97-2.05 1.03-.66.84-1.15 1.69-.97 2.72-.66-.54-1.09-1.39-1.15-2.29-.06-.42-.06-.85 0-1.27-.06 0-.06-.06-.12-.12-.24-.54-.12-1.21.18-1.69.24-.54.6-1.15 1.03-1.57-.18 0-.3-.06-.48-.12-1.75-.3-3.38-.78-5.19-.85-2.11-.06-4.17-.48-6.16-1.09-1.21 1.03-2.96 1.39-4.53 1.09.48-1.03.3-2.35-.42-3.26-.18-.24-.36-.36-.6-.54-.06.06-.18.06-.24.06-1.33.48-2.9.36-4.29-.24.66-.78.85-1.93.6-2.9-.06-.18-.06-.24-.12-.36-.12-.3-.3-.54-.54-.72-1.57 0-3.14-.78-4.23-1.99 1.03-.54 1.75-1.69 1.75-2.84 0-.42-.12-.84-.24-1.15-.72-1.57-1.45-3.02-2.6-4.29s-1.63-3.26-1.51-5.01c6.22 1.69 13.1-.97 16.96-6.1-3.5-1.39-6.4-4.29-7.79-7.79s-1.33-7.61.3-10.99l.06-.3c-5.01 5.61-11.59 10.32-19.14 11.17h-.36c-1.33 1.69-3.32 2.84-5.37 3.14.06-1.39-.48-2.78-1.39-3.74h-.06c-5.01-1.33-9.48-4.65-11.29-9.48-1.03-2.9-1.15-5.73-.66-8.57-1.15-1.75-1.69-4.11-1.57-6.34 1.33.48 2.84.24 3.98-.66 1.57-3.32 3.68-6.34 5.74-9.18 4.59-6.46 8.21-14 3.56-21.49-1.93-3.2-4.95-5.43-7.49-8.15-2.47-2.72-4.59-6.28-4.04-9.96.48-3.02 2.9-5.61 5.79-6.76 2.9-1.09 6.22-.84 9.12.24 3.98 1.51 7.36 4.53 9.24 8.33.91 1.75 1.69 4.17 1.39 6.28v.54c0 2.23-.97 2.05-.97 2.05-3.68-1.21-5.49-5.19-7.91-8.21-1.51-1.93-3.56-3.68-5.98-3.98-2.48-.3-5.25 1.39-5.43 3.86-.12 1.39.66 2.78 1.69 3.8 2.78 2.84 6.04 4.47 8.39 7.79 1.09 1.51 1.99 3.14 2.6 4.77.18-.42.3-.78.42-1.21.48-1.69.54-3.8-.42-5.37 1.75.91 3.02 3.26 3.14 5.55s-.54 4.53-1.09 6.64c-.12.3-.24.66-.3 1.03.6-.54 1.21-1.03 1.75-1.69 1.21-1.27 2.17-3.2 1.99-5.01 1.21 1.63 1.27 4.23.36 6.4-.9 2.11-2.47 3.8-3.92 5.37-.12.12-.18.24-.3.36v.06c.78-.24 1.51-.42 2.29-.72 1.63-.66 3.32-1.93 3.98-3.62.36 1.99-.73 4.35-2.48 5.86-1.39 1.15-2.96 1.93-4.53 2.6-1.09 4.23-3.02 8.21-5.61 11.71-1.09 1.45-2.29 2.9-3.38 4.35.12 1.45 1.09 2.72 2.35 3.32-1.45 1.69-3.44 2.96-5.43 3.5-.18 1.39 0 2.84.6 4.1 1.33 2.84 5.19 3.86 8.33 3.92s6.28-.85 9.12-2.23c2.9-1.33 5.55-3.2 7.91-5.49 4.89-6.1 8.03-13.52 9.24-21.25-.48-.36-.84-.85-1.27-1.33-.54-.78-.97-1.69-1.21-2.66-.18-1.03-.24-2.05 0-3.02.06-.12.06-.24.06-.3.18-1.63.3-3.26.24-4.83-2.17-.66-3.98-2.48-4.83-4.65 1.57-.24 3.02-1.39 3.56-2.9.12-.48.24-.97.18-1.45-1.99-.36-3.62-1.87-4.53-3.68 1.33-.24 2.48-1.33 2.84-2.72.06-.12.06-.24.12-.36-.06 0-.12-.06-.18-.12-1.63-.78-2.84-2.35-3.38-4.04 1.03-.06 2.11-.6 2.78-1.45.18-.24.36-.54.54-.84v-.06c-.12-.18-.24-.36-.42-.54-.97-1.39-1.27-3.2-1.03-4.95 1.27.54 2.84.3 3.86-.54l.06-.06c.06-.06.18-.12.3-.24.18-.18.48-.36.72-.54-.24-.06-.6-.06-.84 0-.79 0-1.69.12-2.41-.3-.6-.3-1.03-.91-1.27-1.57-.18-.66-.24-1.33-.3-1.99.91.42 2.05.3 3.08.18 1.03-.18 2.05-.48 3.14-.3 1.03.12 2.23.66 2.42 1.69.24 0 .42-.06.6-.12.85-2.41 3.08-4.29 5.61-4.95 0 1.09.48 2.11 1.21 2.96 1.51-1.57 3.68-2.35 5.86-2.41-.3 1.39 0 2.84.78 3.92q0 .06.06.06c1.09.3 2.17.78 3.14 1.45.97-.36 1.99.24 2.96.54s1.87.78 2.9 1.03c.54.18 1.15.24 1.69.48.54.18 1.09.6 1.27 1.15.12.6-.18 1.33-.78 1.45.72 1.21.6 2.84.24 4.29-.3 1.21-2.66 1.03-3.86.66-1.27-.36-2.6-.91-3.86-.54-1.27.36-2.05 1.45-2.6 2.6-.06.12-.12.24-.18.42 1.33-.6 2.78-.91 4.23-.91 2.17-.06 4.35.36 6.4 1.03 1.45.48 2.96 1.03 4.47.91 1.51-.18 3.14-1.21 3.26-2.72.06-.72-.18-1.45-.36-2.11-.12-.78-.18-1.57.24-2.11.48-.6 1.57-.6 1.93 0 1.27 1.99 1.45 4.59.36 6.64-1.09 2.11-3.5 3.38-5.86 2.96-1.69-.36-3.08-1.51-4.65-2.29-3.26-1.57-7.3-1.21-10.2.85.18.48.54.97.97 1.15.79.3 1.63-.06 2.42-.36.97-.48 1.93-.91 3.02-1.03s2.23.18 2.9 1.03c.72.78.66 2.17-.18 2.78-.85.6-1.93.3-2.9.24-1.45-.12-2.96.36-4.41.66-.54.12-1.09.3-1.69.36.12.12.3.24.48.36 3.62 2.11 8.57 1.93 12.01-.54-.06 1.21-.42 2.35-1.03 3.32 10.75-1.81 20.64-8.33 27.04-17.2-.18-1.33-.54-2.66-.6-3.98-.06-1.33.24-2.78 1.21-3.68.12-.12.3-.24.42-.3.18-.48.42-.91.72-1.27.6-.78 1.45-1.39 2.48-1.57-.72.78-.85 1.63-.72 2.6.24.06.48.24.66.48.78.91.66 2.23.6 3.44.06 1.03.18 1.99.54 2.96.12.36.36.85.66 1.09.36.24 1.21 0 1.45-.42 1.15-1.75 2.54-3.74 4.53-4.23.42-.12.85-.18 1.21-.12h.06c.48-.24 1.09-.3 1.63-.24.85 0 1.75.36 2.41.97-.97-.12-1.75.3-2.35.97 0 .48-.3.97-.6 1.33-.42.48-.91.78-1.45 1.15-.97.72-1.93 1.69-2.66 2.78-.24.48-.54.97-.48 1.51s.54.6 1.09.6c1.69-.06 3.38.24 4.95.91.72.3 1.51.72 1.81 1.45.06.18.12.3.12.48.18.24.36.48.48.66.48.78.73 1.69.6 2.54-.42-.78-1.15-1.15-1.99-1.33-.06.06-.12.06-.12.12-.78.54-1.81.6-2.78.6-1.09-.12-2.23-.36-3.32-.42-1.15-.12-2.29.36-3.14 1.09-.06 1.81-.18 3.56-.24 5.31-.06.66-.06 1.27-.36 1.81v.06c.42.72.9 1.27 1.75 1.45-.85.3-1.75.36-2.6.06-.3-.12-.66-.3-.97-.48-.66 0-1.39-.24-1.87-.72-.97-.91-1.45-2.29-1.63-3.56-2.17.48-4.53 1.03-5.92 2.78-.54.66-1.09 1.33-1.63 2.05l-.06.06v.06c-.06.06-.12.18-.12.3-.36 1.21.06 2.54.97 3.38-1.45.97-3.38 1.33-5.01.78h-.18c-.12.12-.18.24-.24.36 0 .06-.06.12-.06.12-.48 1.09-.24 2.47.48 3.44-1.69.78-3.74.78-5.31-.12l-.12-.06c-.12.06-.24.12-.3.24h-.06c0 .06-.06.06-.06.06-.06.06-.18.12-.24.18-.78.72-1.15 1.81-1.03 2.84 7 1.57 14.43 1.33 21.37-.6.66-1.15 1.15-2.41 1.99-3.44.79-1.09 1.87-2.05 3.26-2.11.12-.06.24-.06.42-.06h.06c.42-.24.9-.42 1.33-.54.97-.24 2.05-.12 2.96.36-1.03.12-1.69.78-2.17 1.57.12.24.18.54.18.85.06 1.15-.9 2.11-1.69 3.02-.54.78-1.03 1.69-1.39 2.66-.12.42-.3.85-.12 1.27.06.42.91.72 1.33.54 2.05-.66 4.35-1.33 6.22-.42.36.18.72.3.97.6 0 0 .06 0 .06.06.54.12 1.03.42 1.45.78.66.54 1.15 1.39 1.27 2.23-.66-.66-1.51-.78-2.41-.66-.36.42-.85.6-1.33.66-.6.12-1.15.06-1.81 0-1.27-.06-2.6.12-3.8.54-.48.18-1.03.36-1.33.85-.3.42.06.85.48 1.21zm-87.95-13.64c.06-.06.06-.12.06-.18 0 0-.06 0-.06.06zm0-.12v.12c.06-.06.06-.12.06-.18 0 0-.06 0-.06.06zm0 0v.12c.06-.06.06-.12.06-.18 0 0-.06 0-.06.06zm0 0v.12c.06-.06.06-.12.06-.18 0 0-.06 0-.06.06zm0 0v.12c.06-.06.06-.12.06-.18 0 0-.06 0-.06.06zm0 0v.12c.06-.06.06-.12.06-.18 0 0-.06 0-.06.06zm0 0v.12c.06-.06.06-.12.06-.18 0 0-.06 0-.06.06zm0 0v.12c.06-.06.06-.12.06-.18 0 0-.06 0-.06.06zm0 0v.12c.06-.06.06-.12.06-.18 0 0-.06 0-.06.06zm0 0v.12c.06-.06.06-.12.06-.18 0 0-.06 0-.06.06zm0 0v.12c.06-.06.06-.12.06-.18 0 0-.06 0-.06.06zm0 0v.12c.06-.06.06-.12.06-.18 0 0-.06 0-.06.06zm0 0v.12c.06-.06.06-.12.06-.18 0 0-.06 0-.06.06zm0 0v.12c.06-.06.06-.12.06-.18 0 0-.06 0-.06.06zm0 0v.12c.06-.06.06-.12.06-.18 0 0-.06 0-.06.06zm0 0v.12c.06-.06.06-.12.06-.18 0 0-.06 0-.06.06zm0 0v.12c.06-.06.06-.12.06-.18 0 0-.06 0-.06.06zm0 0v.12c.06-.06.06-.12.06-.18 0 0-.06 0-.06.06zm0 0v.12c.06-.06.06-.12.06-.18 0 0-.06 0-.06.06z"/><path d="m0 0 15.09 20.1 7.61 10.08c4.77 6.34 8.51 13.1 11.11 19.92 2.41 6.4 3.74 12.74 4.16 19.32.12 1.63.18 3.2.18 4.77v205.36c0 1.21-.06 2.41-.06 3.68-.06 3.56-.12 7.24.18 11.23.66 7.12 2.11 13.94 4.29 20.34 2.96 8.57 7.18 16.12 12.62 22.52.48.54.97 1.09 1.45 1.69 13.34 14.49 32.96 21.85 58.31 21.85 27.22 0 49.98 10.38 65.8 29.88l4.89 6.04 9.78 12.01 9.78-12.01 4.83-6.04c15.88-19.5 38.69-29.88 65.92-29.88 25.29 0 44.85-7.3 58.13-21.85 18.65-20.22 19.01-47.93 18.59-56.5v-208.32c0-15.69 5.19-30.54 15.39-43.94l7.61-10.08 15.26-20.17zm357.72 22.27c-11.89 15.69-17.93 33.08-17.93 51.55v208.68h-.06c.36 6.28.6 30.48-15.21 47.69-10.87 11.83-27.28 17.81-48.89 17.81-31.21 0-57.35 11.89-75.64 34.53l-4.95 5.98-4.83-5.98c-18.35-22.64-44.49-34.53-75.64-34.53-21.61 0-38.09-6.04-48.95-17.87-15.88-17.2-15.88-41.95-15.21-48.23v-.06h-.06l.06-.3v-207.71c0-1.87-.06-3.68-.24-5.55-.48-7.79-2.11-15.33-4.95-22.94-2.96-7.97-7.24-15.75-12.8-23.06l-7.55-10.08h340.45l-7.61 10.08z"/><path d="m315.71 263.31c-4.33 15.23-14.42 28.14-25.47 39.51-8.39 8.57-17.53 16.55-25.85 25.19-8.39-8.64-17.5-16.62-25.88-25.19-11.06-11.37-21.14-24.28-25.47-39.51s-1.88-33.14 9.39-44.26c11.15-10.99 31.54-12.31 41.96-.75 10.4-11.56 30.78-10.24 41.9.75 11.28 11.12 13.76 29.02 9.42 44.26z"/><path d="m454.59 188.85 18.18-56.22v66.4h-81.42l50.65-137.15h-30.53l-20.11 42.65v-52.11h81.42l-51.13 136.43h32.95z"/><path d="m582.53 52.42v51.85l-17.69-43.86h-28.83v58.64h17.2l11.63-17.45v43.86l-11.15-16.23h-17.69v58.64h29.8l16.72-54.76v65.91h-85.06l10.66-9.21v-127.94l-10.66-9.45h85.06z"/><path d="m607.49 199.03 11.87-8.96v-127.95l-11.87-9.69h52.34l-11.64 8.24v128.91h16.72l17.2-53.79v63.24h-74.64z"/><path d="m799.89 118.82c.81 15.34-.72 29-4.6 40.95-1.62 5.17-3.84 10.14-6.66 14.9-2.83 4.77-6.42 9.01-10.78 12.73-4.36 3.71-9.61 6.66-15.75 8.84s-13.33 3.11-21.57 2.79h-34.9l12.85-10.42v-125.77l-13.57-10.91h32.95c11.31 0 21.41 2.26 30.29 6.79 3.88 1.94 7.64 4.48 11.27 7.63s6.91 7.15 9.81 12c2.91 4.85 5.33 10.58 7.27 17.2 1.94 6.63 3.07 14.38 3.39 23.27zm-45.8 66.88c1.94-1.13 4.28-2.87 7.03-5.21 2.74-2.34 5.33-5.85 7.75-10.54 2.42-4.68 4.4-10.87 5.93-18.54 1.54-7.67 2.22-17.48 2.06-29.44.48-9.21-.16-17.69-1.94-25.44-.81-3.39-1.81-6.78-3.03-10.18-1.21-3.39-2.78-6.58-4.72-9.57s-4.32-5.69-7.15-8.12-6.1-4.28-9.81-5.57c-1.62-.48-2.83-.73-3.63-.73h-3.64v125.76c1.29.16 2.58.16 3.88 0 2.58-.32 5.01-1.12 7.27-2.42z"/><path d="m865.81 199.03 10.91-12.6-7.75-37.81h-30.3l-9.93 38.77 12.84 11.63h-45.07l16.96-12.6 33.68-122.13-15.27-12.11h37.81l37.32 136.18 14.05 10.66h-55.25zm.72-59.37-12.84-51.37-12.6 51.37z"/><path d="m513.91 220.65h30.44l-6.78 6.18 13.56 49.43 11.61-49.43-8.44-6.18h31.5l-6.79 6.18 13.57 49.43 11.6-49.58-8.44-6.03h26.67l-8.74 6.18-20.8 84.99h-6.93l-18.24-66.61-16.28 66.61h-6.93l-23.21-84.99-7.38-6.18z"/><path d="m668.06 220.65-6.33 4.52v80.17l6.48 6.48h-31.04l6.48-6.18v-80.02l-7.08-4.97z"/><path d="m706.19 305.79 6.48 6.03h-29.39l7.53-6.33v-79.72l-7.23-5.12h29.08l-6.48 5.12v29.54l19.44-29.69-4.22-4.97h20.5l-7.08 4.97-21.55 33.6 30.74 46.42 8.74 6.18h-35.26l7.99-5.42-19.28-30.44v29.84z"/><path d="m797.51 220.65-6.33 4.52v80.17l6.48 6.48h-31.04l6.48-6.18v-80.02l-7.08-4.97z"/></g></svg>