<svg viewBox="0 0 100 100" xmlns="http://www.w3.org/2000/svg"><path d="m96.66107 46.47559a46.55822 46.55822 0 0 0 -7.44324-25.41645l-.00018-5.78686a7.63747 7.63747 0 0 0 -1.57525-4.96277 7.69187 7.69187 0 0 0 -8.18158-2.77441l-30.4361 8.30078a5.14694 5.14694 0 0 0 1.45093-3.57654v-7.08655a5.17177 5.17177 0 0 0 -10.23389-1.0603 5.11343 5.11343 0 0 0 -5.83533-1.69458 52.9966 52.9966 0 0 0 -9.31 4.53125 5.08287 5.08287 0 0 0 -2.43573 4.296l-.00208 1.1145a5.08189 5.08189 0 0 0 -5.63147 1.07288 46.50366 46.50366 0 0 0 -13.67296 34.17246v6.9868a47.11928 47.11928 0 0 0 1.66369 11.21734l.00092 6.21186a26.72386 26.72386 0 0 0 44.57794 19.69281l-.00195 3.11334a5.17842 5.17842 0 0 0 5.17285 5.17285h.002a5.18234 5.18234 0 0 0 5.05853-4.113 5.11465 5.11465 0 0 0 5.83594 1.694 52.88522 52.88522 0 0 0 9.30951-4.53021 5.08863 5.08863 0 0 0 2.31238-3.22163 5.14024 5.14024 0 0 0 .12415-1.07477l.00207-1.11431a5.08482 5.08482 0 0 0 5.63062-1.07264 46.73509 46.73509 0 0 0 13.61822-33.1051zm-21.28876 26.30493c-.00054.01288-.00354.02527-.004.03814a5.16885 5.16885 0 0 0 -1.025 2.87037l-.00189 1.24316a5.09807 5.09807 0 0 0 -4.71842.33681 42.648 42.648 0 0 1 -7.48529 3.63965 5.12826 5.12826 0 0 0 -3.22406 3.77045 5.2002 5.2002 0 0 0 -1.1637-1.15015 11.80533 11.80533 0 0 0 2.669-7.5083v-7.08657c0-.18023-.02735-.35541-.03528-.53436l8.96978-8.96979.627.627a5.857 5.857 0 0 0 4.167 1.73243 5.93109 5.93109 0 0 0 5.71185-4.35547l2.252-8.25971c.04071.29779.06829.59534.10077.893a32.159 32.159 0 0 1 -5.88587 15.2586 5.06008 5.06008 0 0 0 -.9538 2.86347zm-33.59289-43.29242-8.207 8.207a11.93652 11.93652 0 0 0 -11.61842-.2399c.54767-.948 1.14038-1.8775 1.78943-2.78094a5.05728 5.05728 0 0 0 .95453-2.86347l.004-4.62909a5.16905 5.16905 0 0 0 1.02526-2.8703l.0019-1.24347a5.10349 5.10349 0 0 0 2.02844.42475h.00049a5.14156 5.14156 0 0 0 2.68995-.76168 42.56282 42.56282 0 0 1 7.4848-3.63959 5.1278 5.1278 0 0 0 3.2252-3.76878 5.15218 5.15218 0 0 0 3.34924 2.02905 5.84121 5.84121 0 0 0 -2.52807 3.45673 5.99439 5.99439 0 0 0 -.19953 1.59564z" fill="#1a1a1a"/><path d="m85.10093 20.255 1.08233-3.96853a4.726 4.726 0 0 0 -5.803-5.80295l-33.32526 9.0887a2.90831 2.90831 0 0 0 -1.29125 4.86231l1.25 1.25a2.11853 2.11853 0 0 1 0 2.996l-13.04285 13.04292 1.4981 1.49807a2.11851 2.11851 0 0 0 2.996 0l11.54482-11.54485a2.11851 2.11851 0 0 1 2.996 0 2.11851 2.11851 0 0 1 0 2.996l-11.54477 11.54489a2.11851 2.11851 0 0 0 0 2.996 2.11852 2.11852 0 0 0 2.996 0l11.54487-11.54481a2.11851 2.11851 0 0 1 2.996 0h.00006a2.11852 2.11852 0 0 1 0 2.996l-11.54481 11.54494a2.1185 2.1185 0 0 0 0 2.996v.00005a2.11853 2.11853 0 0 0 2.996 0l11.54493-11.54482a2.1185 2.1185 0 0 1 2.996 0 2.11851 2.11851 0 0 1 0 2.996l-11.54481 11.54489a2.11852 2.11852 0 0 0 0 2.996l1.498 1.498 13.0429-13.04281a2.11851 2.11851 0 0 1 2.996 0l1.25 1.25a2.9083 2.9083 0 0 0 4.8623-1.29125l5.00417-18.34866a35.494 35.494 0 0 1 2.974 9.5291 35.1177 35.1177 0 0 1 -6.1804 26.33884 2.1022 2.1022 0 0 0 .47987 2.93415v.00005a2.09594 2.09594 0 0 0 2.52943-.06839 39.6556 39.6556 0 0 1 -3.78185 4.39434 2.156 2.156 0 0 0 -.19 2.86215 2.10565 2.10565 0 0 0 3.122.16034 43.7827 43.7827 0 0 0 4.04922-57.15867z" fill="#dbe102"/><path d="m62.03121 86.4575.00139.004a2.11124 2.11124 0 0 0 2.72607 1.27167 49.55969 49.55969 0 0 0 8.77314-4.27036 2.11093 2.11093 0 0 0 .68182-2.93549 2.11171 2.11171 0 0 0 -2.89171-.64824 45.62013 45.62013 0 0 1 -8.0148 3.89731 2.112 2.112 0 0 0 -1.27591 2.68111z" fill="#dbe102"/><rect fill="#dbe102" height="4.34505" rx="2.17252" width="4.34505" x="52.72507" y="85.62153"/><g fill="#5b37de"><path d="m73.38347 29.71431a5.45827 5.45827 0 0 1 -7.7044 7.70441 5.09594 5.09594 0 0 1 -1.1054-5.3663 5.09611 5.09611 0 0 1 -5.3663-1.1054 5.45827 5.45827 0 0 1 7.7044-7.70441 5.09611 5.09611 0 0 1 1.10541 5.3663 5.0959 5.0959 0 0 1 5.36629 1.1054m1.23271-1.23271a6.61067 6.61067 0 0 0 -3.28431-1.792 1.80986 1.80986 0 0 1 -1.39542-1.3954 6.61074 6.61074 0 0 0 -1.792-3.2843c-2.67638-2.67638-7.57164-2.13591-10.37547.66792a7.04138 7.04138 0 0 0 -.23113 9.93868 6.60464 6.60464 0 0 0 2.60273 1.60592 3.55038 3.55038 0 0 1 2.263 2.263 6.6045 6.6045 0 0 0 1.606 2.60276 7.04139 7.04139 0 0 0 9.93868-.23114c2.80383-2.80383 3.3443-7.69909.66792-10.37547z"/><ellipse cx="64.42238" cy="26.31036" rx="2.61496" ry="2.78445" transform="matrix(.70710678 -.70710678 .70710678 .70710678 .26464 53.25963)"/><ellipse cx="70.31572" cy="32.2037" rx="2.61496" ry="2.78445" transform="matrix(.70710678 -.70710678 .70710678 .70710678 -2.17645 59.15296)"/><path d="m38.2998 6.563-.0014-.004a2.11124 2.11124 0 0 0 -2.72608-1.27167 49.55965 49.55965 0 0 0 -8.77311 4.27041 2.111 2.111 0 0 0 -.68181 2.93549 2.11172 2.11172 0 0 0 2.89172.64824 45.61972 45.61972 0 0 1 8.01478-3.89733 2.112 2.112 0 0 0 1.2759-2.68114z"/><rect height="4.34505" rx="2.17252" width="4.34505" x="43.26087" y="3.05385"/><path d="m53.44529 58.20181 11.54485-11.54481a2.11851 2.11851 0 0 0 0-2.996 2.1185 2.1185 0 0 0 -2.996 0l-11.54489 11.54477a2.11853 2.11853 0 0 1 -2.996 0v-.00005a2.1185 2.1185 0 0 1 0-2.996l11.54475-11.54488a2.11852 2.11852 0 0 0 0-2.996h-.00006a2.11851 2.11851 0 0 0 -2.996 0l-11.54485 11.54476a2.11852 2.11852 0 0 1 -2.996 0 2.11851 2.11851 0 0 1 0-2.996l11.54479-11.54488a2.11851 2.11851 0 0 0 0-2.996 2.11851 2.11851 0 0 0 -2.996 0l-11.54488 11.5448a2.11851 2.11851 0 0 1 -2.996 0l-1.4981-1.49807a8.89782 8.89782 0 0 0 -12.58341 0l-6.29179 6.29175c-.08907.08907-.1715.18215-.25886.27228a35.08035 35.08035 0 0 1 6.602-22.398 2.10221 2.10221 0 0 0 -.4799-2.93415v-.00005a2.096 2.096 0 0 0 -2.52944.06839 39.65762 39.65762 0 0 1 3.78183-4.39435 2.156 2.156 0 0 0 .19-2.86215 2.10567 2.10567 0 0 0 -3.122-.1603 43.76439 43.76439 0 0 0 -10.65233 44.44131 23.70186 23.70186 0 0 0 6.46872 21.52282 23.72759 23.72759 0 0 0 33.55585 0l6.29175-6.29176a8.89781 8.89781 0 0 0 0-12.58342l-1.498-1.498a2.11852 2.11852 0 0 1 -.00003-2.99601z"/></g><path d="m46.724 58.06873a6.58274 6.58274 0 0 0 -3.461-1.8172 3.59193 3.59193 0 0 1 -2.88848-2.8885 6.58253 6.58253 0 0 0 -1.81723-3.461 7.04138 7.04138 0 0 0 -9.93868.23113c-2.80383 2.80384-3.34429 7.69909-.66791 10.37547a6.70107 6.70107 0 0 0 5.3133 1.91323.86971.86971 0 0 1 .94016.94015 6.7012 6.7012 0 0 0 1.91321 5.31329c2.67638 2.67637 7.57164 2.13591 10.37547-.66792a7.04141 7.04141 0 0 0 .23116-9.93865zm-17.54055 1.20727a5.45827 5.45827 0 0 1 7.7044-7.70441 5.45827 5.45827 0 0 1 -7.7044 7.70441zm8.16667 8.16666a5.45827 5.45827 0 0 1 7.70441-7.7044 5.45827 5.45827 0 0 1 -7.70441 7.7044z" fill="#dbe102"/><ellipse cx="32.06521" cy="56.60062" fill="#dbe102" rx="2.61496" ry="2.78445" transform="matrix(.70710678 -.70710678 .70710678 .70710678 -30.631 39.25147)"/><ellipse cx="40.02551" cy="64.56091" fill="#dbe102" rx="2.61496" ry="2.78445" transform="matrix(.70710678 -.70710678 .70710678 .70710678 -33.92826 47.21176)"/></svg>