<svg viewBox="0 0 170.3647 36" xmlns="http://www.w3.org/2000/svg"><path d="m158.43587 0a11.91194 11.91194 0 0 0 -9.71587 5.03333v-2.03333a2.99953 2.99953 0 0 0 -3-3h-8.92786a2.99952 2.99952 0 0 0 -3 3v2.17371a11.90222 11.90222 0 0 0 -9.79109-5.14539h-8.91076a2.9722 2.9722 0 0 0 -1.89063.68823 2.97218 2.97218 0 0 0 -1.89066-.68823h-17.82186a2.99985 2.99985 0 0 0 -3.00006 3v.95221a10.30771 10.30771 0 0 0 -8.10944-3.95221h-10.49371a2.97485 2.97485 0 0 0 -1.95819.744 2.97745 2.97745 0 0 0 -1.99256-.77232h-8.92779a2.9722 2.9722 0 0 0 -1.894.6911 2.97215 2.97215 0 0 0 -1.89409-.6911h-3.87115a5.53786 5.53786 0 0 0 -5.05715 3.29492 5.5378 5.5378 0 0 0 -5.05717-3.29492h-3.87116a2.99983 2.99983 0 0 0 -3 3v2.03339a11.91221 11.91221 0 0 0 -9.71594-5.03339h-8.92828a2.97218 2.97218 0 0 0 -1.894.6911 2.97215 2.97215 0 0 0 -1.89409-.6911h-8.92836a2.99983 2.99983 0 0 0 -3 3v27.76849a5.23117 5.23117 0 0 0 9.71 2.70313 5.21957 5.21957 0 0 0 4.63183-2.87634 2.96647 2.96647 0 0 0 1.37458.348h3.87066a5.536 5.536 0 0 0 5.05713-3.2959 5.53733 5.53733 0 0 0 5.05768 3.2959h3.87067a2.97215 2.97215 0 0 0 1.894-.6911 2.97215 2.97215 0 0 0 1.894.6911h3.87116a5.53709 5.53709 0 0 0 5.05729-3.29588 5.53715 5.53715 0 0 0 5.05719 3.2959h3.87111a2.97022 2.97022 0 0 0 .79364-.11963 5.22779 5.22779 0 0 0 9.70447 2.648 5.21494 5.21494 0 0 0 4.19635-2.15576 5.21 5.21 0 0 0 4.18213 2.145 5.22706 5.22706 0 0 0 9.70123-2.70313v-3.082a10.32366 10.32366 0 0 0 6.692-3.85736v4.11908a2.99985 2.99985 0 0 0 3.00006 3h17.82182a2.97218 2.97218 0 0 0 1.89062-.68823 2.9722 2.9722 0 0 0 1.89063.68823h8.91076a11.90212 11.90212 0 0 0 9.79108-5.14545v4.9765a5.23117 5.23117 0 0 0 9.71 2.70313 5.21921 5.21921 0 0 0 4.63129-2.87622 2.96709 2.96709 0 0 0 1.37463.3479h3.87116a5.53586 5.53586 0 0 0 5.05664-3.2959 5.53838 5.53838 0 0 0 5.05768 3.2959h3.87115a2.99953 2.99953 0 0 0 3-3v-16.01556a11.94193 11.94193 0 0 0 -11.92877-11.9278z" fill="#1a1a1a"/><g fill="#dbe102"><path d="m136.79194 2.99993v20.68169a2.232 2.232 0 0 0 2.232 2.232 2.232 2.232 0 0 0 2.232-2.232v-2.52871a2.23205 2.23205 0 0 0 2.232 2.23205 2.232 2.232 0 0 0 2.232-2.23205v-18.15298z"/><path d="m59.00524 2.99993v20.68169a2.232 2.232 0 0 0 2.232 2.232 2.232 2.232 0 0 0 2.232-2.232v-2.52871a2.23206 2.23206 0 0 0 2.23211 2.23209 2.232 2.232 0 0 0 2.23205-2.23205v-18.15302z"/><path d="m111.30925 3.02862h-17.82213v17.82212h17.82213a3.56441 3.56441 0 0 0 -3.5644-3.56441h-3.56446a1.7822 1.7822 0 0 1 -1.7822-1.7822 1.7822 1.7822 0 0 1 1.7822-1.7822h5.34666a1.7822 1.7822 0 0 0 1.7822-1.78221 1.7822 1.7822 0 0 0 -1.7822-1.7822h-5.34666a1.7822 1.7822 0 0 1 -1.7822-1.78221 1.7822 1.7822 0 0 1 1.7822-1.7822h3.56446a3.56441 3.56441 0 0 0 3.5644-3.56449z"/><path d="m3.00005 2.99989v20.68169a2.232 2.232 0 0 0 2.232 2.232 2.232 2.232 0 0 0 2.232-2.232v-2.52871a2.23205 2.23205 0 0 0 2.232 2.23205 2.232 2.232 0 0 0 2.232-2.23205v-18.15298z"/><path d="m115.09013 3.02862v17.82212h8.91111a8.91105 8.91105 0 0 0 8.91106-8.911 8.91105 8.91105 0 0 0 -8.91106-8.911zm8.91109 11.43492a2.52385 2.52385 0 0 1 -2.52384-2.52385 2.52385 2.52385 0 0 1 2.52384-2.52385 2.52385 2.52385 0 0 1 2.52384 2.52385 2.52385 2.52385 0 0 1 -2.52384 2.52385z"/><path d="m149.5082 11.92809v8.92814h3.8708a2.52868 2.52868 0 0 0 2.52869-2.52868 2.52868 2.52868 0 0 1 2.52868-2.52868 2.52868 2.52868 0 0 1 2.52868 2.52868 2.52868 2.52868 0 0 0 2.52868 2.52868h3.87079v-8.92814a8.92816 8.92816 0 0 0 -8.92817-8.92816 8.92816 8.92816 0 0 0 -8.92815 8.92816zm8.9282.94292a2.52868 2.52868 0 0 1 -2.52868-2.52868 2.52868 2.52868 0 0 1 2.52868-2.52868 2.52868 2.52868 0 0 1 2.52868 2.52868 2.52868 2.52868 0 0 1 -2.52868 2.52867z"/><path d="m46.28892 11.92808a8.92814 8.92814 0 0 0 8.92815-8.92815h-3.87078a2.52868 2.52868 0 0 0 -2.52868 2.52868 2.52868 2.52868 0 0 1 -2.52869 2.52869 2.52868 2.52868 0 0 1 -2.52869-2.52868 2.52868 2.52868 0 0 0 -2.52868-2.52868h-3.87078v17.8563h3.87078a2.52868 2.52868 0 0 0 2.52868-2.52868 2.52868 2.52868 0 0 1 2.52869-2.52868 2.52868 2.52868 0 0 1 2.52869 2.52868 2.52868 2.52868 0 0 0 2.52868 2.52868h3.87078a8.92814 8.92814 0 0 0 -8.92815-8.92816z"/><path d="m15.71633 2.99993v17.8563h3.87078a2.52868 2.52868 0 0 0 2.52869-2.52868v-3.87078a2.52868 2.52868 0 0 1 2.52868-2.52868 2.52868 2.52868 0 0 1 2.52868 2.52868v3.87079a2.52868 2.52868 0 0 0 2.52868 2.52868h3.87079v-8.92817a8.92814 8.92814 0 0 0 -8.92815-8.92814z"/><path d="m71.88408 3.02862v18.11824a2.22773 2.22773 0 0 0 2.22773 2.22773 2.22782 2.22782 0 0 0 2.22781-2.22781v2.5239a2.22776 2.22776 0 0 0 2.22775 2.22776 2.22776 2.22776 0 0 0 2.22775-2.22776v-5.98534h1.58271a7.32835 7.32835 0 0 0 7.32838-7.32834 7.32835 7.32835 0 0 0 -7.32836-7.32835zm8.91106 9.85219a2.52385 2.52385 0 0 1 -2.52384-2.52381 2.52385 2.52385 0 0 1 2.52384-2.52385 2.52385 2.52385 0 0 1 2.52386 2.52385 2.52385 2.52385 0 0 1 -2.52386 2.52381z"/></g></svg>