<svg viewBox="0 0 270 310" xmlns="http://www.w3.org/2000/svg"><path d="m110.672 11.09473a11.09424 11.09424 0 1 1 22.18847 0v11.33856a11.09424 11.09424 0 1 1 -22.18847 0z" fill="#1a1a1a"/><path d="m163.00977 237.46844a11.01454 11.01454 0 0 1 7.16223-10.71453 122.90173 122.90173 0 0 0 21.60156-10.50491 11.0137 11.0137 0 0 1 5.75977-1.63086 10.84243 10.84243 0 0 1 9.13763 4.95917l.00092-9.72125a11.22685 11.22685 0 0 1 3.08789-8.09662c-.03266-.15692-.07447-.31055-.10047-.46973a10.99542 10.99542 0 0 1 -.1383-2.16436v-11.2382a10.8143 10.8143 0 0 1 2.04455-6.0561 95.29432 95.29432 0 0 0 8.222-13.73161 82.91269 82.91269 0 0 0 6.23-54.11006c-.22226-1.01656-.42622-1.85915-.59848-2.44574l-10.0127 36.71484a13.21235 13.21235 0 0 1 -12.72754 9.70118 13.03864 13.03864 0 0 1 -9.27148-3.85743l-3.50684-3.50781a.943.943 0 0 0 -1.334 0l-29.49018 29.491a29.97012 29.97012 0 0 1 1.67767 9.87258v11.33856a29.7639 29.7639 0 0 1 -8.77539 21.18555l-17.64942 17.64843a71.55774 71.55774 0 0 1 -122.1593-50.60076v-11.23822c-.0011-1.72424.067-3.45379.19123-5.18524a128.61294 128.61294 0 0 1 -4.89912-35.52911v-11.23821a127.05016 127.05016 0 0 1 37.21353-89.4721 11.2472 11.2472 0 0 1 6.2709-3.26211 10.90351 10.90351 0 0 1 10.07807 3.89131c.2265.27662.62976.85181.62982.84925v-10.23482a10.85083 10.85083 0 0 1 1.86074-5.88731 11.678 11.678 0 0 1 3.64429-3.41254 144.95 144.95 0 0 1 25.2187-12.23744 10.92821 10.92821 0 0 1 14.08789 6.59668 10.74133 10.74133 0 0 1 .60559 3.27057v11.23822a11.01455 11.01455 0 0 1 -7.16223 10.71454 122.977 122.977 0 0 0 -21.60156 10.50488 11.0136 11.0136 0 0 1 -5.75974 1.63087h-.001a10.84011 10.84011 0 0 1 -9.136-4.95917l-.00079 9.72266a11.22129 11.22129 0 0 1 -3.08814 8.09357c.03284.15747.07477.31164.10089.47137a11.01988 11.01988 0 0 1 .13745 2.16413v11.23821a10.8186 10.8186 0 0 1 -2.04467 6.05633 93.62946 93.62946 0 0 0 -15.48889 34.37512l7.75061-7.74981a29.97649 29.97649 0 0 1 38.542-3.24414l28.46429-28.46344a12.93787 12.93787 0 0 1 -2.49017-7.671v-11.23825a13.368 13.368 0 0 1 .45068-3.49353 13.03068 13.03068 0 0 1 9.25489-9.31738l93.48437-25.49609a18.16593 18.16593 0 0 1 19.33691 6.55859 18.053 18.053 0 0 1 3.73407 10.7265v11.23822a18.45416 18.45416 0 0 1 -.652 5.23322l-.17872.65515a127.657 127.657 0 0 1 21.815 71.64386v11.23822q-.00266 4.196-.27985 8.40906a127.44651 127.44651 0 0 1 -37.0576 81.7656 10.8829 10.8829 0 0 1 -7.69338 3.17678h-.001a10.88763 10.88763 0 0 1 -8.44922-4.00976 10.37877 10.37877 0 0 1 -.62982-.85792l-.00043 10.24054a10.85983 10.85983 0 0 1 -1.85657 5.87986 11.64969 11.64969 0 0 1 -3.6417 3.41649 144.94852 144.94852 0 0 1 -25.226 12.24192 10.92817 10.92817 0 0 1 -14.08789-6.59668 10.74133 10.74133 0 0 1 -.60559-3.27056z" fill="#1a1a1a"/><path d="m137.22083 242.71387a11.09424 11.09424 0 1 1 22.18847 0v11.33856a11.09424 11.09424 0 1 1 -22.18847 0z" fill="#1a1a1a"/><path d="m250.877 252.41528a19.08279 19.08279 0 0 0 -15.11523 7.45264v-2.45264a4.99962 4.99962 0 0 0 -5-5h-14.1231a4.99962 4.99962 0 0 0 -5 5v2.45264a19.08279 19.08279 0 0 0 -15.11523-7.45264h-14.12305a4.95662 4.95662 0 0 0 -2.603.74927 4.9449 4.9449 0 0 0 -2.35424-.61426h-28.2461a4.99962 4.99962 0 0 0 -5 5v2.02071a16.6 16.6 0 0 0 -13.64142-7.15576h-16.6318a4.953 4.953 0 0 0 -3.10449 1.10865 4.953 4.953 0 0 0 -3.1045-1.10865h-14.12304a4.95543 4.95543 0 0 0 -2.9961 1.01917 4.95538 4.95538 0 0 0 -2.99609-1.01917h-6.123a9.00987 9.00987 0 0 0 -8 4.87891 9.00985 9.00985 0 0 0 -8-4.87891h-6.123a4.99962 4.99962 0 0 0 -5 5v2.45264a19.08279 19.08279 0 0 0 -15.11524-7.45264h-14.12314a4.95538 4.95538 0 0 0 -2.99609 1.01917 4.95538 4.95538 0 0 0 -2.99609-1.01917h-14.12305a4.99962 4.99962 0 0 0 -5 5v44.05347a8.52864 8.52864 0 0 0 15.75684 4.5293 8.53357 8.53357 0 0 0 7.31823-4.44184 4.96646 4.96646 0 0 0 2.04016.44383h6.123a9.00986 9.00986 0 0 0 8-4.87891 9.00987 9.00987 0 0 0 8 4.87891h6.123a4.95538 4.95538 0 0 0 2.99609-1.01917 4.95543 4.95543 0 0 0 2.9962 1.01917h6.123a9.00985 9.00985 0 0 0 8-4.87891 9.00987 9.00987 0 0 0 8 4.87891h6.123a5.02087 5.02087 0 0 0 1.01385-.10345 8.5213 8.5213 0 0 0 15.73517 4.1015 8.51521 8.51521 0 0 0 6.47083-3.17408 8.51776 8.51776 0 0 0 6.47058 3.17408 8.52864 8.52864 0 0 0 15.75684-4.5293v-4.67187a16.62528 16.62528 0 0 0 11.1502-6.97388v7.312a4.99962 4.99962 0 0 0 5 5h28.2461a4.95658 4.95658 0 0 0 2.603-.74927 4.945 4.945 0 0 0 2.3543.61427h14.12305a19.08279 19.08279 0 0 0 15.11523-7.45264v6.92139a8.52864 8.52864 0 0 0 15.75684 4.5293 8.53545 8.53545 0 0 0 7.31817-4.4419 4.966 4.966 0 0 0 2.04023.44385h6.123a9.00985 9.00985 0 0 0 8-4.87891 9.00987 9.00987 0 0 0 8 4.87891h6.12309a4.99962 4.99962 0 0 0 5-5v-25.46167a19.14414 19.14414 0 0 0 -19.123-19.12305z" fill="#1a1a1a"/><path d="m233.04182 53.253 3.03618-11.13257a13.25738 13.25738 0 0 0 -16.27849-16.27849l-93.48451 25.49576a8.15838 8.15838 0 0 0 -3.62224 13.63976l3.50658 3.50659a5.94287 5.94287 0 0 1 0 8.40449l-36.5879 36.58795 4.20238 4.20238a5.94287 5.94287 0 0 0 8.40449 0l32.38569-32.3857a5.94288 5.94288 0 0 1 8.4045 0l.00007.00006a5.94289 5.94289 0 0 1 0 8.4045l-32.38566 32.38565a5.94288 5.94288 0 0 0 0 8.40448 5.94288 5.94288 0 0 0 8.40451 0l32.38564-32.38569a5.94286 5.94286 0 0 1 8.40448 0l.00016.00016a5.94287 5.94287 0 0 1 0 8.4045l-32.38569 32.38569a5.94288 5.94288 0 0 0 0 8.4045l.00013.00013a5.94288 5.94288 0 0 0 8.40449 0l32.3857-32.38571a5.94289 5.94289 0 0 1 8.4045 0 5.94288 5.94288 0 0 1 0 8.40449l-32.38567 32.38572a5.94288 5.94288 0 0 0 0 8.40448l4.20228 4.20231 36.588-36.588a5.94288 5.94288 0 0 1 8.40449 0l3.50658 3.50658a8.15839 8.15839 0 0 0 13.63977-3.62224l14.03772-51.47171a99.56888 99.56888 0 0 1 8.34257 26.73112 98.5123 98.5123 0 0 1 -17.33733 73.88591 5.89713 5.89713 0 0 0 1.34615 8.2309l.00012.00013a5.87958 5.87958 0 0 0 7.09558-.19184 111.24351 111.24351 0 0 1 -10.60889 12.327 6.048 6.048 0 0 0 -.53289 8.02893 5.90679 5.90679 0 0 0 8.75791.44976 122.81951 122.81951 0 0 0 11.3586-160.34198z" fill="#dbe102"/><path d="m168.32648 238.96477.00391.01109a5.92245 5.92245 0 0 0 7.64719 3.5673 139.02485 139.02485 0 0 0 24.61047-11.97924 5.9216 5.9216 0 0 0 1.91265-8.23464 5.92382 5.92382 0 0 0 -8.11184-1.81847 127.973 127.973 0 0 1 -22.48318 10.93279 5.92458 5.92458 0 0 0 -3.5792 7.52117z" fill="#dbe102"/><rect fill="#dbe102" height="12.18875" rx="6.09437" width="12.18875" x="142.22084" y="236.61968"/><path d="m197.496 81.17567c5.17652 5.17652 4.90875 13.83736-.59828 19.34438s-14.16786 5.77481-19.34438.59829a13.19069 13.19069 0 0 1 -2.86131-13.89054 13.19114 13.19114 0 0 1 -13.89054-2.86129c-5.17672-5.17672-4.90873-13.83737.59828-19.34439s14.16766-5.775 19.34438-.59828a13.19114 13.19114 0 0 1 2.86132 13.89052 13.1907 13.1907 0 0 1 13.89053 2.86131m3.19082-3.19083a17.11154 17.11154 0 0 0 -8.50136-4.63854 4.68475 4.68475 0 0 1 -3.612-3.61195 17.11166 17.11166 0 0 0 -4.63846-8.50135c-6.92774-6.92774-19.599-5.52875-26.85665 1.7289s-7.526 18.7983-.59827 25.726a17.09564 17.09564 0 0 0 6.73711 4.1569 9.19 9.19 0 0 1 5.85776 5.85777 17.09571 17.09571 0 0 0 4.157 6.73717c6.92775 6.92773 18.46839 6.65936 25.726-.59829s8.65662-19.92891 1.72888-26.85665z" fill="#5b37de"/><ellipse cx="174.30045" cy="72.36464" fill="#5b37de" rx="6.76876" ry="7.20748" transform="matrix(.70710678 -.70710678 .70710678 .70710678 -.11811 144.44414)"/><ellipse cx="189.5552" cy="87.61939" fill="#5b37de" rx="6.76876" ry="7.20748" transform="matrix(.70710678 -.70710678 .70710678 .70710678 -6.43683 159.69889)"/><path d="m101.755 14.84408-.00392-.0111a5.92245 5.92245 0 0 0 -7.64721-3.56727 139.02315 139.02315 0 0 0 -24.6104 11.97938 5.92162 5.92162 0 0 0 -1.91261 8.23464 5.92383 5.92383 0 0 0 8.11187 1.81845 127.975 127.975 0 0 1 22.48312-10.9329 5.9246 5.9246 0 0 0 3.57915-7.5212z" fill="#5b37de"/><rect fill="#5b37de" height="12.18875" rx="6.09437" width="12.18875" x="115.67178" y="5.00025"/><path d="m144.24121 159.70169 32.38567-32.38569a5.94288 5.94288 0 0 0 0-8.40449 5.94289 5.94289 0 0 0 -8.4045 0l-32.3857 32.38571a5.94288 5.94288 0 0 1 -8.40449 0l-.00013-.00013a5.94288 5.94288 0 0 1 0-8.4045l32.38569-32.38569a5.94287 5.94287 0 0 0 0-8.4045l-.00016-.00016a5.94286 5.94286 0 0 0 -8.40448 0l-32.38564 32.38569a5.94288 5.94288 0 0 1 -8.40451 0 5.94288 5.94288 0 0 1 0-8.40448l32.38566-32.38565a5.94289 5.94289 0 0 0 0-8.4045l-.00007-.00006a5.94288 5.94288 0 0 0 -8.4045 0l-32.38564 32.38569a5.94287 5.94287 0 0 1 -8.40449 0l-4.20238-4.20238-.00006-.00006a24.96021 24.96021 0 0 0 -35.29907 0l-17.64977 17.64966c-.24985.24985-.48108.511-.72614.76379a98.40768 98.40768 0 0 1 18.52-62.83089 5.89714 5.89714 0 0 0 -1.3462-8.2309l-.00012-.00013a5.87966 5.87966 0 0 0 -7.09558.19184 111.24936 111.24936 0 0 1 10.6088-12.32707 6.048 6.048 0 0 0 .53289-8.0289 5.90683 5.90683 0 0 0 -8.758-.44969 122.76826 122.76826 0 0 0 -29.88158 124.66695 66.48865 66.48865 0 0 0 18.146 60.37607l.00006.00012a66.56082 66.56082 0 0 0 94.13113-.00006l17.64966-17.6497a24.96021 24.96021 0 0 0 0-35.29908l-4.20228-4.20231a5.94288 5.94288 0 0 1 -.00007-8.4045z" fill="#5b37de"/><g fill="#dbe102"><path d="m124.55868 158.50044a17.03906 17.03906 0 0 0 -8.95863-4.70378 9.29769 9.29769 0 0 1 -7.47676-7.47682 17.03894 17.03894 0 0 0 -4.70384-8.95862c-6.92774-6.92773-18.46839-6.65936-25.726.59829s-8.65662 19.92891-1.72888 26.85665a17.3457 17.3457 0 0 0 13.75336 4.95236 2.25121 2.25121 0 0 1 2.43358 2.43353 17.34584 17.34584 0 0 0 4.95229 13.75333c6.92774 6.92773 19.599 5.52875 26.85665-1.7289s7.52597-18.7983.59823-25.72604zm-45.40332 3.12489c-5.17653-5.17652-4.90875-13.83736.59827-19.34438s14.16786-5.77481 19.34438-.59829c4.82393 4.82392 4.90875 13.83736-.59827 19.34438s-14.52046 5.42221-19.34438.59829zm21.13923 21.13922c-4.82383-4.82383-4.90875-13.83737.59827-19.34439s14.52056-5.42211 19.34439-.59828c5.17672 5.17671 4.90874 13.83736-.59828 19.34438s-14.16766 5.77501-19.34438.59829z"/><ellipse cx="86.61472" cy="154.70026" rx="6.76876" ry="7.20748" transform="matrix(.70710678 -.70710678 .70710678 .70710678 -84.02073 106.55651)"/><ellipse cx="107.21975" cy="175.30527" rx="6.76876" ry="7.20748" transform="matrix(.70710678 -.70710678 .70710678 .70710678 -92.55561 127.16154)"/><path d="m216.63864 257.41532v32.71531a3.53073 3.53073 0 0 0 3.53073 3.53073 3.53073 3.53073 0 0 0 3.53073-3.53073v-4a3.53077 3.53077 0 0 0 3.53076 3.53077 3.53076 3.53076 0 0 0 3.53076-3.53076v-28.71532z"/><path d="m93.59186 257.41532v32.71531a3.53073 3.53073 0 0 0 3.53073 3.53073 3.53073 3.53073 0 0 0 3.53073-3.53073v-4a3.53077 3.53077 0 0 0 3.53076 3.53077 3.53076 3.53076 0 0 0 3.53076-3.53076v-28.71532z"/><path d="m176.40814 257.41533h-28.246v28.246h28.246a5.64915 5.64915 0 0 0 -5.64916-5.64916h-5.64924a2.82463 2.82463 0 0 1 0-5.64925h8.47382a2.82459 2.82459 0 0 0 0-5.64918h-8.47382a2.82462 2.82462 0 0 1 0-5.64924h5.64924a5.64915 5.64915 0 0 0 5.64916-5.64917z"/><path d="m5.00012 257.41526v32.71531a3.53073 3.53073 0 0 0 3.53073 3.53073 3.53073 3.53073 0 0 0 3.53072-3.53073v-4a3.53078 3.53078 0 0 0 3.53077 3.53077 3.53077 3.53077 0 0 0 3.53076-3.53076v-28.71532z"/><path d="m182.40039 257.41532v28.246h14.12306a14.123 14.123 0 0 0 14.123-14.123 14.123 14.123 0 0 0 -14.123-14.123zm14.123 18.123a4 4 0 0 1 -4-4 4 4 0 0 1 4-4 4 4 0 0 1 4 4 4 4 0 0 1 -3.99998 4z"/><path d="m236.75385 271.53833v14.123h6.12305a4 4 0 0 0 4-4 4 4 0 0 1 4-4 4 4 0 0 1 4 4 4 4 0 0 0 4 4h6.123v-14.123a14.123 14.123 0 0 0 -14.123-14.123 14.123 14.123 0 0 0 -14.12305 14.123zm14.12305 1.49156a4 4 0 0 1 -4-4 4 4 0 0 1 4-4 4 4 0 0 1 4 4 4 4 0 0 1 -4 4z"/><path d="m73.47656 271.53831a14.123 14.123 0 0 0 14.123-14.123h-6.123a4 4 0 0 0 -4 4 4 4 0 0 1 -4 4 4 4 0 0 1 -4-4 4 4 0 0 0 -4-4h-6.123v28.246h6.123a4 4 0 0 0 4-4 4 4 0 0 1 4-4 4 4 0 0 1 4 4 4 4 0 0 0 4 4h6.123a14.123 14.123 0 0 0 -14.123-14.123z"/><path d="m25.11536 257.41532v28.246h6.123a4 4 0 0 0 4-4v-6.123a4 4 0 0 1 4-4 4 4 0 0 1 4 4v6.123a4 4 0 0 0 4 4h6.123v-14.123a14.123 14.123 0 0 0 -14.123-14.123z"/><path d="m113.92389 257.41532v28.71528a3.5307 3.5307 0 0 0 3.5307 3.5307 3.53084 3.53084 0 0 0 3.53082-3.53083v4.0001a3.53073 3.53073 0 0 0 3.53073 3.53073 3.53073 3.53073 0 0 0 3.53072-3.53073v-9.48606h2.5084a11.61457 11.61457 0 0 0 11.61458-11.61458 11.61458 11.61458 0 0 0 -11.61458-11.61459zm14.123 15.61457a4 4 0 0 1 -4-4 4 4 0 0 1 4-4 4 4 0 0 1 4 4 4 4 0 0 1 -4.00001 4z"/></g></svg>