<svg height="500" viewBox="0 0 500 500" width="500" xmlns="http://www.w3.org/2000/svg"><g transform="translate(-97.099564 -71.930069)"><circle cx="347.09958" cy="321.93008" fill="#fbf070" r="250.00002"/><g fill="#3e96fc"><path d="m85.350702 393.95423-24.111695-41.76268-24.111691-41.76267 48.223385-.00001 48.223379.00001-24.11169 41.76267z" transform="matrix(2.4129889 0 0 2.4129889 23.245496 -425.83461)"/><path d="m85.350702 393.95423-24.111695-41.76268-24.111691-41.76267 48.223385-.00001 48.223379.00001-24.11169 41.76267z" transform="matrix(2.4129889 0 0 2.4129889 255.97048 -425.83461)"/><path d="m85.350702 393.95423-24.111695-41.76268-24.111691-41.76267 48.223385-.00001 48.223379.00001-24.11169 41.76267z" transform="matrix(2.4129889 0 0 2.4129889 139.608 -627.38035)"/></g><path d="m340.39864 512.40892c38.86782-11.37508 64.83296-31.98703 93.24196-74.01845 6.30255-9.32472 6.6305-9.56113 13.2611-9.56113 28.26613 0 44.24176-34.92564 24.43827-53.42642-4.99591-4.66734-5.0424-7.43719-.14512-8.66629 4.80904-1.20696 4.78337-2.51932-.21913-11.20219-7.71257-13.38709-19.15304-27.59323-26.65791-33.10229-7.32907-5.38-9.18035-8.67351-5.98542-10.64806 2.18883-1.35272 10.29959 4.00375 17.83755 11.7802 6.70004 6.91208 20.379 27.97716 20.379 31.38295 0 1.0904.68839 1.98253 1.52976 1.98253 3.00824 0 1.43465-6.13834-4.52706-17.659-7.33409-14.17273-13.94695-22.67191-28.18715-36.22761-8.00091-7.61635-10.36088-10.73462-9.08772-12.00777 2.98326-2.98325 7.6995-.0595 18.20718 11.28643 10.53369 11.37426 22.73158 30.36777 24.40988 38.00899.52672 2.39842 1.59145 4.36078 2.36598 4.36078 1.72155 0 1.74363.84646-.26076-9.99651-3.25148-17.58898-13.51995-32.41737-31.7439-45.84037-6.85386-5.0483-12.46582-10.03057-12.47096-11.07176-.005-1.04113 2.5721-3.54028 5.72725-5.55363 12.18146-7.77304 16.90013-16.76183 14.15353-26.9618-1.66996-6.20183-7.82675-12.78393-14.21551-15.19767-4.72243-1.78417-18.96061-.2625-33.86393 3.61949-4.7976 1.24962-10.64303 1.888-12.98988 1.41862-2.34685-.46948-8.33787-4.76341-13.31343-9.5424-16.71738-16.05673-28.06018-18.68783-47.78-11.08308-15.33263 5.91285-20.50055 5.96159-31.12277.29314-4.6113-2.4607-11.00168-4.9651-14.20083-5.56525l-5.81664-1.09122-18.52229 19.14327c-18.02262 18.62688-23.15093 22.59172-31.95268 24.70318-5.15827 1.2375-12.12497 11.60687-22.66596 33.73656-16.56149 34.76909-21.85909 70.83664-15.84836 107.90019 8.02439 49.48026 35.22868 90.35681 74.8993 112.54183 21.32157 11.92371 44.74177 13.9865 71.12677 6.26462z" fill="#ffecd6" fill-opacity=".987805"/><path d="m304.67244 516.77848s109.89949-33.84913 78.0074-232.94159c0 0 7.95569 3.55519 6.65113-.5117 0 0-8.28769-17.52671-16.1533-24.27868-7.86567-6.75197-4.50954-41.03578-21.07896-56.92843-26.29781-25.22368 109.15247 6.00124 109.15247 6.00124l38.37261 85.17757s-13.40334 100.32991-23.56364 117.92814c-10.16037 17.59818-104.42368 101.19823-104.42368 101.19823z" fill="#f3d9b9" opacity=".911765"/><path d="m287.71414 524.30805c-14.6839-3.28229-26.54458-8.35775-39.52452-16.91349-44.59206-29.39278-68.41769-77.50038-68.41769-138.14595 0-26.01167 3.44303-43.77689 13.31355-68.69488l3.84937-9.71787-5.90273-12.46391c-5.12167-10.81469-5.89851-13.88092-5.87076-23.17239.0231-8.40523.94123-12.69061 4.25924-19.92427 4.09915-8.93652 4.1561-9.41756 1.87864-15.87253-3.59318-10.18424-3.03639-25.3927 1.26582-34.57295 4.03497-8.6101 15.75261-20.29342 25.17313-25.09939 10.34336-5.2768 11.39884-4.4715 6.93075 5.28804-4.61021 10.06995-3.95171 14.93177 2.47231 18.25375 5.95067 3.07723 13.53499 2.93867 19.4113-.3546 2.62727-1.47242 9.05732-7.68181 14.28895-13.79866 13.76267-16.09138 19.19453-18.83107 40.25673-20.30445 9.4152-.65863 18.95008-1.90547 21.18864-2.77075 2.2385-.86528 9.46672-7.04879 16.06264-13.74114 8.88176-9.01153 13.57996-12.59084 18.11177-13.79831 10.49167-2.79545 20.45181.84916 35.24157 12.89559 7.71494 6.28389 9.95297 7.22211 23.36007 9.79299 23.85991 4.57523 23.97855 4.66007 37.48955 26.8094 6.77139 11.10077 9.83519 14.60917 15.81494 18.11008 10.4516 6.11898 16.38302 12.16998 25.90084 26.42303 17.97729 26.92104 22.33188 43.99978 19.2497 75.49685-2.19062 22.38601-10.0017 50.52707-19.41003 69.92844l-6.80557 14.03396 3.78352 6.618c7.74454 13.54673 4.21559 32.5093-8.64679 46.46336-7.67638 8.32787-13.06019 11.43035-23.62726 13.61524-7.53078 1.55711-8.18198 2.1272-19.31653 16.90922-25.56237 33.93626-51.39325 52.77406-89.15316 65.01728-13.00075 4.21536-18.05419 5.04297-33.65508 5.51171-12.80961.38507-21.56545-.16536-28.97291-1.8214zm52.68445-11.89913c38.86782-11.37508 64.83295-31.98703 93.24201-74.01845 6.30255-9.32472 6.63044-9.56113 13.26105-9.56113 28.26613 0 44.24181-34.92564 24.43832-53.42642-4.99591-4.66734-5.0424-7.43719-.14512-8.66629 4.80904-1.20696 4.78337-2.51937-.21913-11.20219-7.71257-13.38709-19.15309-27.59323-26.65791-33.10229-7.32907-5.38-9.18035-8.67351-5.98542-10.64806 2.18877-1.35278 10.29959 4.00375 17.83755 11.7802 6.7001 6.91208 20.379 27.97716 20.379 31.38295 0 1.0904.68839 1.98253 1.52976 1.98253 3.00824 0 1.43465-6.13834-4.52706-17.659-7.33403-14.17273-13.94695-22.67191-28.18715-36.22761-8.00097-7.61635-10.36094-10.73462-9.08777-12.00777 2.98325-2.98325 7.69955-.0595 18.20717 11.28643 10.53375 11.37426 22.73164 30.36777 24.40994 38.00899.52672 2.39842 1.59145 4.36078 2.36598 4.36078 1.72155 0 1.74363.84646-.26076-9.99657-3.25148-17.58898-13.51995-32.41731-31.74396-45.84036-6.85385-5.04825-12.46576-10.03052-12.47096-11.07171-.005-1.04113 2.5721-3.54028 5.72725-5.55363 12.18152-7.77304 16.90014-16.76183 14.15359-26.9618-1.66996-6.20183-7.82675-12.78393-14.21551-15.19767-4.72249-1.78417-18.96061-.2625-33.86393 3.61949-4.79766 1.24962-10.64309 1.888-12.98988 1.41862-2.34685-.46948-8.33787-4.76341-13.31349-9.5424-16.71732-16.05679-28.06012-18.68784-47.77994-11.08308-15.33263 5.91285-20.50061 5.96159-31.12277.29314-4.6113-2.46076-11.00173-4.96516-14.20089-5.56525l-5.81658-1.09122-18.52229 19.14327c-18.02267 18.62688-23.15098 22.59172-31.95268 24.70318-5.15827 1.23744-12.12497 11.60687-22.66596 33.73656-16.56149 34.76909-21.85909 70.83664-15.84842 107.90013 8.02445 49.48032 35.22874 90.35681 74.89931 112.54189 21.32162 11.92371 44.74175 13.9865 71.12682 6.26462zm155.35443-200.47884c6.89883-25.91975 7.50974-52.81546 1.57735-69.44125-6.59193-18.47413-20.41676-39.17933-31.27298-46.83712-3.97581-2.80447-10.15504-9.92332-15.30804-17.6359-10.54885-15.78853-17.96822-21.72649-31.34537-25.08672-16.87284-4.23832-26.76238-8.59988-34.30849-15.13102-7.82572-6.77311-17.48955-11.77801-22.84433-11.8311-4.30348-.0428-12.51635 7.14199-19.77625 17.30039-8.56533 11.98493-16.09809 19.38068-19.73972 19.38068-1.80099 0-7.27621-1.3768-12.16724-3.05956-17.14395-5.89838-22.26811-3.97875-43.81106 16.4126-16.53448 15.65062-21.98554 18.77229-32.77994 18.77229-12.99717 0-22.13051-6.8285-22.41278-16.7568l-.13529-4.7535-3.57676 3.3602c-11.25475 10.57327-13.84432 32.35184-5.93749 49.93417 5.89829 13.11592 12.45183 18.69857 21.95052 18.69857 10.91137 0 17.41339-4.25178 35.10471-22.95574 22.0455-23.30726 27.47656-25.2773 44.25712-16.05356 5.35746 2.9448 10.8617 5.35421 12.23165 5.35421 1.37001 0 10.94843-4.47459 21.28543-9.94355 10.337-5.46895 20.10322-9.94356 21.70271-9.94356 5.18283 0 15.33059 8.21686 26.50792 21.46393 6.01243 7.12583 11.69863 13.4618 12.63598 14.07994 3.23697 2.13471 9.57773 1.15422 22.10749-3.41857 13.89589-5.07137 26.11251-5.96825 34.35932-2.5225 11.67677 4.87883 20.19787 22.29089 16.4565 33.62722-1.75821 5.32738-9.63139 14.60654-17.44357 20.55853l-4.35605 3.31884 12.90131 12.21211c13.72053 12.98762 20.86671 24.054 24.27031 37.58414l1.92124 7.63746 2.11575-5.18521c1.16371-2.85184 3.78716-11.46463 5.82988-19.13962zm-280.30813-55.09929c2.36852-3.34265 2.67415-4.65658 1.19776-5.14866-1.09028-.36368-4.24375-2.64641-7.00781-5.07322-5.92778-5.2047-10.73381-5.65337-13.1046-1.2235-2.79494 5.22239-1.96513 19.85663 1.59712 28.16703l3.22031 7.51257 5.45857-9.87312c3.00228-5.43029 6.88964-11.89278 8.63865-14.3611z" stroke-width="1.52978"/><path d="m215.44506 256.83068c2.36853-3.34266 2.67416-4.65658 1.19776-5.14868-1.09028-.36367-4.2438-2.64634-7.00781-5.07321-5.92777-5.2047-10.73381-5.65336-13.1046-1.22349-2.79494 5.22238-1.96519 19.85662 1.59712 28.16709l3.22025 7.51251 5.45864-9.87312c3.00221-5.43024 6.88963-11.89278 8.63864-14.3611z" fill="#fbf070"/><path d="m495.75314 311.93002c6.89883-25.9198 7.50974-52.81551 1.57734-69.44131-6.59192-18.47412-20.4167-39.17932-31.27297-46.83711-3.97582-2.80447-10.15499-9.92332-15.30805-17.6359-10.54884-15.78853-17.96816-21.72649-31.3453-25.08671-16.87285-4.23833-26.76239-8.59989-34.30856-15.13103-7.82566-6.77311-17.48953-11.77802-22.84427-11.8311-4.30348-.0428-12.51635 7.14199-19.77631 17.30039-8.56527 11.98494-16.09802 19.38068-19.73972 19.38068-1.80092 0-7.27621-1.3768-12.16723-3.05956-17.1439-5.89837-22.26805-3.97875-43.81107 16.41259-16.53442 15.65063-21.98548 18.7723-32.77988 18.7723-12.99717 0-22.1305-6.8285-22.41278-16.7568l-.13528-4.7535-3.57677 3.36021c-11.25475 10.57326-13.84432 32.35181-5.93748 49.93415 5.89828 13.11593 12.45188 18.69858 21.95051 18.69858 10.91137 0 17.41339-4.25179 35.10471-22.95574 22.0455-23.30726 27.47656-25.2773 44.25712-16.05356 5.35746 2.9448 10.8617 5.35421 12.23165 5.35421 1.37001 0 10.94844-4.47459 21.28543-9.94355 10.337-5.46895 20.10328-9.94356 21.70271-9.94356 5.18283 0 15.3306 8.21686 26.50793 21.46399 6.01242 7.12577 11.69862 13.46173 12.63597 14.07993 3.23697 2.13471 9.57779 1.15417 22.1075-3.41862 13.89589-5.07137 26.1125-5.96825 34.35932-2.52251 11.6767 4.87884 20.1978 22.29089 16.45649 33.62723-1.75819 5.32738-9.63138 14.60653-17.44357 20.55853l-4.35603 3.31884 12.90124 12.2121c13.72053 12.98763 20.86676 24.05401 24.27036 37.58414l1.92119 7.63746 2.1158-5.18515c1.16365-2.85189 3.7871-11.46469 5.82988-19.13962z" fill="#fbf070"/><path d="m362.52816 192.86404c5.59867 2.69262 13.6988 9.96961 22.42671 20.3137 6.01242 7.12577 11.69862 13.46174 12.63597 14.07994 3.23697 2.13471 9.57779 1.15417 22.1075-3.41863 13.89589-5.07136 26.1125-5.96824 34.35932-2.5225 11.6767 4.87883 20.1978 22.29089 16.45649 33.62723-1.75819 5.32738-9.63138 14.60653-17.44357 20.55853l-4.35603 3.31883 12.90124 12.21211c13.72053 12.98763 20.86676 24.05401 24.27036 37.58414l1.92119 7.63746 2.1158-5.18515c1.16365-2.8519 3.7871-11.46469 5.82988-19.13962h.00012c6.89883-25.91981 7.50974-52.81552 1.57734-69.44131-6.59192-18.47412-20.4167-39.17932-31.27297-46.8371-3.97582-2.80448-10.15499-9.92333-15.30805-17.63591-10.54884-15.78851-17.96816-21.72649-31.3453-25.08671-16.87285-4.23832-26.76239-8.59989-34.30856-15.13103-7.82566-6.7731-17.48953-11.77801-22.84427-11.8311-2.12373-.0214-5.19955 1.71794-8.64304 4.7059 0 0 25.16209 42.82002 8.91987 62.19122z" fill="#d9d34b"/><path d="m231.78089 266.67969c1.80931-3.38082 16.47366-13.77488 19.43408-13.77488 1.93391 0 5.04605 4.65542 5.04605 7.5483 0 .8967-1.5489 1.64667-3.44205 1.66668-1.89309.0174-7.57235 1.73778-12.62065 3.81734-11.03007 4.54371-10.42315 4.49017-8.41743.74256z"/><path d="m377.59714 276.30026c-4.7155-4.86068-11.49094-9.80443-16.71425-12.19574l-8.78418-4.02156 4.47601-3.5815c2.46185-1.96982 5.58086-3.58492 6.93121-3.58908 3.01726-.0116 16.86822 14.40267 20.39317 21.21917 1.41823 2.74262 2.36478 6.19178 2.10338 7.66475-.36541 2.05967-2.30689.79026-8.40534-5.49604z"/><path d="m235.85986 329.31768c-9.62237-7.56894-4.92364-33.57912 6.06608-33.57912 7.44278 0 10.95218 17.48301 5.72187 28.50504-3.51565 7.40862-6.94398 8.88438-11.78795 5.07408z"/><path d="m366.405 327.03849c-10.09509-6.818-23.79908-12.94259-28.95948-12.94259-1.56122 0-3.2494-1.07062-3.75155-2.37923-1.32808-3.461 8.40205-7.22504 20.47279-7.91979 8.03514-.46254 10.90044.029 14.92929 2.55471 8.75577 5.49153 13.34279 16.88712 10.14839 25.21164-1.2454 3.24541-1.43187 3.17966-12.83944-4.52474z"/><path d="m454.35895 353.85823c-2.33685-3.37202-7.57687-8.52197-11.64451-11.44428-4.99585-3.58919-7.1064-6.06735-6.50404-7.637.4903-1.27807 1.71691-2.32371 2.72549-2.32371 5.60434 0 22.31529 18.53096 22.31529 24.74574 0 4.40524-2.29527 3.29269-6.89223-3.34075z"/><path d="m440.78221 363.657c-6.15234-7.19331-6.00074-11.11124.35211-9.09495 3.46309 1.09913 9.40862 9.718 9.40862 13.63907 0 4.3236-3.61573 2.64022-9.76056-4.54412z"/><path d="m273.6689 380.23538c-2.65623-1.74144-14.34837-21.52798-14.34837-24.28176 0-1.34855 5.52239-8.9689 12.272-16.93413 6.74954-7.96524 15.03966-19.5252 18.42243-25.68876 6.30053-11.4799 9.89469-15.75741 11.71257-13.93954 1.96998 1.96998-4.98493 18.64659-15.24856 36.56329-5.68198 9.9188-10.33087 19.41142-10.33087 21.0948 0 1.68333 2.4094 6.63842 5.3542 11.01123 2.94482 4.3728 5.35422 8.74658 5.35422 9.71949 0 3.2073-9.3775 4.9533-13.18762 2.45538z"/><path d="m265.43967 442.07079c-11.83096-4.18982-14.8626-5.7427-26.30475-13.47394-4.79175-3.23771-9.41878-5.88672-10.28225-5.88672-.86351 0-2.14893 2.23427-2.85657 4.9651l-1.28657 4.96509-6.40605-10.96867c-3.52334-6.03277-6.39008-12.22534-6.37059-13.76135.0289-2.38198 12.60706-17.32549 14.58155-17.32549.37467 0 .68075 2.38518.68075 5.30038 0 6.6331 1.20182 7.28517 20.94622 11.36494 18.60236 3.84383 36.38457 4.11355 51.41624.77997 20.52646-4.5522 38.53538-10.10022 41.26203-12.71176 2.4963-2.39079 2.53267-3.11936.45041-9.0214-1.29363-3.66649-1.62285-6.42061-.76749-6.42061 2.27233 0 29.96634 22.4304 30.99106 25.1008.49261 1.28374-.0578 5.6267-1.22309 9.65103-1.16527 4.02439-2.88248 10.24276-3.81596 13.81859-2.2988 8.80574-4.63888 8.20275-4.63888-1.19533 0-9.64966-2.64797-11.08003-11.36536-6.13928-43.42808 24.61375-61.8589 29.15769-85.01064 20.95865z"/><path d="m271.94117 461.66382c-4.41721-2.22336-8.03131-4.56621-8.03131-5.20633 0-.64015 6.34036-1.61393 14.0897-2.16402 11.00862-.78141 14.55375-.53597 16.21197 1.12226 1.65015 1.65013 1.73681 2.84275.38913 5.36034-.95314 1.78092-2.65526 3.23806-3.78254 3.23806-1.12734 0-4.02879.38044-6.44779.84606-3.01199.57939-6.92918-.42786-12.42944-3.19637z"/><path d="m287.71432 524.30794c-14.6839-3.28229-26.54458-8.35777-39.52458-16.9135-44.59207-29.39277-68.41764-77.50038-68.41764-138.14594 0-26.01168 3.44304-43.7769 13.31349-68.69488l3.84944-9.71788-5.90274-12.4639c-5.12172-10.81464-5.89857-13.88092-5.87076-23.17239.0231-8.40517.94123-12.69062 4.25925-19.92427 4.09915-8.93653 4.15604-9.41758 1.87863-15.87253-3.59324-10.18425-3.03638-25.3927 1.26577-34.57295 4.03502-8.6101 15.75267-20.29342 25.17312-25.09939 10.34343-5.2768 11.39884-4.4715 6.93081 5.28804-4.6102 10.06996-3.95171 14.93178 2.47232 18.25375 5.95066 3.07722 13.53494 2.93867 19.41124-.3546 2.62727-1.47242 9.05731-7.68181 14.28895-13.79866 13.76267-16.09138 19.19453-18.83107 40.25673-20.30445 9.41525-.65863 18.95013-1.90547 21.18869-2.77075 2.2385-.86528 9.46666-7.04879 16.06264-13.74114 8.88171-9.01153 13.57992-12.59084 18.11172-13.79831 10.49172-2.79545 20.45186.84916 35.24162 12.89559 7.71494 6.28389 9.95297 7.22212 23.36007 9.79299 23.85991 4.57523 23.97855 4.66007 37.48949 26.8094 6.77146 11.10077 9.8352 14.60917 15.81495 18.11008 10.45159 6.11898 16.38301 12.16998 25.90089 26.42302 17.97724 26.92105 22.33183 43.99978 19.24964 75.49692-2.19055 22.38594-10.0017 50.52701-19.41003 69.92837l-6.80551 14.03397 3.78346 6.618c7.74454 13.54673 4.2156 32.50929-8.64673 46.46335-7.67637 8.32787-13.06025 11.43035-23.62731 13.61525-7.53073 1.5571-8.18193 2.12719-19.31648 16.90922-25.56243 33.93626-51.39325 52.77412-89.15315 65.01727-13.00076 4.21537-18.0542 5.04298-33.65509 5.51171-12.8096.38507-21.56545-.16536-28.9729-1.82139z" fill="none"/><path d="m319.74674 428.27179c31.61554-12.96854 38.95877-18.34657 31.99929-23.43544-4.00636-2.92955-9.4-2.49337-21.94959 1.77501-6.12603 2.0836-18.09022 5.27679-26.58709 7.09599-18.11241 3.87799-35.7916 3.36456-58.34422-1.69426-18.00291-4.03832-19.19969-3.98472-19.19969.85988 0 3.48489 1.78098 4.771 15.69566 11.33449 21.66454 10.21916 23.81931 10.70107 45.49542 10.17556 18.01094-.43653 19.92236-.79182 32.89022-6.11123z" fill="#fff"/></g></svg>