<?xml version="1.0" encoding="UTF-8" standalone="no"?>
<svg
   xmlns:dc="http://purl.org/dc/elements/1.1/"
   xmlns:cc="http://creativecommons.org/ns#"
   xmlns:rdf="http://www.w3.org/1999/02/22-rdf-syntax-ns#"
   xmlns:svg="http://www.w3.org/2000/svg"
   xmlns="http://www.w3.org/2000/svg"
   id="svg8"
   version="1.1"
   viewBox="0 0 98.716042 89.61438"
   height="89.61438mm"
   width="98.716042mm">
  <defs
     id="defs2" />
  <metadata
     id="metadata5">
    <rdf:RDF>
      <cc:Work
         rdf:about="">
        <dc:format>image/svg+xml</dc:format>
        <dc:type
           rdf:resource="http://purl.org/dc/dcmitype/StillImage" />
        <dc:title></dc:title>
      </cc:Work>
    </rdf:RDF>
  </metadata>
  <g
     transform="translate(48.067223,-324.60355)"
     id="layer1">
    <g
       transform="translate(73.106269,42.928594)"
       id="g888">
      <g
         transform="matrix(0.26458333,0,0,0.26458333,-101.83245,285.70791)"
         id="Livello_3">
        <g
           id="g825">
          <path
             style="fill:#f1243c"
             d="m -52.9,215.9 c 0.7,0.1 1.3,0.3 1.9,0.5 0.6,0.3 1.1,0.6 1.6,1.1 0.5,0.5 1.1,1.1 1.8,1.9 l 48.8,61.7 c -0.2,-2 -0.3,-3.9 -0.4,-5.7 -0.1,-1.9 -0.1,-3.6 -0.1,-5.3 v -54.4 h 21 V 318.4 H 9.2 c -1.8,0 -3.4,-0.3 -4.7,-0.8 C 3.2,317 2,316 0.8,314.5 l -48.4,-61.2 c 0.1,1.8 0.3,3.5 0.4,5.3 0.1,1.7 0.1,3.3 0.1,4.8 v 55.1 h -21 V 215.7 h 12.5 c 1.2,0 2,0.1 2.7,0.2 z"
             id="path815" />
          <path
             style="fill:#f1243c"
             d="m 56.6,225.3 c 0,1.7 -0.4,3.4 -1.1,4.9 -0.7,1.5 -1.7,2.9 -2.9,4 -1.2,1.2 -2.6,2.1 -4.3,2.7 -1.6,0.7 -3.3,1 -5.2,1 -1.8,0 -3.5,-0.3 -5,-1 -1.6,-0.7 -2.9,-1.6 -4.1,-2.7 -1.2,-1.2 -2.1,-2.5 -2.8,-4 -0.7,-1.5 -1,-3.2 -1,-4.9 0,-1.8 0.3,-3.5 1,-5 0.7,-1.6 1.6,-2.9 2.8,-4.1 1.2,-1.2 2.6,-2.1 4.1,-2.8 1.6,-0.7 3.2,-1 5,-1 1.8,0 3.6,0.3 5.2,1 1.6,0.7 3,1.6 4.3,2.8 1.2,1.2 2.2,2.5 2.9,4.1 0.8,1.6 1.1,3.2 1.1,5 z m -2.5,20 v 73.1 H 32.2 v -73.1 z"
             id="path817" />
          <path
             style="fill:#f1243c"
             d="m 56.2,245.3 h 17.5 c 1.6,0 2.9,0.4 4,1.1 1.1,0.7 1.8,1.6 2,2.7 l 7.3,32.8 c 0.6,2.5 1.1,4.9 1.6,7.3 0.5,2.4 0.9,4.7 1.3,7 0.7,-2.3 1.4,-4.6 2.1,-6.9 0.7,-2.3 1.4,-4.8 2.2,-7.3 l 9.2,-32.9 c 0.3,-1.1 1,-2 2,-2.7 1.1,-0.7 2.3,-1.1 3.7,-1.1 h 9.7 c 1.6,0 2.9,0.4 4,1.1 1.1,0.7 1.8,1.6 2.1,2.7 l 8.7,32.9 c 0.7,2.5 1.3,4.9 2,7.3 0.7,2.4 1.3,4.7 1.9,7.1 0.4,-2.3 0.8,-4.7 1.4,-7 0.5,-2.3 1.1,-4.8 1.7,-7.4 l 7.8,-32.8 c 0.2,-1.1 0.9,-2 2,-2.7 1.1,-0.7 2.4,-1.1 3.8,-1.1 h 16.6 l -22.7,73.1 h -17.8 c -0.9,0 -1.7,-0.3 -2.4,-0.8 -0.7,-0.6 -1.2,-1.5 -1.6,-2.8 L 116,278.3 c -0.5,-1.6 -0.9,-3.3 -1.3,-4.9 -0.4,-1.6 -0.8,-3.2 -1.1,-4.8 -0.3,1.6 -0.7,3.3 -1.1,4.9 -0.4,1.6 -0.9,3.3 -1.4,4.9 l -10.6,36.3 c -0.7,2.4 -2.3,3.7 -4.7,3.7 H 78.9 Z"
             id="path819" />
          <path
             style="fill:#f1243c"
             d="m 197.3,225.3 c 0,1.7 -0.4,3.4 -1.1,4.9 -0.7,1.5 -1.7,2.9 -2.9,4 -1.2,1.2 -2.6,2.1 -4.3,2.7 -1.6,0.7 -3.3,1 -5.2,1 -1.8,0 -3.5,-0.3 -5,-1 -1.6,-0.7 -2.9,-1.6 -4.1,-2.7 -1.2,-1.2 -2.1,-2.5 -2.8,-4 -0.7,-1.5 -1,-3.2 -1,-4.9 0,-1.8 0.3,-3.5 1,-5 0.7,-1.6 1.6,-2.9 2.8,-4.1 1.2,-1.2 2.6,-2.1 4.1,-2.8 1.6,-0.7 3.2,-1 5,-1 1.8,0 3.6,0.3 5.2,1 1.6,0.7 3,1.6 4.3,2.8 1.2,1.2 2.2,2.5 2.9,4.1 0.8,1.6 1.1,3.2 1.1,5 z m -2.5,20 v 73.1 h -21.9 v -73.1 z"
             id="path821" />
          <path
             style="fill:#f1243c"
             d="M 282.5,215.7 H 295 v 102.7 h -21 v -55.1 c 0,-1.5 0,-3.1 0.1,-4.8 0.1,-1.7 0.2,-3.5 0.4,-5.3 l -48.4,61.2 c -1.2,1.5 -2.4,2.5 -3.7,3.1 -1.3,0.6 -2.8,0.8 -4.7,0.8 H 205.3 V 215.7 h 21 v 54.4 c 0,1.6 0,3.4 -0.1,5.3 -0.1,1.9 -0.2,3.8 -0.4,5.7 l 48.8,-61.7 c 0.7,-0.8 1.2,-1.4 1.8,-1.9 0.5,-0.5 1.1,-0.8 1.6,-1.1 0.6,-0.3 1.2,-0.4 1.9,-0.5 0.7,-0.1 1.6,-0.2 2.6,-0.2 z"
             id="path823" />
        </g>
      </g>
      <g
         transform="matrix(0.26458333,0,0,0.26458333,-101.83245,285.70791)"
         id="svg8-1">
        <g
           id="g840">
          <g
             id="layer1-1"
             transform="translate(-174.16457,-55.467844)">
            <path
               style="fill:#f1243c"
               id="path2081"
               d="m 190.4,220.1 c 0.4,0.5 0.7,0.9 1.1,1.3 0.8,0.9 1.8,1.6 2.8,2.2 1,0.5 2.1,0.8 3.2,0.9 1.2,0.1 2.4,-0.1 3.6,-0.4 2.5,-0.7 5.3,-2.3 8.4,-4.6 3.1,-2.3 6.7,-5.4 10.9,-9.3 0.1,-0.1 0.2,-0.2 0.2,-0.2 0,0 0,0 -0.2,0.1 -0.2,0.1 -0.4,0.1 -0.8,0 -0.3,-0.1 -0.5,-0.2 -0.7,-0.3 -0.1,-0.1 -0.2,-0.2 -0.2,-0.2 0,0 0,0.1 0,0.2 0.1,0.3 0.1,0.6 0.2,1.2 0.1,1.1 0.1,2.6 0.1,4.4 0,1.7 0,3.8 0,5.8 0,0.5 0,0.9 0,1.4 0.1,3.7 0.4,7.7 1.4,11 0.6,1.9 1.4,3.7 2.7,5.2 1.3,1.5 3,2.6 5.2,2.9 2,0.3 3.8,-0.2 5.4,-1.2 1.5,-0.9 2.8,-2.3 3.9,-3.8 0.5,-0.7 1,-1.5 1.5,-2.3 4.8,-8.4 6.9,-24.2 5.7,-26.7 -1.2,-2.5 -5.4,14 -6.4,16.9 -0.9,2.8 -2.1,5.5 -3.3,7.7 -0.4,0.7 -0.8,1.3 -1.2,1.9 -0.9,1.2 -1.8,2 -2.6,2.5 -0.8,0.4 -1.5,0.5 -2.1,0.4 -0.8,-0.1 -1.5,-0.5 -2,-1.3 -0.6,-0.8 -1.2,-1.9 -1.6,-3.4 -0.8,-2.7 -1.1,-6.2 -1.3,-9.8 0,-0.5 0,-0.9 -0.1,-1.3 -0.1,-2 -0.1,-4 -0.2,-5.8 -0.1,-1.8 -0.2,-3.4 -0.3,-4.8 -0.1,-0.7 -0.2,-1.3 -0.4,-1.9 -0.1,-0.3 -0.2,-0.6 -0.4,-0.9 -0.2,-0.3 -0.4,-0.6 -0.7,-0.9 -0.3,-0.3 -0.7,-0.6 -1.3,-0.7 -0.5,-0.1 -1.1,-0.1 -1.5,0 -0.4,0.1 -0.8,0.3 -1.1,0.5 -0.3,0.2 -0.6,0.5 -0.8,0.7 -4,4 -7.3,7.1 -10.2,9.4 -2.9,2.3 -5.2,3.8 -7.1,4.6 -1,0.4 -1.8,0.6 -2.6,0.6 -0.8,0 -1.5,-0.1 -2.3,-0.4 -0.8,-0.3 -1.5,-0.8 -2.3,-1.5 -0.3,-0.3 -0.6,-0.7 -1,-1.1 -1.2,-1.1 -2.2,-2.1 -2.7,-2.2 -0.5,-0.3 0.3,2.1 1.1,3.2 z" />
            <path
               style="fill:#f1243c"
               id="path832-2-5-8"
               d="m 242.9,203.4 c -2.1,1.3 -15.2,-25 -5.1,-72 v 0 c 3.6,-16.6 11.7,-34.7 25.5,-50 10.5,-11.6 23.8,-21.3 39.2,-27.9 11.6,-5 24.6,-8.6 38.2,-8.3 5.3,0.1 10.7,0.6 16.2,1.6 13.9,2.7 26.9,8.8 37.1,19 5.8,6 10.4,13.1 13.6,20.7 3.2,7.7 5.1,15.8 5.9,23.8 1.7,16.8 -1.1,32.9 -6.6,46.2 -2.7,6.7 -6.2,12.7 -10.4,17.8 -4,4.9 -8.8,8.8 -14,11 -12.9,5.4 -20.2,8.4 -29.2,13.1 -8,4.2 -12.3,7.1 -16.2,10.4 -3.4,2.9 -4.9,4.9 -5.3,4.5 -1,-0.8 4.3,-10.1 19.3,-19.6 8.5,-5.4 16.7,-9.4 28.8,-15.4 4,-1.9 7.7,-5.3 11,-9.6 3.4,-4.5 6.2,-9.9 8.5,-15.9 4.5,-12.1 6.7,-26.6 5,-41.4 -0.8,-7 -2.5,-14 -5.4,-20.5 -2.8,-6.4 -6.7,-12.4 -11.6,-17.3 -8.4,-8.7 -19.7,-13.7 -32.3,-16.1 -4.9,-0.9 -9.8,-1.4 -14.7,-1.6 -11.9,-0.4 -23.7,2.8 -34.6,7.3 -14.3,6 -26.6,14.6 -36.5,25 -12.9,13.6 -20.8,29.9 -24.8,45.1 v 0 c -10.7,41.1 -0.1,69.2 -1.6,70.1 z" />
            <path
               id="path853-3-0-4"
               d="m 271.8,168.9 c -0.84895,0.33663 -0.77943,1.22739 -0.8,2 -0.0213,0.79972 0.2,1.8 0.4,2.9 0.5,2.2 1.5,5.1 2.6,7.9 1.1,2.8 2.4,5.6 3.5,7.7 0.6,1 1.1,1.9 1.6,2.6 0.3,0.3 0.5,0.6 0.8,0.8 0.3,0.2 0.6,0.4 1,0.4 0.6,0 0.9,-0.3 1.3,-0.7 0.4,-0.4 0.8,-0.8 1.2,-1.4 0.9,-1.1 1.9,-2.6 2.9,-4.1 1,-1.5 2.1,-2.9 3.1,-3.9 0.5,-0.5 0.9,-0.9 1.3,-1.2 0.4,-0.3 0.7,-0.3 0.8,-0.3 0.1,0 0.4,0.1 0.8,0.5 0.4,0.4 0.8,1 1.3,1.7 0.9,1.4 2,3.4 3,5.3 1,2 2,3.9 2.9,5.5 0.5,0.8 0.9,1.4 1.3,2 0.4,0.5 0.8,0.9 1.4,1.1 0.5,0.1 0.8,-0.1 1.1,-0.3 0.3,-0.2 0.6,-0.5 0.9,-0.8 0.6,-0.7 1.4,-1.6 2.2,-2.8 1.6,-2.3 3.5,-5.4 5.2,-8.6 1.7,-3.2 3.3,-6.4 4.3,-9 0.5,-1.3 0.7906,-2.40214 1,-3.3 0.24569,-1.05349 -0.0714,-1.90797 -0.7,-2.4 -0.7664,-0.59993 -1.48277,-0.006 -2.1,0.5 -0.60377,0.49545 -1.2,1.3 -1.9,2.2 -1.3,1.9 -2.8,4.4 -4.3,7 -1.5,2.6 -2.9,5.3 -4,7.3 -0.6,1 -1,1.8 -1.4,2.4 -0.1,0.2 -0.2,0.2 -0.2,0.3 0,-0.1 -0.1,-0.1 -0.1,-0.2 -0.3,-0.4 -0.7,-1.1 -1.2,-1.9 -0.9,-1.6 -2,-3.8 -3.1,-5.9 -1.1,-2.2 -2.2,-4.3 -3.2,-6 -0.5,-0.8 -0.9,-1.5 -1.3,-2 -0.2,-0.3 -0.4,-0.5 -0.5,-0.6 -0.2,-0.2 -0.4,-0.4 -0.8,-0.4 -0.4,0 -0.6,0.2 -0.8,0.3 -0.2,0.1 -0.3,0.3 -0.5,0.5 -0.3,0.4 -0.7,0.9 -1.2,1.6 -0.9,1.3 -1.9,2.9 -2.9,4.5 -1,1.6 -2.1,3.2 -3.1,4.3 -0.5,0.5 -0.9,1 -1.3,1.2 -0.4,0.2 -0.6,0.2 -0.6,0.2 0,0 -0.4,-0.2 -0.7,-0.7 -0.3,-0.5 -0.7,-1.2 -1.1,-2 -0.8,-1.7 -1.7,-3.8 -2.5,-5.9 -0.9,-2.1 -1.7,-4.2 -2.5,-5.7 -0.4,-0.8 -0.82775,-1.37405 -1.2,-1.8 -0.63263,-0.72389 -1.09709,-1.11838 -1.9,-0.8 z"
               style="fill:#f1243c" />
            <g
               id="g5373-5-2"
               transform="matrix(0.89194169,0,0,0.89194169,203.45959,60.732278)">
              <path
                 style="fill:#f1243c"
                 id="path836-8-2-9-31"
                 d="m 75.2,66.7 c -5.8,0 -10.5,11.2 -10.5,25.1 0,0 0,0 0,0 0,13.9 4.7,25.1 10.5,25.1 0,0 0,0 0,0 5.8,0 10.5,-11.2 10.5,-25.1 C 85.7,78 81,66.7 75.2,66.7 Z m 0,3.5 c 3.2,0 5.9,4.3 5.9,9.7 0,5.3 -2.6,9.7 -5.9,9.7 0,0 0,0 0,0 -3.2,0 -5.9,-4.3 -5.9,-9.7 0,0 0,0 0,0 0,-5.4 2.7,-9.7 5.9,-9.7 z" />
              <g
                 id="g991-2-9-26"
                 transform="matrix(1.0109636,0,0,1,41.385932,-115.73539)">
                <path
                   style="fill:#f1243c"
                   id="path836-8-4-4-7-15"
                   d="m 91.5,186.4 c -5.8,0 -10.5,11.2 -10.5,25.1 0,0 0,0 0,0 0,13.9 4.7,25.1 10.5,25.1 0,0 0,0 0,0 5.8,0 10.5,-11.3 10.5,-25.1 0,-13.8 -4.7,-25.1 -10.5,-25.1 z m 0,3.5 c 3.2,0 5.9,4.3 5.9,9.7 0,5.3 -2.6,9.7 -5.9,9.7 -3.2,0 -5.9,-4.3 -5.9,-9.7 0,0 0,0 0,0 0.1,-5.4 2.7,-9.7 5.9,-9.7 0,0 0,0 0,0 z" />
                <g
                   id="g898-2-0-2-5"
                   transform="translate(13.661546,0.67451095)" />
              </g>
            </g>
            <path
               style="fill:#f1243c"
               id="path1960-5-0"
               d="m 260.6,219 c 1.3,0.1 2.6,10.9 -4.7,22.8 -1.4,2.2 -2.9,4.2 -4.5,5.9 -3,3.3 -5.9,5.6 -8.4,7.1 -1.3,0.8 -2.4,1.3 -3.3,1.6 -1.2,0.4 -2,0.4 -2.1,0 0,-0.2 0.3,-0.9 1.1,-1.6 0.4,-0.4 1.6,-1.6 2.3,-2.4 1.9,-2 4.2,-4.4 6.7,-7.6 1.3,-1.7 2.6,-3.5 3.9,-5.5 3.3,-5.3 5.1,-10 6.4,-13.9 1.3,-3.9 1.8,-6.4 2.6,-6.4 z" />
            <path
               style="fill:#f1243c"
               id="path1960-6-0-2"
               d="m 311.5,222.9 c 1.4,0.1 1.4,10.2 6.5,21.1 1,2.1 2.1,4.1 3.2,5.9 2.1,3.5 4.1,6.2 5.8,8.4 0.7,0.9 1.7,2.2 2,2.7 0.7,0.8 0.9,1.6 0.9,1.7 -0.1,0.4 -0.9,0.3 -2,-0.2 -0.9,-0.4 -1.9,-1 -3.1,-1.9 -2.3,-1.8 -5,-4.4 -7.5,-8 -1.4,-1.9 -2.6,-4.1 -3.7,-6.4 -6,-12.7 -3.4,-23.4 -2.1,-23.3 z" />
            <path
               style="fill:#f1243c"
               id="path2081-0"
               d="m 383.4,234.4 c -0.4,0.4 -0.8,0.8 -1.3,1.1 -1,0.8 -2,1.4 -3,1.8 -1.1,0.4 -2.2,0.5 -3.3,0.5 -1.2,-0.1 -2.3,-0.4 -3.5,-0.9 -2.4,-1.1 -4.9,-3 -7.7,-5.7 -2.8,-2.7 -5.9,-6.3 -9.5,-10.7 -0.1,-0.1 -0.2,-0.2 -0.2,-0.2 0,0 0,0 0.2,0.1 0.2,0.1 0.4,0.1 0.8,0.1 0.3,0 0.6,-0.2 0.7,-0.2 0.1,-0.1 0.2,-0.1 0.2,-0.1 0,0 0,0.1 -0.1,0.2 -0.1,0.3 -0.2,0.6 -0.3,1.2 -0.2,1.1 -0.5,2.5 -0.7,4.3 -0.2,1.7 -0.5,3.7 -0.8,5.8 -0.1,0.5 -0.1,0.9 -0.2,1.4 -0.6,3.7 -1.5,7.6 -2.9,10.7 -0.8,1.8 -1.9,3.5 -3.3,4.7 -1.5,1.3 -3.3,2.1 -5.6,2.1 -2,0 -3.7,-0.8 -5.2,-1.9 -1.4,-1.1 -2.4,-2.6 -3.3,-4.3 -0.4,-0.8 -0.8,-1.7 -1.2,-2.5 -3.6,-9 -3.5,-24.9 -1.9,-27.2 1.5,-2.3 3.5,14.7 4,17.6 0.5,2.9 1.3,5.7 2.2,8 0.3,0.7 0.6,1.4 1,2.1 0.7,1.3 1.5,2.2 2.2,2.8 0.7,0.5 1.4,0.7 2.1,0.7 0.8,0 1.5,-0.3 2.2,-1 0.7,-0.7 1.4,-1.7 2.1,-3.2 1.2,-2.6 2,-6 2.6,-9.6 0.1,-0.4 0.2,-0.9 0.2,-1.3 0.4,-2 0.7,-3.9 1,-5.7 0.3,-1.8 0.6,-3.4 1,-4.7 0.2,-0.7 0.4,-1.3 0.7,-1.8 0.1,-0.3 0.3,-0.6 0.5,-0.8 0.2,-0.3 0.5,-0.6 0.8,-0.8 0.4,-0.3 0.8,-0.5 1.4,-0.6 0.6,-0.1 1.1,0 1.5,0.2 0.4,0.2 0.8,0.4 1,0.7 0.3,0.2 0.5,0.5 0.7,0.8 3.4,4.5 6.3,8 8.8,10.7 2.5,2.7 4.6,4.5 6.4,5.5 0.9,0.5 1.7,0.8 2.5,0.9 0.8,0.1 1.5,0.1 2.3,-0.1 0.8,-0.2 1.6,-0.6 2.5,-1.2 0.4,-0.3 0.7,-0.6 1.2,-0.9 1.3,-0.9 2.5,-1.7 3,-1.8 0.3,-0.1 -0.8,2.2 -1.8,3.2 z" />
          </g>
        </g>
      </g>
    </g>
  </g>
</svg>
