<svg height="100" width="232" xmlns="http://www.w3.org/2000/svg"><path d="m29.812314.20000001-.141667.29009105c-3.221229 6.66085334-6.132278 17.69267294-8.746467 33.10030094-.0011.007-.0022.01026-.0034.01696l.209134.05056c.0022-.007.000997-.01006.0034-.01696.786399-2.467198 1.421249-4.372114 1.895688-5.700548.237896-.666112.434977-1.186968.593671-1.565117.158694-.378168.289356-.620369.347428-.68813.234957-.25647.855392-.489389 1.851835-.637507.998627-.148439 2.372075-.222625 4.111817-.222625.586018 0 1.424054.106707 2.509591.323815h.0034l.0034.003c1.146348.163761 2.018736.246249 2.627652.246249.396666 0 .947403-.08528 1.659566-.249619h.0034l.0034-.003c.702826-.21625 1.24154-.32044 1.602228-.32044.412082 0 1.016013-.170288 1.838343-.499231h.0034c.864611-.378257 1.534694-.563299 1.99688-.563299.562627 0 1.466261-.138515 2.722101-.411523 1.248852-.271494 2.194836-.404781 2.833408-.404781.361421 0 .631036.0304.873634.06742-3.150052 5.22412-5.588512 8.97207-7.248809 11.114384l-.0034.003-.0034.007c-2.018665 3.328068-4.333276 7.852352-6.948604 13.573395-3.213025 7.079538-5.313038 11.493624-6.287471 13.225952-2.422186 4.381705-4.551895 7.802873-6.385292 10.260994-1.832038 2.456289-3.375442 3.946479-4.590798 4.476107-1.831154.267987-3.268264.373897-4.283847.320446h-.02697l-.02697.0135c-3.4946453 1.747456-7.663549 4.443968-12.51414917 8.095539l-.0944458.07084 1.33575057 1.514517h4.9481058c.4798778 0 1.2697403-.281295 2.415144-.826414 1.1931516-.542334 2.0391566-.809549 2.4893536-.809549 3.576609 0 9.071089.89876 16.474255 2.69513h.0034c7.465355 1.798226 12.996589 2.698482 16.609178 2.698482 1.298029 0 3.208275-.801214 5.774761-2.384784v-.003c1.388043-.870932 2.491132-1.535338 3.305643-1.996891.814506-.461555 1.35509-.719767 1.56175-.765689h.0034c1.524107-.381024 2.694243-.653538 3.508032-.816299h.0034c1.584711-.382511 2.76317-.793021 3.541763-1.237928 1.201727-.710115 1.968927-1.280217 2.317323-1.743894.409794-.526875.597038-1.441582.597038-2.759203 0-.567804-.197027-1.235419-.580174-2.003628l-.0034-.007c-.323417-.754912-.514333-1.250748-.563417-1.447115l-.212509.0303c.16198 2.483775-.464016 4.320951-1.865326 5.548771-1.401314 1.227807-3.59672 1.855206-6.604546 1.855206-2.87096 0-7.226521-.626933-13.050546-1.878815-5.83113-1.253416-10.162062-1.882191-13.010085-1.882191-.464457 0-1.110121-.157382-1.915922-.478986l-.0067-.003c-.819176-.381563-1.453835-.576802-1.919294-.576802-.915644 0-2.792665-.473742-5.420589-1.339123 2.506207-1.95327 4.729173-4.462935 6.655144-7.56589h.0034c2.069026-3.430215 3.619831-6.014906 4.654892-7.758144v-.003c1.686365-2.611014 3.373955-5.002872 5.059662-7.177984l.0067-.01015.0034-.01015c2.450899-5.174111 4.276211-9.043393 5.474552-11.603488 2.283328-4.838483 4.374156-8.475251 6.270607-10.91538l.0067-.01013c.03169-.03407.04833-.06442.08094-.121431.03537-.06198.07997-.146672.134934-.252986.109732-.212616.261146-.515408.451994-.910739.381696-.790655.924437-1.949057 1.632584-3.474293 1.139194-2.495391 2.281969-3.969939 3.376477-4.439011 1.143171-.489928 2.313737-.980727 3.511404-1.470674h.0034c1.535737-.713018 2.487442-1.456112 2.833411-2.263363l.0067-.02026v-4.995578l-.192249.252983c-1.412574 1.847204-2.580057 3.064518-3.484421 3.6497-2.499987 1.521727-4.246598 2.270103-5.170972 2.270103-4.62306 0-8.373918-.408222-11.245943-1.221071h-.0034l-.0067-.003c-5.121218-.92747-8.881242-1.469867-11.286243-1.633852h.01352c-.839222-.162432-1.465198-.346212-1.872056-.543071-.203427-.09842-.349763-.198783-.441872-.296832-.09211-.09802-.131553-.188412-.131553-.27997v-1.534761c.548132-1.156464 1.197255-3.020143 1.956416-5.6229792.761801-2.6118824 1.416152-4.5153707 1.956402-5.7039282l.01699-.037136-.01016-.037138c-.163203-.5980988-.27392-1.03182401-.327291-1.29872147z" fill="#0f8fcb"/><g fill="#46494d"><path d="m49.420189 48.226312c-.152564 0-.362487.04686-.647638.138293-.285152.09148-.643474.227405-1.079394.408147-.743617.29745-1.304784.553223-1.693299.769069-.930212.519192-2.12977 1.562491-3.615971 3.133616-2.234824 2.36253-3.919068 5.184793-5.04617 8.459758-.380199 1.034974-.666656 1.80697-.856767 2.313949v.003c-.341694.961016-.476098 1.678768-.384535 2.182399l.04722.259721.148422-.215875c.271604-.398356.471219-.668859.647635-.893882.04398.09822.107943.221108.107943.259733-.105682 1.904028.35539 3.768797 1.3796 5.582497 1.198276 2.139776 2.795881 3.231438 4.762829 3.231438.905845 0 1.643198-.207353 2.195887-.627398 1.617278-1.212953 3.410649-2.890136 5.383484-5.03267.628713-.693764 1.089945-1.619826 1.389717-2.776079v-.003c.01116-.04525.09066-.184143.232748-.367668l.0034-.003c.176412-.199483.272948-.379492.242866-.559938l.0034.01696v-.711722h-.107933c-.120288 0-.274106.02415-.468863.06742l-.06079.0135-.02026.05736c-.461883 1.511618-1.195182 2.864858-2.202644 4.061226-1.237241 1.467915-2.508919 2.185768-3.8251 2.185768-.109096 0-.188992-.0262-.252983-.07413-.105455-.07906-.239462-.114691-.384537-.114691-1.743167 0-3.082496-.85893-4.064593-2.614161-.7965-1.425308-1.194082-2.931622-1.194082-4.523335 0-.336408.0327-.614121.08774-.850022 1.53223-.786233 2.679432-1.3574 3.406837-1.68992h.0067l.0034-.003c1.843119-1.101623 2.96267-1.786884 3.373108-2.067716l.0034-.003c.417036-.307295 1.05244-.933804 1.92267-1.888937.780732-.865129 1.375619-1.413521 1.754013-1.632585l.03369-.02026.01351-.04052 1.116496-3.636218v-.01696c0-.758787-.184317-1.397621-.559935-1.905808v-.003h-.0034c-.441702-.573816-1.050299-.866604-1.797941-.866604zm-2.384789 2.978451c.169026 0 .330035.07362.495848.239482.165813.165821.330273.423458.485728.775823.230279.544283.340682.959551.340682 1.227819 0 1.674731-.947761 3.250909-2.88063 4.74258-1.49486 1.146733-3.204705 1.991314-5.100142 2.580433v-.586924c0-.925799.646317-2.589378 1.956407-4.93486.666016-1.173455 1.223979-2.066609 1.669682-2.674875.222855-.30413.416148-.538013.580175-.698232.163051-.159249.297768-.240901.37779-.259733.624379-.137576 1.1125-.241764 1.460559-.310322.348057-.06852.573184-.101191.613901-.101191z"/><path d="m66.606168 27.275933-.0034.003-11.107647 8.031369-.0067.003.118061.182154c2.457381-1.457774 4.276621-2.528131 5.525151-3.248313.04616.07536.09807.160777.09442.175398v.01017.0135c0 .02437-.0075.02448-.0034.02026l-.0067.007-.0067.01017c-.533762.81132-.907535 1.571757-1.123246 2.283593-2.330565 7.881559-3.964737 14.441097-4.897751 19.678714-.379208 2.085648-.668534 3.948851-.880383 5.595986-.101686.181966-.182428.303855-.19901.320448l-.02697.027-.0034.03722c-.126628 1.097412-.424619 3.130498-.890498 6.095202-.190647 1.218035-.332995 2.149722-.428389 2.796308-.0477.323304-.08407.574585-.107936.755569-.02393.180994-.03718.280501-.03718.340701v3.157225h.107934c.06277 0 .201591.05006.384538.172033l.06748.04392.06079-.05056c1.306806-1.09604 2.254043-1.956729 2.853647-2.597293 2.180379-1.481814 3.861384-2.563097 5.042794-3.238189l.03372-.02026.01351-.03722.411518-1.167094.0034-.007-.19901-.08092c-.000954.002-.0058.005-.0067.007-.366013.786958-1.307296 1.625054-2.840154 2.485978-.65464.369546-1.194191.643469-1.612347.826414-.418156.18294-.721367.269841-.877007.269841-.203548 0-.331962-.06942-.431758-.232741-.09975-.16331-.158543-.432555-.158543-.8028 0-1.252226.325279-3.900956.981574-7.923432.593038-3.632376 1.046982-6.392723 1.359363-8.277608.156193-.942439.278301-1.66689.364291-2.17228.08573-.503468.139064-.797747.151793-.853407v-.003c.952452-3.915577 1.628894-6.628033 2.030608-8.129198 1.058862-4.256611 1.730828-6.785545 2.000254-7.552377 1.117322-3.098978 2.579602-5.35632 4.378294-6.779946.0011-.000864.0022-.003.0034-.003zm-.66113.745452c-.248131.2383-.487645.495625-.72353.762332.216663-.254668.437107-.496933.666189-.721844zm-4.688616 38.949277-.04218.121437c-.08711.121833-.203457.244924-.315383.367662.134189-.163253.256921-.32579.35755-.489109z"/><path d="m85.775536 31.293311c-.02718-.003-.07002.04455-.09779.04393-.000806-.000021-.0026.00001-.0034 0-.43491-.01003-.929323.193643-1.53476.677984l-.0034.003c-.462923.399804-.913897.797617-1.355993 1.197462-1.417273.846159-2.836217 1.703023-4.253485 2.570302-1.113005.689007-1.99726 1.263015-2.651263 1.720287-.633935.443237-1.028307.765986-1.241306 1.005187-.0067.008-.03412.02296-.04052.0303l.124813.16866c2.866822-1.234644 5.093034-2.479696 6.729348-3.74078.008.01243.02757.033.0303.04052.0072.01926.0053.01047.0034.01349l-.0067.01015-.0034.01015c-1.844071 4.40882-3.086197 7.990041-3.72391 10.75347-.190593.825902-.305841 1.327921-.347431 1.494282l-.192265.765702v.003c-.05991.319144-.17825.485529-.347428.553186-.410073.164034-.9966.302952-1.754019.408155l.0034-.003c-.422012.04222-1.046465.09502-1.872074.15854l-.0067.003h-.0034c-1.433392.260611-3.169968 1.309067-5.231692 3.136986-1.656501 1.465378-2.849968 2.763104-3.578866 3.899321-.894759 1.406054-1.472821 2.731923-1.730399 3.976892-.762744 3.792527-1.493393 7.777341-2.192521 11.950923l-.0034.01696.273223 1.318895.14167-.16866c1.249622-1.482607 2.194686-2.601047 2.830032-3.352872.317678-.375914.557812-.660248.721845-.853395.08207-.09652.14542-.171888.188898-.222624.02175-.02539.03875-.04372.05056-.05739.0119-.01369.02291-.0263.01698-.02026 1.545989-1.545979 2.616025-2.603421 3.207823-3.174092v-.003c2.457055-2.520607 4.386572-4.51191 5.784882-5.973781l.01015-.01017.0067-.01351c.241832-.441601.451155-.7714.624027-.984939.172865-.213546.313117-.293463.36092-.293473.02645 0 .0717.02156.114692.03722v.492489c0 .441426-.15856 1.34326-.475605 2.674864-.318134 1.421-.499674 2.407514-.543071 2.97172-.316865 4.393847-.525563 7.028492-.630773 7.91668-.000091.000781-.0032.006-.0034.007-.145693.456313-.289812.800937-.428383 1.018683l-.104571.165278h1.082762l.0303-.05056 2.968333-4.678495-.06079-.0641c-.02327-.02326-.06166-.08658-.101183-.185517l-.01013-.02026-.01699-.01349c-.02587-.0259-.06271-.0305-.09441-.04726v-2.378051-.01017c.168765-1.708526.296719-2.965523.381164-3.767752v-.003c.380223-4.77391 1.775826-11.495102 4.189396-20.154323.698268-2.539155 1.324943-4.453985 1.872077-5.737656.758735-1.833617 1.749471-3.521328 2.97171-5.05965l.121451-.151846zm-11.799131 20.356703c.489635 0 1.245427.129812 2.192525.360926-.0096.07452-.02164.163259-.07083.32719-.06375.212432-.105968.359806-.12818.44862l-.0034.007v.003c-.272618 1.887345-1.047228 3.723042-2.330821 5.511667-1.009694 1.409359-2.475277 2.964114-4.398532 4.654885-2.313599 2.026959-4.005286 3.516372-5.19121 4.573933v-1.315502c0-.71048.316173-2.606043.951217-5.633092.423331-1.989656.73991-3.305864.947841-3.929674.588177-1.722513 1.405364-2.926757 2.438759-3.629461.575325-.369318 1.474402-.707159 2.695113-1.001813 1.116994-.252904 2.082536-.377787 2.897497-.377787z"/><path d="m97.422875 47.21438-4.513215 1.494285c-1.847839.594704-3.188306 1.177445-4.030864 1.760763-2.611687 1.762692-4.372736 3.452993-5.275542 5.086638-.471042.856444-.864481 1.871119-1.183961 3.042547-.21289.787695-.425346 1.755135-.637519 2.900877-.699123 3.707504-1.399001 7.689578-2.098068 11.947541l.192268.08097c1.8186-2.389562 3.18305-4.215879 4.094946-5.488045l.0068-.01014c.461992-.524892.905489-1.018612 1.325634-1.480795v-.003l2.860406-3.079506c1.165869-1.271861 2.129806-2.374848 2.894127-3.309015.646491-.797343.978201-1.605675.978201-2.418523 0-.405228-.136503-.829056-.39803-1.264917-.265726-.442886-.609537-.688104-1.011927-.688104h-.809553v.522825l.05737.0303c.852676.478341 1.248057.97706 1.248057 1.49429 0 .607841-.428876 1.490925-1.312153 2.610779-.883258 1.11987-2.213964 2.478068-3.990379 4.074715l-.0034.003-.0034.003c-1.22645 1.328649-2.128454 2.361157-2.765951 3.160603-.06401-.104306-.128406-.213533-.155159-.276589l.721836-4.570549c.295935-1.881277.63724-3.379771 1.015304-4.492987v-.003c.571273-1.71383 1.004959-2.866677 1.295271-3.447316.756001-1.553997 1.621225-2.516487 2.580431-2.904247.772734-.313276 1.814995-.587513 3.123499-.819671h.0034c.396511-.07918 1.531673-.225295 3.238187-.425011v.306867c-.885391 1.986944-1.534097 3.952714-1.936166 5.899564-.317581 1.460901-.550872 2.477539-.698229 3.045923v.007l-.0034.007c-.370656 3.325336-.647816 5.829923-.833153 7.508539-.09266.839311-.162786 1.471342-.209131 1.899067-.02313.213851-.03901.374598-.05056.48572-.01153.111141-.01699.18433-.01699.192276l.06077 1.180581c.04216.673718.02553 1.120151-.02701 1.295279l-.04054.141672h1.008556l.02701-.06412c.586072-1.255847 1.609335-2.689346 3.066158-4.293969 1.260269-1.366172 2.203111-2.391076 2.8334-3.079633.31516-.344288.553843-.604052.711736-.779192.06188-.06862.100323-.112277.138302-.155163.06902.112538.146314.232524.172028.296843l.205754-.0303.16191-1.608966-.222624.259724c-.783187.910193-1.62043 1.861999-2.509598 2.857027-1.113901 1.255665-2.084441 2.14669-2.937973 2.755827-.246237-.597852-.401396-1.219368-.401396-1.888938v-4.95846c0-.156748.05906-.633792.175395-1.38972.116302-.755922.289928-1.799663.522833-3.133615.571524-3.217462 1.079007-5.565451 1.521276-7.03967.120197-.400696.445227-.980197.971453-1.716921.307015-.434055.54119-.764494.704982-.991694.08186-.113597.14654-.201685.19226-.2631.04579-.06148.08277-.106314.07413-.09782z"/><path d="m106.44932 42.235666-.12482.192267c-.19757.307343-.67077 1.160812-1.43354 2.580435-.59043 1.096471-1.16127 1.948741-1.70345 2.553431-1.32853 1.47615-3.05004 3.030348-5.164226 4.658269l-.007.003-.003.007c-.722222.764709-1.244841 1.380521-1.568485 1.855208l-.01699.02356v.0303l-.192272 2.604025.212502.03722c.200628-.781363.387408-1.405231.55994-1.865318.172528-.460094.335468-.757106.45874-.88039v-.003h.0034c2.208294-2.228755 3.978161-3.897978 5.393571-5.117006-.75256 1.857272-1.34468 3.999094-1.76413 6.452747-.45535 2.636942-.80257 4.627465-1.03552 5.967033-.116501.669788-.20225 1.175925-.263105 1.521281-.0303.172665-.05425.306622-.07082.398023-.01666.09138-.0292.154239-.0269.145038l-.003.003v.003c-.550242 2.899319-.940443 5.076955-1.173844 6.540463-.0297.138647-.07202.235943-.114672.290082-.04262.05408-.07494.07082-.128183.07082-.08908 0-.219617-.01856-.377784-.05739l-.01015-.003c-.170978-.06328-.313957-.09782-.438503-.09782-.130027 0-.25289.06962-.428383.188899-.175494.119287-.394498.294228-.661134.526204-.533267.463942-1.253748 1.158815-2.165535 2.081202l-.134934.134932.185527.04393c1.690273.41227 2.880672.695007 3.6497.866891-1.33706 6.648851-2.154384 11.053901-2.428636 13.121393-.48628 3.678829-1.196039 6.433785-2.118317 8.257371v.003c-.186715.394185-.416093.745815-.684742 1.055791l-.0034.003c-.961938 1.233782-1.976904 1.831593-3.059412 1.831603-.101602 0-.368212-.08668-.742089-.273223h-.0034c-.44528-.233467-.732986-.364662-.920554-.39147l-.236123-.03375.128186.199016c.485547.759992.830683 1.220257 1.096256 1.416709.000614.000603.0026-.00061.0034 0 .149405.147651.399948.188895.769063.188884.74026 0 1.557479-.431982 2.455619-1.264905l.0034-.003c.789431-.704765 1.392349-1.444763 1.801238-2.21951v-.003l.0034-.003c.487826-1.124155.835409-2.007031 1.049033-2.647905l-.0034.01696c2.05565-4.005336 3.241054-6.660506 3.565369-8.001028.801767-3.333623 1.531429-7.25958 2.185799-11.765404 1.4032-.536172 2.5294-.953907 3.3394-1.244676l.003-.003.007-.003c.95223-.454484 2.24368-1.430948 3.89933-2.93798 1.50625-1.357757 2.45098-2.328843 2.8469-2.94473 1.29929-1.959587 2.1951-4.091652 2.68499-6.392033v-.003c.46601-2.520759.80327-4.41499 1.01531-5.687056l.003-.01017v-.01349c-.0632-1.693716-.0974-2.981959-.0974-3.868959 0-.443502.008-.784846.0233-1.018682.008-.116919.0194-.208985.03-.269845.0106-.06098.0382-.09612.0101-.06752l.0569-.05739-.0367-.07082c-.13678-.252506-.24022-.456501-.30696-.610527-.0664-.154041-.0937-.265521-.0937-.290094v-.181673l-.15857.08778c-2.09034 1.151829-4.06934 2.878491-5.94005 5.174337-1.72141 2.10401-3.11623 4.357287-4.17925 6.759715-.31464.687801-.64969 1.251812-.99843 1.733775v-.229396c.42349-2.162912.8547-5.043862 1.29861-8.658764h.003c.50732-4.227851 1.37281-7.340998 2.58716-9.330016l.0267-.04392zm4.48621 9.313156c.25075 2.250638.39131 3.841964.39131 4.536825 0 3.592827-.39283 6.498678-1.17046 8.716116-.77769 2.217432-1.938 3.744471-3.47771 4.597543-.10014.05448-.33238.143017-.67797.252981-.34712.110445-.81152.246167-1.39311.404774v-.003c-1.16296.296103-1.8952.441951-2.1318.441951h-1.06927c-.0376-.006-.0566-.01946-.0803-.06752-.0236-.04766-.0382-.138406-.04-.256354.003-.01523.005-.0325.0101-.05739.0121-.06148.0297-.158086.0537-.293464.0472-.270761.12057-.692888.21588-1.264913.54883-3.314023 1.61434-6.479738 3.19773-9.49868 1.73432-3.303449 3.80055-5.78625 6.17275-7.508533zm-3.05772 2.668121c-.63546.776228-1.25069 1.601684-1.83662 2.49611.0637-.105259.12016-.214234.18213-.320448.52664-.78517 1.07924-1.508965 1.65449-2.175662zm-6.60621 15.904209c-.00006-.000122.007.01716.007.01696-.00009-.000397.003.01423.003.01696v.003h-.0938c.0201-.009.0838-.03712.0838-.03722z"/><path d="m127.12985 48.226312c-.15261 0-.35913.04686-.64427.138293-.28516.09148-.64687.227405-1.0828.408147-.74177.296808-1.3054.553588-1.69328.769069-.93022.519192-2.12974 1.562491-3.61595 3.133616-2.23486 2.36253-3.91573 5.184793-5.04283 8.459758-.38048 1.035714-.66655 1.806725-.85676 2.313949v.003h-.003c-.34172.961016-.47609 1.678768-.38454 2.182399l.0468.259721.1484-.215875c.2716-.398356.47122-.668859.64765-.893882.0435.09822.10796.221108.10796.259733-.10571 1.904028.35536 3.768797 1.37958 5.582497 1.1983 2.139776 2.79925 3.231438 4.76621 3.231438.90583 0 1.63981-.207353 2.19253-.627398 1.61729-1.212953 3.41063-2.890136 5.38346-5.03267.6287-.693764 1.08996-1.619826 1.38972-2.776079h.003v-.003c.0111-.04525.0867-.184153.22934-.367668l.003-.003c.17641-.199483.2729-.379492.24286-.559938l.003.01696v-.711722h-.10791c-.12029 0-.2741.02415-.46887.06742l-.0604.01352-.02.05736c-.46187 1.511618-1.19512 2.864858-2.20261 4.061227-1.23726 1.467913-2.50893 2.185767-3.8251 2.185767-.1091 0-.18901-.0262-.25294-.07413-.10548-.07906-.23616-.11469-.38123-.11469-1.74315 0-3.08585-.858931-4.06792-2.614162-.7965-1.425308-1.19412-2.931622-1.19412-4.523335 0-.336408.0323-.614121.0871-.850022 1.53224-.786233 2.6795-1.3574 3.40685-1.68992h.007l.003-.003c1.84314-1.101622 2.96268-1.786884 3.37311-2.067716l.003-.003c.41703-.307295 1.05245-.933803 1.92267-1.888936.78072-.86513 1.3756-1.413522 1.754-1.632586l.0367-.02026.0101-.04052 1.11654-3.636218v-.016959c0-.758787-.18432-1.397621-.55999-1.905808v-.003c-.44163-.574108-1.05357-.866886-1.80122-.866886zm-2.3848 2.978451c.169 0 .33.07362.49582.239482.16585.165821.33033.423458.48574.775823.23026.544283.34068.959551.34067 1.227819 0 1.674731-.94775 3.250909-2.88061 4.74258-1.49489 1.146733-3.20468 1.991314-5.10016 2.580433v-.586924c0-.925799.64637-2.589378 1.9564-4.93486.66603-1.173455 1.22399-2.066609 1.66969-2.674875.22289-.30413.41613-.538013.58019-.698232.16401-.160223.3013-.241583.38116-.259733.62439-.137576 1.10915-.241764 1.45719-.310322.34807-.06852.57315-.101191.61391-.101191z"/><path d="m147.75977 46.914173-.19566.121419c-5.20959 3.263844-9.4472 8.275338-12.75705 14.946248l-.0704-.924231c1.33194-5.899079 2.26877-10.305392 2.81987-13.229338l.003-.01351c.0215-.06952.0334-.141532.0334-.212497 0-.200929-.0889-.397317-.2496-.580184l-.067-.07746-7.83573 6.645029h1.05578l.0233-.01696c.0385-.02336.0911-.0647.17883-.131552.0863-.06692.20484-.156486.35077-.273215.29179-.233478.70151-.567467 1.23116-1.001814.76989-.631672 1.37706-.936511 1.85861-1.025423v.52283l-.73216 5.518408c-.55058 3.960175-.98472 6.862403-1.30203 8.702614-.28587 1.651919-.51055 2.930287-.67461 3.835229-.16404.904953-.26877 1.44567-.30694 1.588738-.37972 1.561129-.67222 2.520403-.84325 2.826663l-.003.003c-.00019.000321.00019.003 0 .003l.18556.107943v-.003l1.71346-2.857033c.63926-1.065365 1.06978-2.025791 1.28518-2.887384.0858-.345541.20237-.948634.35083-1.818098.12652-.780508.25089-1.28431.34068-1.463925v-.003c.73969-1.627382 1.52079-3.117993 2.34431-4.469369 2.07315-3.405948 4.26248-6.492415 6.56745-9.262546.33273-.406707.76547-.680305 1.24801-.887119l.11808 4.179277-2.90086 20.279125.22258-.212516c1.14535-1.081676 2.13318-2.078552 2.96164-2.991936 1.05875-1.164676 1.8007-1.968542 2.22284-2.411779.29364-.251387 1.00925-.817191 2.14866-1.703422.50253-.395595.86584-.751451 1.09289-1.072651.22704-.321195.32231-.620881.24625-.887118l-.04-.148419-.12477.09108-5.39698 3.956652c.0753-.460044.13491-.909139.13491-1.325632 0-.416317-.0465-.801494-.12819-1.160345v-.003l3.12013-19.165989-.0267-.03722c-.19922-.278798-.2714-.553282-.23275-.843271z"/><path d="m175.30456 31.293311c-.0268-.003-.0697.04455-.0971.04393-.00082-.000021-.002.00001-.003 0-.43485-.01003-.92932.193643-1.53475.677984l-.003.003c-.4629.399804-.91383.797617-1.35596 1.197462-1.41727.846159-2.83623 1.703023-4.2535 2.570302-1.11303.689007-1.99726 1.263015-2.6513 1.720287-.63391.443237-1.02828.765986-1.24128 1.005187-.007.008-.0337.02296-.04.0303l.12483.16866c2.86666-1.234552 5.09305-2.479696 6.72935-3.74078.008.01243.0272.033.03.04052.007.01926.005.01047.003.01349l-.007.01015-.003.01015c-1.84406 4.40882-3.0862 7.990041-3.72392 10.75347-.19058.825902-.30583 1.327921-.34743 1.494282l-.19224.765702v.003c-.0595.319144-.17827.485529-.34743.553186-.41011.164034-.99662.302952-1.75406.408155l.003-.003c-.42201.04222-1.04646.09502-1.87209.15854l-.007.003h-.003c-1.43339.260611-3.16997 1.309067-5.23168 3.136986-1.65653 1.465378-2.84999 2.763104-3.57887 3.899321-.89477 1.406054-1.47285 2.731923-1.73042 3.976892-.76277 3.792527-1.49336 7.777341-2.19249 11.950923l-.003.01696.27319 1.318895.1417-.16866c1.2496-1.482607 2.19468-2.601047 2.83003-3.352872.31768-.375914.5578-.660248.72184-.853395.0815-.09652.14542-.171888.18892-.222624.0215-.02539.0382-.04372.0497-.05739.0118-.01369.0226-.0263.0167-.02026 1.54598-1.545979 2.61601-2.603421 3.20783-3.174092v-.003c2.45705-2.520607 4.38656-4.51191 5.78488-5.973781l.0101-.01017.007-.01351c.24186-.441601.45118-.7714.62402-.984939.17288-.213546.31314-.293463.36094-.293473.0261 0 .0712.02156.11469.03722v.492489c0 .441426-.15858 1.34326-.47562 2.674864-.31811 1.421-.49967 2.407514-.54307 2.97172-.31685 4.393847-.52557 7.028492-.63075 7.91668-.00009.000781-.003.006-.003.007-.14572.456313-.28983.800937-.42841 1.018683l-.10456.16528h1.08277l.03-.05056 2.96832-4.678495-.0604-.06408c-.023-.02326-.0612-.08658-.10117-.185517l-.0101-.02026-.0167-.0135c-.0256-.0259-.0623-.0305-.0937-.04726v-2.378038-.01015c.16877-1.708525.2967-2.965524.38115-3.767751v-.003c.38023-4.773911 1.77583-11.495103 4.1894-20.154325.69824-2.539154 1.32491-4.453984 1.87207-5.737654.75875-1.833618 1.74947-3.521329 2.97173-5.059651l.12139-.151811zm-11.79913 20.356703c.48961 0 1.2454.129812 2.1925.360926-.01.07452-.0214.163259-.0704.32719-.0634.212432-.10599.359806-.12819.44862l-.003.007v.003c-.27259 1.887345-1.04721 3.723042-2.33082 5.511667-1.00967 1.409359-2.47525 2.964114-4.39853 4.654885-2.3136 2.026959-4.00527 3.516372-5.1912 4.573933v-1.315502c0-.71048.31616-2.606043.95122-5.633092.42335-1.989656.7399-3.305864.94785-3.929674.58817-1.722513 1.40535-2.926757 2.43877-3.629461.57529-.369318 1.47437-.707159 2.69508-1.001813 1.11701-.252904 2.08254-.377787 2.8975-.377787z"/><path d="m180.94776 37.455981c-.17507 0-.40169.0946-.74546.26647v-.003c-.15769.07352-.28283.129702-.3744.165306-.0909.03567-.16197.04726-.15183.04726h-.0102l-.0137.003c-.72905.159492-1.55945.877605-2.53989 2.135182-.76626.979127-1.37277 1.927936-1.82152 2.846893l-.14833.303594.29678-.161916c.22695-.123787.39264-.178766.45542-.178766h.0498l.0333-.03379c.74991-.854029 1.66229-1.478771 2.74571-1.875449 1.3974-.46581 2.44674-.804073 3.14377-1.015304l.0333-.01352.0234-.027c.12298-.171988.1788-.398713.1788-.667877v-.107948h-.03c-.0191-.315074-.10364-.648565-.3002-1.022042-.19977-.418529-.48262-.661124-.82643-.661124zm-2.98857 10.014746-5.17439 5.730919c-.002.002-.003.000855-.007.003l-.0102.01351.14508.155163c.005-.004.007-.005.0137-.01015.46671-.372692.81246-.613704 1.08953-.782558.007.04646.0309.132241.03.13493l-.03.09442c-.78533 1.974957-1.41219 4.129612-1.87886 6.462865v.003c-.46605 2.584461-.77213 4.384015-.92084 5.40372v-.01696c-.20284.689688-.73414 1.375004-1.61234 2.044107-.73586.576742-1.07969 1.109769-1.15699 1.632571-.025.0278-.0381.036-.0637.06408l.0167.007c-.002.01956-.0426.04132-.0436.06078l-.0133.29682.19902-.219244c.92393-1.022217 1.68914-1.739666 2.35107-2.263363.0106.394744.01.880227-.0267 1.612354-.042.848102-.0637 1.485346-.0637 1.912554 0 1.689184.37353 2.959102 1.1401 3.791361l.10453.111315.0704-.138301c.5229-1.024836 1.28789-2.008701 2.29707-2.954838.30669-.286204 1.29659-1.086452 2.94812-2.378047l.0333-.027.007-.04391.18552-1.345873.003-.02026-.20914-.04726c-.24555.757281-.76349 1.37173-1.57183 1.848458-.89607.497823-1.55012.863768-2.03401 1.136746-.48765-.958554-.75892-2.086272-.75892-3.427086 0-.244391.0312-.601279.0937-1.062521v-.003c.0839-.464976.12785-.803318.12819-1.028803v-.003c.0838-1.981013.44197-4.333528 1.07597-7.059911.61331-2.580016 1.31338-4.862332 2.09469-6.847411v-.007l.003-.007c-.005.02036.0171-.0318.0571-.09108.04-.05926.0996-.14056.17879-.242866.1573-.204604.38816-.4934.69488-.863516.44613-.543155.60883-.938041.59362-1.285157l.04-.04392-.0171-.003c-.002-.02396.0451-.06782.0399-.09108zm-.63077 19.65848-.005.032c-.0575.121897-.12215.240435-.19569.354177.0709-.126686.13936-.254503.20072-.386214z"/><path d="m195.47911 46.98164-.19228.236103c-.56747.698476-1.09524 1.873077-1.60561 3.531653-.65633 2.159609-1.07478 3.43873-1.23451 3.79812-.88174 1.931457-2.62339 4.403867-5.22496 7.407344-2.09084 2.425342-4.21652 4.604722-6.36845 6.553945l-.20243-.222628c.005-2.30645.73304-5.673264 2.20943-10.102459 1.29073-3.808716 2.63601-7.085127 4.03085-9.832606l.0903-.178774-3.28879.381172-.02.0641c-1.27083 3.918525-2.53155 7.836753-3.78123 11.755284v.003c-1.58984 5.278217-2.38818 9.112028-2.38818 11.529286v1.7304h.90061l.03-.05056c1.30636-2.107163 3.53876-4.870268 6.69217-8.277612 3.27831-3.525761 5.46842-6.128475 6.74623-7.957146l.0234.519454c.0203.513141-.0731 1.1382-.2833 1.872067l-.003.01015v.01349l-.38118 6.220014-1.18738 7.606353.66795.293462.0497-.07746c1.34856-2.086041 3.1425-4.089609 5.38012-6.010877v-.003c2.47291-2.11378 4.28203-3.941168 5.43409-5.494791.003-.005.0137-.01212.0171-.01696l-.15843-.145017c-.005.004-.0119.01276-.0171.01696-1.05457.948161-2.47567 2.113738-4.26698 3.504662-1.19521.920224-2.15327 1.610097-2.87389 2.067713-.36028.228802-.66226.397234-.90061.509338-.23843.1121-.41822.16528-.51272.16528h-.0938c.0261-.222003.0751-.505292.16875-.914111v-.003c.12744-.489501.19223-.865363.19223-1.136734 0-1.976026.41253-5.086951 1.23796-9.319894.80534-4.132629 1.17682-7.256991 1.11312-9.390737v-.003z"/><path d="m225.06464 47.312199-.20576.138296c-1.71062 1.15464-3.80262 3.23526-6.28413 6.247004-1.90465 2.327906-3.59702 4.625753-5.07987 6.891263-.0227.02056-.0411.027-.0465.027-.0396 0-.0856-.0267-.13159-.05056l2.0205-11.363987v-.01015c0-.16884-.0446-.377392-.1316-.637514-.0601-.264764-.0903-.469736-.0903-.600415v-.107955h-.85l-.03.027c-2.56352 2.415184-4.18232 4.002249-4.86739 4.772952-1.06233 1.189801-2.25072 2.687228-3.56542 4.489607-.70056.955321-1.91943 2.690649-3.65643 5.211438v.003c-.0282.04282-.0394.04726-.0671.04726-.0171 0-.061-.0286-.0972-.04726l3.47428-14.646047-.22937.158551c-2.28734 1.588456-4.00399 2.775208-5.14734 3.558616-1.90537 1.31911-3.10854 2.443567-3.66657 3.416962-.0102.01002-.0271.02036-.0367.0303l.003.003c-.003.005-.0172.01171-.02.01696l.17204.128184c.62779-.648721 1.43591-1.300287 2.42528-1.953031l2.67823-1.652821.14507 1.679818-2.22289 8.567691v.007c-.25344 2.492673-.67788 4.359389-1.26152 5.589243l-.003.01015-.003.01015-1.67984 6.580933.21252-.104577c.965-.477194 1.69881-.864725 2.20602-1.163724.25361-.149489.45171-.277007.59366-.384531.14107-.106851.22987-.178912.26984-.286711v-.003c1.56615-3.851868 2.5097-6.160887 2.82667-6.92163 1.20571-2.876786 2.37896-5.222005 3.51817-7.036293 1.50924-2.398291 3.31854-4.420689 5.39362-6.108701.16112.317576.28203.620885.28332.866898l-.98158 6.405522c-.26469 1.757751-.47539 3.126196-.63418 4.10507-.1587.978878-.26828 1.575557-.31704 1.760764v.003.003c-.3362 1.512955-1.00065 3.27213-1.99353 5.278916-.38141.773522-.66874 1.369766-.8601 1.784377-.0949.207304-.1672.369952-.21589.489095-.0241.05965-.0404.105501-.0534.145039-.0136.03962-.0234.06238-.0234.107933 0 .417574.0832.734705.28336.934362l.0333.03376h.76568l.02-.01015c.60883-.27058 1.24884-.952502 1.95302-2.040729v-.003c.63839-1.000101 1.07813-1.851279 1.31554-2.563571.8246-2.537149 1.40676-4.609407 1.74726-6.223383 3.1721-5.740387 5.95168-9.462355 8.32821-11.262816l.13485 1.436961-2.22626 15.128377.003.01696c.0598.32074.14709 1.258764.25296 2.782817.0845 1.21407.2773 2.302497.57678 3.265169l.0234.07413h.85338l.0333-.0303c1.18014-1.180189 2.75241-2.479188 4.71894-3.895937 1.90841-1.378314 3.18117-2.406053 3.82847-3.096519 1.12585-1.21081 1.91995-2.658946 2.39154-4.331064.003-.007.007-.01015.0102-.01696.002-.006.005-.01067.007-.01696l-.20238-.07746c-.29471.601203-.60421 1.160264-.92423 1.693308-.11106.232697-.21816.468345-.32379.704975-.40727.623203-.82764 1.212846-1.2734 1.735468.49694-.65612.95857-1.404161 1.41672-2.158789-1.91877 3.076382-4.27407 4.984291-7.06834 5.735964-.48659-.670932-.81945-1.519762-.96138-2.59054v-.003c-.14782-1.24563-.25366-2.186574-.31704-2.819903-.00006-.00076.00009-.003 0-.003zm5.51333 17.562085c.0593-.09562.12158-.183733.18046-.281654.005-.01005.009-.02036.0137-.0303-.0639.105648-.1297.206241-.19394.312024zm-12.0302-10.706248c-.0811.09942-.1625.19901-.24453.300214.0813-.100648.16333-.203186.24453-.300214zm8.78698 14.624108c-.12766.101245-.25267.209037-.38288.303583.12919-.09752.25575-.20088.38288-.303583z"/></g></svg>