<svg height="150" viewBox="0 0 256 256" width="150" xmlns="http://www.w3.org/2000/svg" xmlns:xlink="http://www.w3.org/1999/xlink"><filter id="a" filterUnits="userSpaceOnUse"><feFlood result="flood"/><feComposite in="flood" in2="SourceGraphic" operator="in" result="composite1"/><feGaussianBlur in="composite1" result="blur" stdDeviation="2"/><feOffset dx="0" dy="2" result="offset"/><feComposite in="SourceGraphic" in2="offset" operator="over" result="composite2"/></filter><path d="m84 14v31l-36 5v46l36 5v141h88v-141l36-5v-46l-36-5v-31z" fill="#ffdf00"/><path d="m172 14-10 10v31l10-10z" opacity=".25"/><path d="m172 45-10 10 36 5 10-10z" fill="#fff" opacity=".45"/><path d="m208 50-10 10v26l10 10z" opacity=".25"/><path d="m208 96-10-10-36 5 10 10z" opacity=".45"/><path d="m172 101-10-10v141l10 10z" opacity=".25"/><path d="m172 242-10-10h-68l-10 10z" opacity=".5"/><path d="m84 242 10-10v-141l-10 10z" fill="#fff" opacity=".25"/><path d="m84 101 10-10-36-5-10 10z" opacity=".45"/><path d="m48 96 10-10v-26l-10-10z" fill="#fff" opacity=".25"/><path d="m48 50 10 10 36-5-10-10z" fill="#fff" opacity=".45"/><path d="m84 45 10 10v-31l-10-10z" fill="#fff" opacity=".25"/><path d="m84 14 10 10h68l10-10z" fill="#fff" opacity=".5"/><path d="m22.824 126.95032h15.1875l9.28125-11.25 4.44375 11.25h13.89375l-9.73125-21.2625 16.70625-18.9h-14.68125l-7.9875 10.4625-3.88125-10.4625h-13.44375l9.225 18.9z" fill="#df0000" filter="url(#a)"/><path d="m81.168434 109.06282c.84375-3.09375 2.8125-4.89375 5.79375-4.89375 2.8125 0 4.21875 1.74375 4.21875 3.9375 0 .28125-.05625.675-.1125.95625zm7.9875 9.39375c-.5625 1.0125-1.96875 2.08125-4.3875 2.08125-3.4875 0-4.55625-2.5875-4.55625-5.68125h20.8125c.50625-1.8.5625-3.4875.5625-5.0625 0-9.16875-7.81875-12.768753-14.2875-12.768753-7.25625 0-17.49375 4.387503-17.49375 17.775003 0 7.0875 4.1625 12.88125 14.5125 12.88125 12.6 0 14.79375-7.25625 15.525-9.225z" fill="#efdfbf" filter="url(#a)"/><path d="m103.716773 126.95032h11.137497l3.2625-15.46875c.675-3.0375 1.85625-5.56875 5.4-5.56875 1.8 0 3.15.95625 3.15 2.8125 0 1.18125-.5625 3.15-.9 4.8375l-2.86875 13.3875h11.1375l3.54375-16.48125c.45-2.1375.7875-4.275.7875-5.56875 0-5.737503-4.3875-7.875003-9.50625-7.875003-3.54375 0-6.91875 1.8-9.05625 4.443753h-.1125l.84375-3.712503h-10.743747z" fill="#efdfbf" filter="url(#a)"/><path d="m152.90388 114.85657c0-3.0375 1.575-9.73125 6.01875-9.73125 2.98125 0 3.88125 1.96875 3.88125 5.45625 0 2.53125-1.575 9-5.9625 9-3.15 0-3.9375-2.3625-3.9375-4.725zm-11.1375-.84375c0 9.7875 6.525 13.66875 14.56875 13.66875 13.44375 0 17.60625-10.40625 17.60625-17.8875 0-8.83125-5.625-12.768753-14.175-12.768753-11.925 0-18 7.650003-18 16.987503z" fill="#efdfbf" filter="url(#a)"/><path d="m76.836919 147.48164c.225-9.9-7.48125-13.10625-16.03125-13.10625-8.1 0-16.875 4.1625-16.875 13.21875 0 6.69375 4.725 9.28125 9.61875 10.9125 5.56875 1.85625 9.675 2.25 9.675 5.175 0 2.64375-2.98125 3.88125-5.4 3.88125-2.025 0-3.4875-.1125-4.55625-1.0125-1.0125-1.0125-1.51875-2.3625-1.51875-4.55625h-11.981419c-.50625 10.2375 7.818919 14.45625 17.043919 14.45625 8.71875 0 18.1125-4.55625 18.1125-14.23125 0-4.78125-2.3625-8.60625-9.3375-11.08125-3.9375-1.40625-9.95625-1.575-9.95625-4.6125 0-2.64375 2.7-3.2625 4.78125-3.2625 1.40625 0 2.7.225 3.6.9s1.4625 1.6875 1.40625 3.31875z" fill="#df0000" filter="url(#a)"/><g fill="#efdfbf"><path d="m89.603911 157.60664c.84375-3.09375 2.8125-4.89375 5.79375-4.89375 2.8125 0 4.21875 1.74375 4.21875 3.9375 0 .28125-.05625.675-.1125.95625zm7.9875 9.39375c-.5625 1.0125-1.96875 2.08125-4.3875 2.08125-3.4875 0-4.55625-2.5875-4.55625-5.68125h20.812499c.50625-1.8.5625-3.4875.5625-5.0625 0-9.16875-7.818749-12.76875-14.287499-12.76875-7.25625 0-17.49375 4.3875-17.49375 17.775 0 7.0875 4.1625 12.88125 14.5125 12.88125 12.599999 0 14.793749-7.25625 15.524999-9.225z" filter="url(#a)"/><path d="m112.15225 175.49414h11.1375l2.53125-12.20625c1.29375-6.13125 3.65625-8.15625 8.38125-8.15625 1.40625 0 2.925.225 4.275.73125l2.08125-9.84375c-1.0125-.3375-2.08125-.45-3.9375-.45-2.86875 0-6.525 2.19375-8.49375 5.2875h-.1125l.95625-4.55625h-10.8z" filter="url(#a)"/><path d="m137.37247 175.49414h11.1375l6.075-29.19375h-11.1375zm19.4625-40.1625h-11.1375l-1.63125 7.81875h11.1375z" filter="url(#a)"/><path d="m167.7167 157.60664c.84375-3.09375 2.8125-4.89375 5.79375-4.89375 2.8125 0 4.21875 1.74375 4.21875 3.9375 0 .28125-.0563.675-.1125.95625zm7.9875 9.39375c-.5625 1.0125-1.96875 2.08125-4.3875 2.08125-3.4875 0-4.55625-2.5875-4.55625-5.68125h20.8125c.50625-1.8.5625-3.4875.5625-5.0625 0-9.16875-7.81875-12.76875-14.2875-12.76875-7.25625 0-17.49375 4.3875-17.49375 17.775 0 7.0875 4.1625 12.88125 14.5125 12.88125 12.6 0 14.79375-7.25625 15.525-9.225z" filter="url(#a)"/><path d="m190.37754 165.93164c-.225 8.775 7.59375 10.29375 13.89375 10.29375 9 0 14.79375-4.10625 14.79375-10.85625 0-6.13125-4.10625-7.93125-12.375-9.05625-1.4625-.16875-2.53125-.61875-2.53125-2.19375 0-1.74375 1.63125-2.3625 3.15-2.3625.9 0 1.85625.16875 2.5875.73125.61875.45.9 1.18125.7875 2.30625h9.95625c.61875-7.875-6.91875-9.225-13.10625-9.225-7.03125 0-14.5125 2.30625-14.5125 10.6875 0 6.35625 5.9625 7.2 7.93125 7.5375 4.1625.73125 6.975.9 6.975 2.98125 0 .675-.39375 2.5875-3.375 2.5875-1.2375 0-2.25-.225-2.925-.73125-.675-.61875-1.0125-1.51875-1.0125-2.7z" filter="url(#a)"/></g><path d="m123.71786 183.50573h-12.6l-9.50625 23.34375h-.1125v-23.34375h-10.8l-9.61875 23.34375h-.1125v-23.34375h-12.14986l2.92486 40.1625h11.925l8.71875-20.8125h.1125v20.8125h11.925z" fill="#df0000" filter="url(#a)"/><path d="m116.44931 223.66823h11.1375l6.075-29.19375h-11.1375zm19.4625-40.1625h-11.1375l-1.63125 7.81875h11.1375z" fill="#efdfbf" filter="url(#a)"/><path d="m134.1373 223.66823h11.1375l1.74375-8.325 2.53125-2.25 3.9375 10.575h12.09375l-7.425-17.4375 13.10625-11.75625h-13.33125l-8.2125 8.55h-.1125l3.99375-19.51875h-11.1375z" fill="#efdfbf" filter="url(#a)"/><path d="m168.5245 223.66823h11.1375l6.075-29.19375h-11.1375zm19.4625-40.1625h-11.1375l-1.63125 7.81875h11.1375z" fill="#efdfbf" filter="url(#a)"/></svg>