<svg enable-background="new 0 0 331.9 331.8" height="331.8" viewBox="0 0 331.9 331.8" width="331.9" xmlns="http://www.w3.org/2000/svg"><path clip-rule="evenodd" d="m75.4 103.4c9.2 0 17 3.8 23.5 11.3s9.8 16.7 9.8 27.4-3.3 19.8-9.8 27.3c-6.5 7.6-14.3 11.4-23.5 11.4s-17-3.8-23.5-11.4c-6.5-7.5-9.7-16.6-9.7-27.3s3.2-19.8 9.7-27.4c6.5-7.5 14.3-11.3 23.5-11.3" fill="#dea26a" fill-rule="evenodd"/><path clip-rule="evenodd" d="m256.4 103.4c9.2 0 17 3.8 23.5 11.3s9.7 16.7 9.7 27.4-3.2 19.8-9.7 27.3c-6.5 7.6-14.4 11.4-23.5 11.4-9.2 0-17-3.8-23.5-11.4-6.5-7.5-9.8-16.6-9.8-27.3s3.3-19.8 9.8-27.4c6.5-7.5 14.3-11.3 23.5-11.3" fill="#dea26a" fill-rule="evenodd"/><path d="m223.9 80.5c-16-16.7-35.3-25-57.8-25h-.1-.1c-22.6 0-41.8 8.3-57.8 25s-24 36.8-24 60.3 8 43.6 24 60.3 35.3 25 57.8 25l.1-.3.1.3c22.6 0 41.8-8.3 57.8-25s24-36.8 24-60.3c-.1-23.6-8.1-43.7-24-60.3z" fill="#603913"/><path d="m226.7 103.9c-2.5-4.4-8-8.2-16.5-11.2l-5.9-1.9c-11.1-3.1-23.8-4.8-38.1-5-.1 0-.1 0-.2 0s-.1 0-.2 0c-14.3.2-27 1.9-38.1 5l-5.9 1.9c-8.6 3-14.1 6.8-16.5 11.2-5.2 9.4-6.8 17.5-4.5 24.5 1 3 2.3 5.3 3.9 6.8l7.2 4c4.8 2.9 7.2 5 7.3 6.3 0 .5-1.3 4.2-3.9 11-2.5 8-3.4 15.2-2.8 21.5 2.1 20.3 19.6 30.6 52.7 31h1 1c33-.4 50.6-10.7 52.7-31 .6-6.3-.3-13.5-2.8-21.5-2.6-6.9-3.9-10.5-3.9-11 .1-1.2 2.5-3.3 7.3-6.3l7.2-4c1.7-1.6 3-3.9 3.9-6.8 1.9-7 .3-15.1-4.9-24.5z" fill="#d39e67"/><path clip-rule="evenodd" d="m176.8 123.7c-.2-2.1.5-4.3 2.3-6.5 2-2.6 4.4-3.7 7.2-3.3 3 .4 5.2 1.4 6.7 3 1.4 1.5 2.2 3.7 2.4 6.5.3 3.1-1.1 5.9-4.2 8.5-1.6 1.3-3.2 2.2-4.8 2.9-1.5-.4-3-1.2-4.5-2.3-3-2.4-4.7-5.3-5.1-8.8" fill="#150f0a" fill-rule="evenodd"/><path clip-rule="evenodd" d="m155 123.7c-.4 3.5-2.1 6.4-5.2 8.7-1.5 1.1-3 1.9-4.5 2.3-1.6-.7-3.2-1.6-4.8-2.9-3.1-2.6-4.5-5.4-4.2-8.5.3-2.8 1.1-5 2.4-6.5 1.5-1.6 3.7-2.6 6.7-3 2.8-.4 5.2.7 7.2 3.3 1.9 2.3 2.6 4.5 2.4 6.6" fill="#150f0a" fill-rule="evenodd"/><path d="m233.2 93c-.4-1.2-1.3-2.2-2.7-3.2-.7-.5-1.3-.9-1.8-1.1-24.5-.2-45.4-.3-62.8-.3-17.4.1-38.3.2-62.8.3-.6.2-1.2.6-1.8 1.1-1.3.9-2.2 2-2.7 3.2-1.5 3.8 1.6 7.9 9.3 12.5 8.7 5.1 16.4 8.4 23.3 9.9 5.1 1.1 15.1 2 30.2 2.7 1.5.1 3 .1 4.6.2 1.5 0 3-.1 4.6-.2 15.1-.7 25.1-1.6 30.2-2.7 6.9-1.5 14.6-4.8 23.3-9.9 7.5-4.6 10.6-8.8 9.1-12.5z" fill="#be021b"/><path d="m240.6 54.5c-1.9-5.7-4.9-10.3-9.1-13.8-8.9-9-23-14.8-42.2-17.5-8.3-1.1-16-1.6-23.1-1.4h-.3-.3c-7.1-.2-14.7.3-23.1 1.4-19.2 2.7-33.2 8.5-42.2 17.5-4.2 3.5-7.3 8.1-9.1 13.8-3.7 11.4.2 22.9 11.8 34.3l31.9 3 31 2.7 31-2.7 31.9-3c11.6-11.4 15.5-22.9 11.8-34.3z" fill="#d1001c"/><path d="m207.2 164.1c-.3-1.4-.8-1.9-1.7-1.5l-3.7 5.9c-3.4 4.1-7.5 6.7-12.3 7.6-3.5.7-6.6.5-9.4-.7l-14.2-7.8-14.2 7.8c-2.8 1.2-5.9 1.4-9.4.7-4.8-1-8.8-3.5-12.3-7.6l-3.7-5.9c-.9-.4-1.4.2-1.7 1.5-.1.7-.2 1.4-.2 2.1 5.8 10.6 13.6 15.4 23.6 14.6 3.3-.3 7.2-1.8 11.7-4.5l6.1-3.9 6.1 3.9c4.5 2.7 8.4 4.2 11.7 4.5 10 .8 17.8-4 23.6-14.6.1-.7.1-1.4 0-2.1z" fill="#100000"/><path d="m184.8 51c-1-2.7-2.5-5.1-4.7-7.3-2.3-2.3-4.9-3.9-7.8-4.8-2-.6-4.1-1-6.3-1 0 0 0 0-.1 0 0 0 0 0-.1 0-2.2 0-4.3.3-6.3 1-2.9 1-5.5 2.6-7.8 4.8-2.2 2.2-3.7 4.6-4.7 7.3-.7 2.1-1.1 4.4-1.1 6.8s.4 4.7 1.1 6.8c1 2.7 2.5 5.1 4.7 7.3 3.9 3.9 8.6 5.9 14.1 5.9h.1.1c5.5 0 10.2-2 14.1-5.9 2.2-2.2 3.7-4.6 4.7-7.3.7-2.1 1.1-4.3 1.1-6.8 0-2.4-.4-4.6-1.1-6.8z" fill="#fff"/><path d="m173.2 45.5-7.3 7.7-7.3-7.7-8.6 17.7 5.3 4.6 4.9-13.1 5.7 6.3 5.7-6.3 4.9 13.1 5.3-4.6z" fill="#f00"/><g fill="#5f3812"><path d="m21.6 235.7-.8 32.2 7-5.7-2.1-23h17.1v31l-10 12.9h-21l-8.2-11.5v-35.9z"/><path d="m57.1 235.6-.3 12.9 8.7-11.4 8 9.7-10.1 12.6 14.9 12.2-9.2 11.4-12.5-15.5 2.4 15.5h-14.3l.8-47.4z"/><path d="m89.5 234.9 8.3 45.2-17.7 2.2-1.4-46.7z"/><path d="m111.1 235.6-.3 12.9 8.7-11.4 8 9.7-10.1 12.6 14.9 12.2-9.2 11.4-12.5-15.5 2.4 15.5h-14.3l.8-47.4z"/><path d="m143.4 234.9 8.3 45.2-17.7 2.2-1.4-46.7z"/><path d="m187.1 243.3.8 18.9-9.9 11-12.3.9v9h-13l2.1-47.5h22.5zm-19.6 14.6 3.7.6 4.7-6.3-8-2z"/><path d="m218.3 235.3-2.3 13.2-13.4 2.4-.2 3.3 11.9 1-.6 10.2-10.6 1.1.9 3.4 13 .1 4.7 12.7h-30.7l-3-30.5 3-16.9z"/><path d="m252.1 246.3 2.4 25.6-11.5 10.8h-23v-44.5l20.5-2.9zm-19.4 20 7.5-3v-7l-7.5-4z"/><path d="m266.4 234.9 8.3 45.2-17.7 2.2-1.4-46.7z"/><path d="m318.2 279.5-16.8 3.1-1.3-11.3-13.5-.4-3.1 12.1-16.2-3.3 22.2-42.8 11.1-1.3zm-28.2-20.7 8.5.3-1.9-6.6-4.3-.2z"/><path d="m327.5 268.9-6.7.6-5.2-35.6 11-1.8zm-7.9 9 1.9-4.2 5.1-.3 2 3.6-1.3 5.6-4.5.2z"/></g></svg>